G04 #@! TF.GenerationSoftware,KiCad,Pcbnew,(5.1.4)-1*
G04 #@! TF.CreationDate,2021-02-15T19:13:41-06:00*
G04 #@! TF.ProjectId,CapcitorBreakout,43617063-6974-46f7-9242-7265616b6f75,rev?*
G04 #@! TF.SameCoordinates,Original*
G04 #@! TF.FileFunction,Legend,Bot*
G04 #@! TF.FilePolarity,Positive*
%FSLAX46Y46*%
G04 Gerber Fmt 4.6, Leading zero omitted, Abs format (unit mm)*
G04 Created by KiCad (PCBNEW (5.1.4)-1) date 2021-02-15 19:13:41*
%MOMM*%
%LPD*%
G04 APERTURE LIST*
%ADD10C,0.190500*%
%ADD11C,0.010000*%
%ADD12C,0.150000*%
G04 APERTURE END LIST*
D10*
X153225500Y-81547607D02*
X153261785Y-81595988D01*
X153370642Y-81644369D01*
X153443214Y-81644369D01*
X153552071Y-81595988D01*
X153624642Y-81499226D01*
X153660928Y-81402464D01*
X153697214Y-81208940D01*
X153697214Y-81063797D01*
X153660928Y-80870273D01*
X153624642Y-80773511D01*
X153552071Y-80676750D01*
X153443214Y-80628369D01*
X153370642Y-80628369D01*
X153261785Y-80676750D01*
X153225500Y-80725130D01*
X152572357Y-81644369D02*
X152572357Y-81112178D01*
X152608642Y-81015416D01*
X152681214Y-80967035D01*
X152826357Y-80967035D01*
X152898928Y-81015416D01*
X152572357Y-81595988D02*
X152644928Y-81644369D01*
X152826357Y-81644369D01*
X152898928Y-81595988D01*
X152935214Y-81499226D01*
X152935214Y-81402464D01*
X152898928Y-81305702D01*
X152826357Y-81257321D01*
X152644928Y-81257321D01*
X152572357Y-81208940D01*
X152209500Y-80967035D02*
X152209500Y-81983035D01*
X152209500Y-81015416D02*
X152136928Y-80967035D01*
X151991785Y-80967035D01*
X151919214Y-81015416D01*
X151882928Y-81063797D01*
X151846642Y-81160559D01*
X151846642Y-81450845D01*
X151882928Y-81547607D01*
X151919214Y-81595988D01*
X151991785Y-81644369D01*
X152136928Y-81644369D01*
X152209500Y-81595988D01*
X151193500Y-81644369D02*
X151193500Y-81112178D01*
X151229785Y-81015416D01*
X151302357Y-80967035D01*
X151447500Y-80967035D01*
X151520071Y-81015416D01*
X151193500Y-81595988D02*
X151266071Y-81644369D01*
X151447500Y-81644369D01*
X151520071Y-81595988D01*
X151556357Y-81499226D01*
X151556357Y-81402464D01*
X151520071Y-81305702D01*
X151447500Y-81257321D01*
X151266071Y-81257321D01*
X151193500Y-81208940D01*
X150504071Y-81595988D02*
X150576642Y-81644369D01*
X150721785Y-81644369D01*
X150794357Y-81595988D01*
X150830642Y-81547607D01*
X150866928Y-81450845D01*
X150866928Y-81160559D01*
X150830642Y-81063797D01*
X150794357Y-81015416D01*
X150721785Y-80967035D01*
X150576642Y-80967035D01*
X150504071Y-81015416D01*
X150177500Y-81644369D02*
X150177500Y-80967035D01*
X150177500Y-80628369D02*
X150213785Y-80676750D01*
X150177500Y-80725130D01*
X150141214Y-80676750D01*
X150177500Y-80628369D01*
X150177500Y-80725130D01*
X149923500Y-80967035D02*
X149633214Y-80967035D01*
X149814642Y-80628369D02*
X149814642Y-81499226D01*
X149778357Y-81595988D01*
X149705785Y-81644369D01*
X149633214Y-81644369D01*
X149270357Y-81644369D02*
X149342928Y-81595988D01*
X149379214Y-81547607D01*
X149415500Y-81450845D01*
X149415500Y-81160559D01*
X149379214Y-81063797D01*
X149342928Y-81015416D01*
X149270357Y-80967035D01*
X149161500Y-80967035D01*
X149088928Y-81015416D01*
X149052642Y-81063797D01*
X149016357Y-81160559D01*
X149016357Y-81450845D01*
X149052642Y-81547607D01*
X149088928Y-81595988D01*
X149161500Y-81644369D01*
X149270357Y-81644369D01*
X148689785Y-81644369D02*
X148689785Y-80967035D01*
X148689785Y-81160559D02*
X148653500Y-81063797D01*
X148617214Y-81015416D01*
X148544642Y-80967035D01*
X148472071Y-80967035D01*
X147383500Y-81112178D02*
X147274642Y-81160559D01*
X147238357Y-81208940D01*
X147202071Y-81305702D01*
X147202071Y-81450845D01*
X147238357Y-81547607D01*
X147274642Y-81595988D01*
X147347214Y-81644369D01*
X147637500Y-81644369D01*
X147637500Y-80628369D01*
X147383500Y-80628369D01*
X147310928Y-80676750D01*
X147274642Y-80725130D01*
X147238357Y-80821892D01*
X147238357Y-80918654D01*
X147274642Y-81015416D01*
X147310928Y-81063797D01*
X147383500Y-81112178D01*
X147637500Y-81112178D01*
X146875500Y-81644369D02*
X146875500Y-80967035D01*
X146875500Y-81160559D02*
X146839214Y-81063797D01*
X146802928Y-81015416D01*
X146730357Y-80967035D01*
X146657785Y-80967035D01*
X146113500Y-81595988D02*
X146186071Y-81644369D01*
X146331214Y-81644369D01*
X146403785Y-81595988D01*
X146440071Y-81499226D01*
X146440071Y-81112178D01*
X146403785Y-81015416D01*
X146331214Y-80967035D01*
X146186071Y-80967035D01*
X146113500Y-81015416D01*
X146077214Y-81112178D01*
X146077214Y-81208940D01*
X146440071Y-81305702D01*
X145424071Y-81644369D02*
X145424071Y-81112178D01*
X145460357Y-81015416D01*
X145532928Y-80967035D01*
X145678071Y-80967035D01*
X145750642Y-81015416D01*
X145424071Y-81595988D02*
X145496642Y-81644369D01*
X145678071Y-81644369D01*
X145750642Y-81595988D01*
X145786928Y-81499226D01*
X145786928Y-81402464D01*
X145750642Y-81305702D01*
X145678071Y-81257321D01*
X145496642Y-81257321D01*
X145424071Y-81208940D01*
X145061214Y-81644369D02*
X145061214Y-80628369D01*
X144988642Y-81257321D02*
X144770928Y-81644369D01*
X144770928Y-80967035D02*
X145061214Y-81354083D01*
X144335500Y-81644369D02*
X144408071Y-81595988D01*
X144444357Y-81547607D01*
X144480642Y-81450845D01*
X144480642Y-81160559D01*
X144444357Y-81063797D01*
X144408071Y-81015416D01*
X144335500Y-80967035D01*
X144226642Y-80967035D01*
X144154071Y-81015416D01*
X144117785Y-81063797D01*
X144081500Y-81160559D01*
X144081500Y-81450845D01*
X144117785Y-81547607D01*
X144154071Y-81595988D01*
X144226642Y-81644369D01*
X144335500Y-81644369D01*
X143428357Y-80967035D02*
X143428357Y-81644369D01*
X143754928Y-80967035D02*
X143754928Y-81499226D01*
X143718642Y-81595988D01*
X143646071Y-81644369D01*
X143537214Y-81644369D01*
X143464642Y-81595988D01*
X143428357Y-81547607D01*
X143174357Y-80967035D02*
X142884071Y-80967035D01*
X143065500Y-80628369D02*
X143065500Y-81499226D01*
X143029214Y-81595988D01*
X142956642Y-81644369D01*
X142884071Y-81644369D01*
X142593785Y-81595988D02*
X142593785Y-81644369D01*
X142630071Y-81741130D01*
X142666357Y-81789511D01*
X141251214Y-81644369D02*
X141505214Y-81160559D01*
X141686642Y-81644369D02*
X141686642Y-80628369D01*
X141396357Y-80628369D01*
X141323785Y-80676750D01*
X141287500Y-80725130D01*
X141251214Y-80821892D01*
X141251214Y-80967035D01*
X141287500Y-81063797D01*
X141323785Y-81112178D01*
X141396357Y-81160559D01*
X141686642Y-81160559D01*
X140634357Y-81595988D02*
X140706928Y-81644369D01*
X140852071Y-81644369D01*
X140924642Y-81595988D01*
X140960928Y-81499226D01*
X140960928Y-81112178D01*
X140924642Y-81015416D01*
X140852071Y-80967035D01*
X140706928Y-80967035D01*
X140634357Y-81015416D01*
X140598071Y-81112178D01*
X140598071Y-81208940D01*
X140960928Y-81305702D01*
X140344071Y-80967035D02*
X140162642Y-81644369D01*
X139981214Y-80967035D01*
X139291785Y-81644369D02*
X139727214Y-81644369D01*
X139509500Y-81644369D02*
X139509500Y-80628369D01*
X139582071Y-80773511D01*
X139654642Y-80870273D01*
X139727214Y-80918654D01*
X153443214Y-83358869D02*
X153443214Y-82342869D01*
X153189214Y-83068583D01*
X152935214Y-82342869D01*
X152935214Y-83358869D01*
X152245785Y-83358869D02*
X152245785Y-82826678D01*
X152282071Y-82729916D01*
X152354642Y-82681535D01*
X152499785Y-82681535D01*
X152572357Y-82729916D01*
X152245785Y-83310488D02*
X152318357Y-83358869D01*
X152499785Y-83358869D01*
X152572357Y-83310488D01*
X152608642Y-83213726D01*
X152608642Y-83116964D01*
X152572357Y-83020202D01*
X152499785Y-82971821D01*
X152318357Y-82971821D01*
X152245785Y-82923440D01*
X151882928Y-83358869D02*
X151882928Y-82681535D01*
X151882928Y-82875059D02*
X151846642Y-82778297D01*
X151810357Y-82729916D01*
X151737785Y-82681535D01*
X151665214Y-82681535D01*
X151447500Y-83310488D02*
X151374928Y-83358869D01*
X151229785Y-83358869D01*
X151157214Y-83310488D01*
X151120928Y-83213726D01*
X151120928Y-83165345D01*
X151157214Y-83068583D01*
X151229785Y-83020202D01*
X151338642Y-83020202D01*
X151411214Y-82971821D01*
X151447500Y-82875059D01*
X151447500Y-82826678D01*
X151411214Y-82729916D01*
X151338642Y-82681535D01*
X151229785Y-82681535D01*
X151157214Y-82729916D01*
X149778357Y-83358869D02*
X150032357Y-82875059D01*
X150213785Y-83358869D02*
X150213785Y-82342869D01*
X149923500Y-82342869D01*
X149850928Y-82391250D01*
X149814642Y-82439630D01*
X149778357Y-82536392D01*
X149778357Y-82681535D01*
X149814642Y-82778297D01*
X149850928Y-82826678D01*
X149923500Y-82875059D01*
X150213785Y-82875059D01*
X149342928Y-83358869D02*
X149415500Y-83310488D01*
X149451785Y-83262107D01*
X149488071Y-83165345D01*
X149488071Y-82875059D01*
X149451785Y-82778297D01*
X149415500Y-82729916D01*
X149342928Y-82681535D01*
X149234071Y-82681535D01*
X149161500Y-82729916D01*
X149125214Y-82778297D01*
X149088928Y-82875059D01*
X149088928Y-83165345D01*
X149125214Y-83262107D01*
X149161500Y-83310488D01*
X149234071Y-83358869D01*
X149342928Y-83358869D01*
X148834928Y-82681535D02*
X148653500Y-83358869D01*
X148472071Y-82681535D01*
X147891500Y-83310488D02*
X147964071Y-83358869D01*
X148109214Y-83358869D01*
X148181785Y-83310488D01*
X148218071Y-83213726D01*
X148218071Y-82826678D01*
X148181785Y-82729916D01*
X148109214Y-82681535D01*
X147964071Y-82681535D01*
X147891500Y-82729916D01*
X147855214Y-82826678D01*
X147855214Y-82923440D01*
X148218071Y-83020202D01*
X147528642Y-83358869D02*
X147528642Y-82681535D01*
X147528642Y-82875059D02*
X147492357Y-82778297D01*
X147456071Y-82729916D01*
X147383500Y-82681535D01*
X147310928Y-82681535D01*
X146476357Y-83358869D02*
X146476357Y-82342869D01*
X146294928Y-82342869D01*
X146186071Y-82391250D01*
X146113500Y-82488011D01*
X146077214Y-82584773D01*
X146040928Y-82778297D01*
X146040928Y-82923440D01*
X146077214Y-83116964D01*
X146113500Y-83213726D01*
X146186071Y-83310488D01*
X146294928Y-83358869D01*
X146476357Y-83358869D01*
X145424071Y-83310488D02*
X145496642Y-83358869D01*
X145641785Y-83358869D01*
X145714357Y-83310488D01*
X145750642Y-83213726D01*
X145750642Y-82826678D01*
X145714357Y-82729916D01*
X145641785Y-82681535D01*
X145496642Y-82681535D01*
X145424071Y-82729916D01*
X145387785Y-82826678D01*
X145387785Y-82923440D01*
X145750642Y-83020202D01*
X145097500Y-83310488D02*
X145024928Y-83358869D01*
X144879785Y-83358869D01*
X144807214Y-83310488D01*
X144770928Y-83213726D01*
X144770928Y-83165345D01*
X144807214Y-83068583D01*
X144879785Y-83020202D01*
X144988642Y-83020202D01*
X145061214Y-82971821D01*
X145097500Y-82875059D01*
X145097500Y-82826678D01*
X145061214Y-82729916D01*
X144988642Y-82681535D01*
X144879785Y-82681535D01*
X144807214Y-82729916D01*
X144444357Y-83358869D02*
X144444357Y-82681535D01*
X144444357Y-82342869D02*
X144480642Y-82391250D01*
X144444357Y-82439630D01*
X144408071Y-82391250D01*
X144444357Y-82342869D01*
X144444357Y-82439630D01*
X143754928Y-82681535D02*
X143754928Y-83504011D01*
X143791214Y-83600773D01*
X143827500Y-83649154D01*
X143900071Y-83697535D01*
X144008928Y-83697535D01*
X144081500Y-83649154D01*
X143754928Y-83310488D02*
X143827500Y-83358869D01*
X143972642Y-83358869D01*
X144045214Y-83310488D01*
X144081500Y-83262107D01*
X144117785Y-83165345D01*
X144117785Y-82875059D01*
X144081500Y-82778297D01*
X144045214Y-82729916D01*
X143972642Y-82681535D01*
X143827500Y-82681535D01*
X143754928Y-82729916D01*
X143392071Y-82681535D02*
X143392071Y-83358869D01*
X143392071Y-82778297D02*
X143355785Y-82729916D01*
X143283214Y-82681535D01*
X143174357Y-82681535D01*
X143101785Y-82729916D01*
X143065500Y-82826678D01*
X143065500Y-83358869D01*
X142230928Y-82342869D02*
X141795500Y-82342869D01*
X142013214Y-83358869D02*
X142013214Y-82342869D01*
X141251214Y-83310488D02*
X141323785Y-83358869D01*
X141468928Y-83358869D01*
X141541500Y-83310488D01*
X141577785Y-83213726D01*
X141577785Y-82826678D01*
X141541500Y-82729916D01*
X141468928Y-82681535D01*
X141323785Y-82681535D01*
X141251214Y-82729916D01*
X141214928Y-82826678D01*
X141214928Y-82923440D01*
X141577785Y-83020202D01*
X140561785Y-83358869D02*
X140561785Y-82826678D01*
X140598071Y-82729916D01*
X140670642Y-82681535D01*
X140815785Y-82681535D01*
X140888357Y-82729916D01*
X140561785Y-83310488D02*
X140634357Y-83358869D01*
X140815785Y-83358869D01*
X140888357Y-83310488D01*
X140924642Y-83213726D01*
X140924642Y-83116964D01*
X140888357Y-83020202D01*
X140815785Y-82971821D01*
X140634357Y-82971821D01*
X140561785Y-82923440D01*
X140198928Y-83358869D02*
X140198928Y-82681535D01*
X140198928Y-82778297D02*
X140162642Y-82729916D01*
X140090071Y-82681535D01*
X139981214Y-82681535D01*
X139908642Y-82729916D01*
X139872357Y-82826678D01*
X139872357Y-83358869D01*
X139872357Y-82826678D02*
X139836071Y-82729916D01*
X139763500Y-82681535D01*
X139654642Y-82681535D01*
X139582071Y-82729916D01*
X139545785Y-82826678D01*
X139545785Y-83358869D01*
X151991785Y-85073369D02*
X151991785Y-84057369D01*
X151737785Y-84783083D01*
X151483785Y-84057369D01*
X151483785Y-85073369D01*
X151120928Y-85073369D02*
X151120928Y-84396035D01*
X151120928Y-84057369D02*
X151157214Y-84105750D01*
X151120928Y-84154130D01*
X151084642Y-84105750D01*
X151120928Y-84057369D01*
X151120928Y-84154130D01*
X150794357Y-85024988D02*
X150721785Y-85073369D01*
X150576642Y-85073369D01*
X150504071Y-85024988D01*
X150467785Y-84928226D01*
X150467785Y-84879845D01*
X150504071Y-84783083D01*
X150576642Y-84734702D01*
X150685500Y-84734702D01*
X150758071Y-84686321D01*
X150794357Y-84589559D01*
X150794357Y-84541178D01*
X150758071Y-84444416D01*
X150685500Y-84396035D01*
X150576642Y-84396035D01*
X150504071Y-84444416D01*
X150177500Y-85024988D02*
X150104928Y-85073369D01*
X149959785Y-85073369D01*
X149887214Y-85024988D01*
X149850928Y-84928226D01*
X149850928Y-84879845D01*
X149887214Y-84783083D01*
X149959785Y-84734702D01*
X150068642Y-84734702D01*
X150141214Y-84686321D01*
X150177500Y-84589559D01*
X150177500Y-84541178D01*
X150141214Y-84444416D01*
X150068642Y-84396035D01*
X149959785Y-84396035D01*
X149887214Y-84444416D01*
X149415499Y-85073369D02*
X149488071Y-85024988D01*
X149524357Y-84976607D01*
X149560642Y-84879845D01*
X149560642Y-84589559D01*
X149524357Y-84492797D01*
X149488071Y-84444416D01*
X149415499Y-84396035D01*
X149306642Y-84396035D01*
X149234071Y-84444416D01*
X149197785Y-84492797D01*
X149161499Y-84589559D01*
X149161499Y-84879845D01*
X149197785Y-84976607D01*
X149234071Y-85024988D01*
X149306642Y-85073369D01*
X149415499Y-85073369D01*
X148508357Y-84396035D02*
X148508357Y-85073369D01*
X148834928Y-84396035D02*
X148834928Y-84928226D01*
X148798642Y-85024988D01*
X148726071Y-85073369D01*
X148617214Y-85073369D01*
X148544642Y-85024988D01*
X148508357Y-84976607D01*
X148145499Y-85073369D02*
X148145499Y-84396035D01*
X148145499Y-84589559D02*
X148109214Y-84492797D01*
X148072928Y-84444416D01*
X148000357Y-84396035D01*
X147927785Y-84396035D01*
X147673785Y-85073369D02*
X147673785Y-84396035D01*
X147673785Y-84057369D02*
X147710071Y-84105750D01*
X147673785Y-84154130D01*
X147637500Y-84105750D01*
X147673785Y-84057369D01*
X147673785Y-84154130D01*
X146766642Y-85024988D02*
X146657785Y-85073369D01*
X146476357Y-85073369D01*
X146403785Y-85024988D01*
X146367500Y-84976607D01*
X146331214Y-84879845D01*
X146331214Y-84783083D01*
X146367500Y-84686321D01*
X146403785Y-84637940D01*
X146476357Y-84589559D01*
X146621500Y-84541178D01*
X146694071Y-84492797D01*
X146730357Y-84444416D01*
X146766642Y-84347654D01*
X146766642Y-84250892D01*
X146730357Y-84154130D01*
X146694071Y-84105750D01*
X146621500Y-84057369D01*
X146440071Y-84057369D01*
X146331214Y-84105750D01*
X145387785Y-85073369D02*
X145424071Y-85073369D01*
X145496642Y-85024988D01*
X145605500Y-84879845D01*
X145786928Y-84589559D01*
X145859500Y-84444416D01*
X145895785Y-84299273D01*
X145895785Y-84202511D01*
X145859500Y-84105750D01*
X145786928Y-84057369D01*
X145750642Y-84057369D01*
X145678071Y-84105750D01*
X145641785Y-84202511D01*
X145641785Y-84250892D01*
X145678071Y-84347654D01*
X145714357Y-84396035D01*
X145932071Y-84589559D01*
X145968357Y-84637940D01*
X146004642Y-84734702D01*
X146004642Y-84879845D01*
X145968357Y-84976607D01*
X145932071Y-85024988D01*
X145859500Y-85073369D01*
X145750642Y-85073369D01*
X145678071Y-85024988D01*
X145641785Y-84976607D01*
X145532928Y-84783083D01*
X145496642Y-84637940D01*
X145496642Y-84541178D01*
X145170071Y-84057369D02*
X144734642Y-84057369D01*
X144952357Y-85073369D02*
X144952357Y-84057369D01*
X144444357Y-85024988D02*
X144444357Y-85073369D01*
X144480642Y-85170130D01*
X144516928Y-85218511D01*
X143573500Y-84154130D02*
X143537214Y-84105750D01*
X143464642Y-84057369D01*
X143283214Y-84057369D01*
X143210642Y-84105750D01*
X143174357Y-84154130D01*
X143138071Y-84250892D01*
X143138071Y-84347654D01*
X143174357Y-84492797D01*
X143609785Y-85073369D01*
X143138071Y-85073369D01*
X142666357Y-84057369D02*
X142593785Y-84057369D01*
X142521214Y-84105750D01*
X142484928Y-84154130D01*
X142448642Y-84250892D01*
X142412357Y-84444416D01*
X142412357Y-84686321D01*
X142448642Y-84879845D01*
X142484928Y-84976607D01*
X142521214Y-85024988D01*
X142593785Y-85073369D01*
X142666357Y-85073369D01*
X142738928Y-85024988D01*
X142775214Y-84976607D01*
X142811500Y-84879845D01*
X142847785Y-84686321D01*
X142847785Y-84444416D01*
X142811500Y-84250892D01*
X142775214Y-84154130D01*
X142738928Y-84105750D01*
X142666357Y-84057369D01*
X142122071Y-84154130D02*
X142085785Y-84105750D01*
X142013214Y-84057369D01*
X141831785Y-84057369D01*
X141759214Y-84105750D01*
X141722928Y-84154130D01*
X141686642Y-84250892D01*
X141686642Y-84347654D01*
X141722928Y-84492797D01*
X142158357Y-85073369D01*
X141686642Y-85073369D01*
X140960928Y-85073369D02*
X141396357Y-85073369D01*
X141178642Y-85073369D02*
X141178642Y-84057369D01*
X141251214Y-84202511D01*
X141323785Y-84299273D01*
X141396357Y-84347654D01*
X150758071Y-86497583D02*
X150395214Y-86497583D01*
X150830642Y-86787869D02*
X150576642Y-85771869D01*
X150322642Y-86787869D01*
X150068642Y-86110535D02*
X150068642Y-86787869D01*
X150068642Y-86207297D02*
X150032357Y-86158916D01*
X149959785Y-86110535D01*
X149850928Y-86110535D01*
X149778357Y-86158916D01*
X149742071Y-86255678D01*
X149742071Y-86787869D01*
X149488071Y-86110535D02*
X149197785Y-86110535D01*
X149379214Y-85771869D02*
X149379214Y-86642726D01*
X149342928Y-86739488D01*
X149270357Y-86787869D01*
X149197785Y-86787869D01*
X148943785Y-86787869D02*
X148943785Y-85771869D01*
X148617214Y-86787869D02*
X148617214Y-86255678D01*
X148653500Y-86158916D01*
X148726071Y-86110535D01*
X148834928Y-86110535D01*
X148907500Y-86158916D01*
X148943785Y-86207297D01*
X148145500Y-86787869D02*
X148218071Y-86739488D01*
X148254357Y-86691107D01*
X148290642Y-86594345D01*
X148290642Y-86304059D01*
X148254357Y-86207297D01*
X148218071Y-86158916D01*
X148145500Y-86110535D01*
X148036642Y-86110535D01*
X147964071Y-86158916D01*
X147927785Y-86207297D01*
X147891500Y-86304059D01*
X147891500Y-86594345D01*
X147927785Y-86691107D01*
X147964071Y-86739488D01*
X148036642Y-86787869D01*
X148145500Y-86787869D01*
X147564928Y-86110535D02*
X147564928Y-86787869D01*
X147564928Y-86207297D02*
X147528642Y-86158916D01*
X147456071Y-86110535D01*
X147347214Y-86110535D01*
X147274642Y-86158916D01*
X147238357Y-86255678D01*
X147238357Y-86787869D01*
X146948071Y-86110535D02*
X146766642Y-86787869D01*
X146585214Y-86110535D02*
X146766642Y-86787869D01*
X146839214Y-87029773D01*
X146875500Y-87078154D01*
X146948071Y-87126535D01*
X145278928Y-86787869D02*
X145532928Y-86304059D01*
X145714357Y-86787869D02*
X145714357Y-85771869D01*
X145424071Y-85771869D01*
X145351500Y-85820250D01*
X145315214Y-85868630D01*
X145278928Y-85965392D01*
X145278928Y-86110535D01*
X145315214Y-86207297D01*
X145351500Y-86255678D01*
X145424071Y-86304059D01*
X145714357Y-86304059D01*
X144843500Y-86787869D02*
X144916071Y-86739488D01*
X144952357Y-86691107D01*
X144988642Y-86594345D01*
X144988642Y-86304059D01*
X144952357Y-86207297D01*
X144916071Y-86158916D01*
X144843500Y-86110535D01*
X144734642Y-86110535D01*
X144662071Y-86158916D01*
X144625785Y-86207297D01*
X144589500Y-86304059D01*
X144589500Y-86594345D01*
X144625785Y-86691107D01*
X144662071Y-86739488D01*
X144734642Y-86787869D01*
X144843500Y-86787869D01*
X144262928Y-86787869D02*
X144262928Y-85771869D01*
X144262928Y-86158916D02*
X144190357Y-86110535D01*
X144045214Y-86110535D01*
X143972642Y-86158916D01*
X143936357Y-86207297D01*
X143900071Y-86304059D01*
X143900071Y-86594345D01*
X143936357Y-86691107D01*
X143972642Y-86739488D01*
X144045214Y-86787869D01*
X144190357Y-86787869D01*
X144262928Y-86739488D01*
X143464642Y-86787869D02*
X143537214Y-86739488D01*
X143573500Y-86642726D01*
X143573500Y-85771869D01*
X142884071Y-86739488D02*
X142956642Y-86787869D01*
X143101785Y-86787869D01*
X143174357Y-86739488D01*
X143210642Y-86642726D01*
X143210642Y-86255678D01*
X143174357Y-86158916D01*
X143101785Y-86110535D01*
X142956642Y-86110535D01*
X142884071Y-86158916D01*
X142847785Y-86255678D01*
X142847785Y-86352440D01*
X143210642Y-86449202D01*
X142557500Y-86739488D02*
X142484928Y-86787869D01*
X142339785Y-86787869D01*
X142267214Y-86739488D01*
X142230928Y-86642726D01*
X142230928Y-86594345D01*
X142267214Y-86497583D01*
X142339785Y-86449202D01*
X142448642Y-86449202D01*
X142521214Y-86400821D01*
X142557500Y-86304059D01*
X142557500Y-86255678D01*
X142521214Y-86158916D01*
X142448642Y-86110535D01*
X142339785Y-86110535D01*
X142267214Y-86158916D01*
D11*
G36*
X130996992Y-92911512D02*
G01*
X130999143Y-92909548D01*
X131020137Y-92862775D01*
X131018528Y-92833348D01*
X131007754Y-92807612D01*
X131003446Y-92815873D01*
X130992859Y-92864168D01*
X130984061Y-92892073D01*
X130977452Y-92922540D01*
X130996992Y-92911512D01*
X130996992Y-92911512D01*
G37*
X130996992Y-92911512D02*
X130999143Y-92909548D01*
X131020137Y-92862775D01*
X131018528Y-92833348D01*
X131007754Y-92807612D01*
X131003446Y-92815873D01*
X130992859Y-92864168D01*
X130984061Y-92892073D01*
X130977452Y-92922540D01*
X130996992Y-92911512D01*
G36*
X131000500Y-92760800D02*
G01*
X130987800Y-92748100D01*
X130975100Y-92760800D01*
X130987800Y-92773500D01*
X131000500Y-92760800D01*
X131000500Y-92760800D01*
G37*
X131000500Y-92760800D02*
X130987800Y-92748100D01*
X130975100Y-92760800D01*
X130987800Y-92773500D01*
X131000500Y-92760800D01*
G36*
X130746500Y-92532200D02*
G01*
X130733800Y-92519500D01*
X130721100Y-92532200D01*
X130733800Y-92544900D01*
X130746500Y-92532200D01*
X130746500Y-92532200D01*
G37*
X130746500Y-92532200D02*
X130733800Y-92519500D01*
X130721100Y-92532200D01*
X130733800Y-92544900D01*
X130746500Y-92532200D01*
G36*
X130771900Y-92481400D02*
G01*
X130759200Y-92468700D01*
X130746500Y-92481400D01*
X130759200Y-92494100D01*
X130771900Y-92481400D01*
X130771900Y-92481400D01*
G37*
X130771900Y-92481400D02*
X130759200Y-92468700D01*
X130746500Y-92481400D01*
X130759200Y-92494100D01*
X130771900Y-92481400D01*
G36*
X130771900Y-92430600D02*
G01*
X130759200Y-92417900D01*
X130746500Y-92430600D01*
X130759200Y-92443300D01*
X130771900Y-92430600D01*
X130771900Y-92430600D01*
G37*
X130771900Y-92430600D02*
X130759200Y-92417900D01*
X130746500Y-92430600D01*
X130759200Y-92443300D01*
X130771900Y-92430600D01*
G36*
X133108700Y-92532200D02*
G01*
X133096000Y-92519500D01*
X133083300Y-92532200D01*
X133096000Y-92544900D01*
X133108700Y-92532200D01*
X133108700Y-92532200D01*
G37*
X133108700Y-92532200D02*
X133096000Y-92519500D01*
X133083300Y-92532200D01*
X133096000Y-92544900D01*
X133108700Y-92532200D01*
G36*
X130187700Y-94767400D02*
G01*
X130175000Y-94754700D01*
X130162300Y-94767400D01*
X130175000Y-94780100D01*
X130187700Y-94767400D01*
X130187700Y-94767400D01*
G37*
X130187700Y-94767400D02*
X130175000Y-94754700D01*
X130162300Y-94767400D01*
X130175000Y-94780100D01*
X130187700Y-94767400D01*
G36*
X130187700Y-94640400D02*
G01*
X130175000Y-94627700D01*
X130162300Y-94640400D01*
X130175000Y-94653100D01*
X130187700Y-94640400D01*
X130187700Y-94640400D01*
G37*
X130187700Y-94640400D02*
X130175000Y-94627700D01*
X130162300Y-94640400D01*
X130175000Y-94653100D01*
X130187700Y-94640400D01*
G36*
X132410200Y-92236530D02*
G01*
X132359400Y-92214700D01*
X132300059Y-92195904D01*
X132270500Y-92191475D01*
X132245217Y-92193797D01*
X132264067Y-92210503D01*
X132270500Y-92214700D01*
X132328169Y-92235180D01*
X132359400Y-92237926D01*
X132410200Y-92236530D01*
X132410200Y-92236530D01*
G37*
X132410200Y-92236530D02*
X132359400Y-92214700D01*
X132300059Y-92195904D01*
X132270500Y-92191475D01*
X132245217Y-92193797D01*
X132264067Y-92210503D01*
X132270500Y-92214700D01*
X132328169Y-92235180D01*
X132359400Y-92237926D01*
X132410200Y-92236530D01*
G36*
X132363633Y-92104634D02*
G01*
X132360146Y-92089534D01*
X132346700Y-92087700D01*
X132325792Y-92096994D01*
X132329766Y-92104634D01*
X132359910Y-92107674D01*
X132363633Y-92104634D01*
X132363633Y-92104634D01*
G37*
X132363633Y-92104634D02*
X132360146Y-92089534D01*
X132346700Y-92087700D01*
X132325792Y-92096994D01*
X132329766Y-92104634D01*
X132359910Y-92107674D01*
X132363633Y-92104634D01*
G36*
X131279900Y-91846400D02*
G01*
X131267200Y-91833700D01*
X131254500Y-91846400D01*
X131267200Y-91859100D01*
X131279900Y-91846400D01*
X131279900Y-91846400D01*
G37*
X131279900Y-91846400D02*
X131267200Y-91833700D01*
X131254500Y-91846400D01*
X131267200Y-91859100D01*
X131279900Y-91846400D01*
G36*
X133049433Y-91799834D02*
G01*
X133052473Y-91769690D01*
X133049433Y-91765967D01*
X133034333Y-91769454D01*
X133032500Y-91782900D01*
X133041793Y-91803808D01*
X133049433Y-91799834D01*
X133049433Y-91799834D01*
G37*
X133049433Y-91799834D02*
X133052473Y-91769690D01*
X133049433Y-91765967D01*
X133034333Y-91769454D01*
X133032500Y-91782900D01*
X133041793Y-91803808D01*
X133049433Y-91799834D01*
G36*
X133848173Y-91950117D02*
G01*
X133882462Y-91895845D01*
X133895535Y-91855094D01*
X133882500Y-91848708D01*
X133851324Y-91877918D01*
X133846106Y-91884500D01*
X133806936Y-91925537D01*
X133777610Y-91926366D01*
X133766080Y-91916939D01*
X133747764Y-91879653D01*
X133762881Y-91824526D01*
X133764013Y-91822021D01*
X133779056Y-91737021D01*
X133770014Y-91700682D01*
X133754253Y-91666483D01*
X133747466Y-91674902D01*
X133745310Y-91724251D01*
X133735981Y-91794883D01*
X133715652Y-91822924D01*
X133690222Y-91813690D01*
X133665593Y-91772496D01*
X133647664Y-91704658D01*
X133642100Y-91631277D01*
X133631290Y-91545244D01*
X133604700Y-91468295D01*
X133598938Y-91458157D01*
X133555776Y-91389200D01*
X133624238Y-91450684D01*
X133679074Y-91492042D01*
X133704615Y-91497578D01*
X133695318Y-91471708D01*
X133654241Y-91426776D01*
X133602823Y-91387996D01*
X133551548Y-91363002D01*
X133512981Y-91355498D01*
X133499687Y-91369191D01*
X133505018Y-91382774D01*
X133531918Y-91425316D01*
X133570928Y-91483220D01*
X133571272Y-91483718D01*
X133609230Y-91579881D01*
X133613342Y-91664372D01*
X133614870Y-91735689D01*
X133633495Y-91794198D01*
X133677169Y-91860018D01*
X133703908Y-91893477D01*
X133800246Y-92011046D01*
X133848173Y-91950117D01*
X133848173Y-91950117D01*
G37*
X133848173Y-91950117D02*
X133882462Y-91895845D01*
X133895535Y-91855094D01*
X133882500Y-91848708D01*
X133851324Y-91877918D01*
X133846106Y-91884500D01*
X133806936Y-91925537D01*
X133777610Y-91926366D01*
X133766080Y-91916939D01*
X133747764Y-91879653D01*
X133762881Y-91824526D01*
X133764013Y-91822021D01*
X133779056Y-91737021D01*
X133770014Y-91700682D01*
X133754253Y-91666483D01*
X133747466Y-91674902D01*
X133745310Y-91724251D01*
X133735981Y-91794883D01*
X133715652Y-91822924D01*
X133690222Y-91813690D01*
X133665593Y-91772496D01*
X133647664Y-91704658D01*
X133642100Y-91631277D01*
X133631290Y-91545244D01*
X133604700Y-91468295D01*
X133598938Y-91458157D01*
X133555776Y-91389200D01*
X133624238Y-91450684D01*
X133679074Y-91492042D01*
X133704615Y-91497578D01*
X133695318Y-91471708D01*
X133654241Y-91426776D01*
X133602823Y-91387996D01*
X133551548Y-91363002D01*
X133512981Y-91355498D01*
X133499687Y-91369191D01*
X133505018Y-91382774D01*
X133531918Y-91425316D01*
X133570928Y-91483220D01*
X133571272Y-91483718D01*
X133609230Y-91579881D01*
X133613342Y-91664372D01*
X133614870Y-91735689D01*
X133633495Y-91794198D01*
X133677169Y-91860018D01*
X133703908Y-91893477D01*
X133800246Y-92011046D01*
X133848173Y-91950117D01*
G36*
X131965700Y-90779600D02*
G01*
X131953000Y-90766900D01*
X131940300Y-90779600D01*
X131953000Y-90792300D01*
X131965700Y-90779600D01*
X131965700Y-90779600D01*
G37*
X131965700Y-90779600D02*
X131953000Y-90766900D01*
X131940300Y-90779600D01*
X131953000Y-90792300D01*
X131965700Y-90779600D01*
G36*
X131889500Y-90779600D02*
G01*
X131876800Y-90766900D01*
X131864100Y-90779600D01*
X131876800Y-90792300D01*
X131889500Y-90779600D01*
X131889500Y-90779600D01*
G37*
X131889500Y-90779600D02*
X131876800Y-90766900D01*
X131864100Y-90779600D01*
X131876800Y-90792300D01*
X131889500Y-90779600D01*
G36*
X132219700Y-90728800D02*
G01*
X132207000Y-90716100D01*
X132194300Y-90728800D01*
X132207000Y-90741500D01*
X132219700Y-90728800D01*
X132219700Y-90728800D01*
G37*
X132219700Y-90728800D02*
X132207000Y-90716100D01*
X132194300Y-90728800D01*
X132207000Y-90741500D01*
X132219700Y-90728800D01*
G36*
X131838700Y-90703400D02*
G01*
X131826000Y-90690700D01*
X131813300Y-90703400D01*
X131826000Y-90716100D01*
X131838700Y-90703400D01*
X131838700Y-90703400D01*
G37*
X131838700Y-90703400D02*
X131826000Y-90690700D01*
X131813300Y-90703400D01*
X131826000Y-90716100D01*
X131838700Y-90703400D01*
G36*
X132072837Y-90848349D02*
G01*
X132167517Y-90831172D01*
X132252265Y-90809391D01*
X132309616Y-90786379D01*
X132319643Y-90779000D01*
X132342337Y-90745888D01*
X132335036Y-90705811D01*
X132320648Y-90676783D01*
X132276648Y-90617948D01*
X132233405Y-90582975D01*
X132198300Y-90566593D01*
X132202123Y-90579706D01*
X132215536Y-90596529D01*
X132236296Y-90640764D01*
X132233267Y-90663897D01*
X132236050Y-90679557D01*
X132256480Y-90674992D01*
X132289918Y-90673087D01*
X132288318Y-90702998D01*
X132259233Y-90749640D01*
X132243076Y-90759620D01*
X132274594Y-90759620D01*
X132280774Y-90745425D01*
X132306349Y-90718157D01*
X132321052Y-90723751D01*
X132321300Y-90727301D01*
X132303258Y-90748785D01*
X132291975Y-90756626D01*
X132274594Y-90759620D01*
X132243076Y-90759620D01*
X132220550Y-90773533D01*
X132151910Y-90793773D01*
X132067045Y-90808894D01*
X131979688Y-90817433D01*
X131903570Y-90817926D01*
X131852425Y-90808910D01*
X131838700Y-90794468D01*
X131825012Y-90774902D01*
X131815961Y-90777956D01*
X131788702Y-90771693D01*
X131779777Y-90756971D01*
X131784608Y-90709947D01*
X131818046Y-90647398D01*
X131869972Y-90586673D01*
X131888334Y-90570858D01*
X131910875Y-90545833D01*
X131905561Y-90539108D01*
X131876733Y-90555282D01*
X131825955Y-90597763D01*
X131784911Y-90636912D01*
X131715832Y-90714710D01*
X131689728Y-90769699D01*
X131706527Y-90806044D01*
X131766155Y-90827911D01*
X131781550Y-90830650D01*
X131857581Y-90843353D01*
X131918159Y-90854348D01*
X131923537Y-90855421D01*
X131985689Y-90857556D01*
X132072837Y-90848349D01*
X132072837Y-90848349D01*
G37*
X132072837Y-90848349D02*
X132167517Y-90831172D01*
X132252265Y-90809391D01*
X132309616Y-90786379D01*
X132319643Y-90779000D01*
X132342337Y-90745888D01*
X132335036Y-90705811D01*
X132320648Y-90676783D01*
X132276648Y-90617948D01*
X132233405Y-90582975D01*
X132198300Y-90566593D01*
X132202123Y-90579706D01*
X132215536Y-90596529D01*
X132236296Y-90640764D01*
X132233267Y-90663897D01*
X132236050Y-90679557D01*
X132256480Y-90674992D01*
X132289918Y-90673087D01*
X132288318Y-90702998D01*
X132259233Y-90749640D01*
X132243076Y-90759620D01*
X132274594Y-90759620D01*
X132280774Y-90745425D01*
X132306349Y-90718157D01*
X132321052Y-90723751D01*
X132321300Y-90727301D01*
X132303258Y-90748785D01*
X132291975Y-90756626D01*
X132274594Y-90759620D01*
X132243076Y-90759620D01*
X132220550Y-90773533D01*
X132151910Y-90793773D01*
X132067045Y-90808894D01*
X131979688Y-90817433D01*
X131903570Y-90817926D01*
X131852425Y-90808910D01*
X131838700Y-90794468D01*
X131825012Y-90774902D01*
X131815961Y-90777956D01*
X131788702Y-90771693D01*
X131779777Y-90756971D01*
X131784608Y-90709947D01*
X131818046Y-90647398D01*
X131869972Y-90586673D01*
X131888334Y-90570858D01*
X131910875Y-90545833D01*
X131905561Y-90539108D01*
X131876733Y-90555282D01*
X131825955Y-90597763D01*
X131784911Y-90636912D01*
X131715832Y-90714710D01*
X131689728Y-90769699D01*
X131706527Y-90806044D01*
X131766155Y-90827911D01*
X131781550Y-90830650D01*
X131857581Y-90843353D01*
X131918159Y-90854348D01*
X131923537Y-90855421D01*
X131985689Y-90857556D01*
X132072837Y-90848349D01*
G36*
X131677575Y-90082368D02*
G01*
X131685824Y-90028711D01*
X131686300Y-90006400D01*
X131684614Y-89935924D01*
X131677274Y-89907486D01*
X131660855Y-89912369D01*
X131652433Y-89920234D01*
X131638013Y-89960325D01*
X131636809Y-90020312D01*
X131647548Y-90074121D01*
X131660900Y-90093800D01*
X131677575Y-90082368D01*
X131677575Y-90082368D01*
G37*
X131677575Y-90082368D02*
X131685824Y-90028711D01*
X131686300Y-90006400D01*
X131684614Y-89935924D01*
X131677274Y-89907486D01*
X131660855Y-89912369D01*
X131652433Y-89920234D01*
X131638013Y-89960325D01*
X131636809Y-90020312D01*
X131647548Y-90074121D01*
X131660900Y-90093800D01*
X131677575Y-90082368D01*
G36*
X132010472Y-94855957D02*
G01*
X132298374Y-94854904D01*
X132539132Y-94853106D01*
X132734571Y-94850527D01*
X132886517Y-94847132D01*
X132996795Y-94842887D01*
X133067232Y-94837756D01*
X133099652Y-94831704D01*
X133102350Y-94828765D01*
X133121499Y-94808020D01*
X133178049Y-94776580D01*
X133261297Y-94740087D01*
X133295849Y-94726758D01*
X133398953Y-94685457D01*
X133491861Y-94643203D01*
X133557501Y-94607872D01*
X133566470Y-94601894D01*
X133617075Y-94567938D01*
X133646970Y-94551729D01*
X133648349Y-94551500D01*
X133660841Y-94573737D01*
X133682412Y-94631723D01*
X133705600Y-94703900D01*
X133751743Y-94856300D01*
X133909723Y-94856300D01*
X134001036Y-94853608D01*
X134056693Y-94842643D01*
X134091685Y-94819077D01*
X134107569Y-94799151D01*
X134147435Y-94742000D01*
X134148767Y-94799150D01*
X134150904Y-94821736D01*
X134161326Y-94837416D01*
X134187899Y-94847451D01*
X134238490Y-94853100D01*
X134320966Y-94855623D01*
X134443195Y-94856279D01*
X134505700Y-94856300D01*
X134861300Y-94856300D01*
X134861300Y-94506810D01*
X134860767Y-94366338D01*
X134858400Y-94268027D01*
X134853039Y-94203243D01*
X134843530Y-94163351D01*
X134828713Y-94139718D01*
X134810191Y-94125403D01*
X134759083Y-94093485D01*
X134810191Y-93993305D01*
X134819551Y-93973789D01*
X134827693Y-93952115D01*
X134834702Y-93924805D01*
X134840662Y-93888380D01*
X134845659Y-93839360D01*
X134849777Y-93774266D01*
X134853101Y-93689620D01*
X134855716Y-93581942D01*
X134857707Y-93447754D01*
X134859159Y-93283577D01*
X134860156Y-93085930D01*
X134860784Y-92851337D01*
X134861127Y-92576316D01*
X134861271Y-92257391D01*
X134861300Y-91898212D01*
X134861300Y-89903300D01*
X133121400Y-89905546D01*
X133217932Y-89956488D01*
X133281320Y-89996489D01*
X133322907Y-90034812D01*
X133328788Y-90044757D01*
X133337384Y-90106767D01*
X133332724Y-90196302D01*
X133317795Y-90295434D01*
X133295587Y-90386233D01*
X133269090Y-90450770D01*
X133258835Y-90464365D01*
X133211056Y-90504465D01*
X133184329Y-90502498D01*
X133173393Y-90455241D01*
X133172200Y-90411300D01*
X133176427Y-90347661D01*
X133186988Y-90312281D01*
X133191250Y-90309700D01*
X133205704Y-90331427D01*
X133210300Y-90371701D01*
X133219665Y-90425483D01*
X133235700Y-90449400D01*
X133254253Y-90440104D01*
X133261100Y-90396167D01*
X133236040Y-90317184D01*
X133161617Y-90233554D01*
X133038962Y-90146185D01*
X132869206Y-90055983D01*
X132794013Y-90021778D01*
X132682913Y-89974807D01*
X132585794Y-89936846D01*
X132513769Y-89912045D01*
X132479541Y-89904404D01*
X132481076Y-89913515D01*
X132522006Y-89936995D01*
X132594445Y-89970634D01*
X132638800Y-89989445D01*
X132756892Y-90041659D01*
X132879229Y-90101243D01*
X132981281Y-90156192D01*
X132990241Y-90161454D01*
X133138483Y-90249526D01*
X133142641Y-90532783D01*
X133146800Y-90816039D01*
X133026150Y-90697175D01*
X132966004Y-90641301D01*
X132922774Y-90607596D01*
X132905522Y-90603088D01*
X132905500Y-90603550D01*
X132922519Y-90631780D01*
X132967883Y-90685144D01*
X133033052Y-90753846D01*
X133059665Y-90780396D01*
X133145857Y-90869296D01*
X133230388Y-90963345D01*
X133296516Y-91043829D01*
X133302579Y-91051902D01*
X133385723Y-91144126D01*
X133468463Y-91192725D01*
X133480409Y-91196401D01*
X133571787Y-91238577D01*
X133674515Y-91311855D01*
X133774395Y-91403426D01*
X133857228Y-91500484D01*
X133903958Y-91578469D01*
X133934396Y-91674426D01*
X133950241Y-91783462D01*
X133952403Y-91894457D01*
X133941795Y-91996291D01*
X133919326Y-92077845D01*
X133885909Y-92128000D01*
X133858061Y-92138500D01*
X133819122Y-92122217D01*
X133759173Y-92080111D01*
X133708541Y-92036900D01*
X133646987Y-91982500D01*
X133600414Y-91945629D01*
X133582109Y-91935300D01*
X133568060Y-91956245D01*
X133566290Y-92005188D01*
X133575080Y-92061298D01*
X133592707Y-92103742D01*
X133596379Y-92108020D01*
X133614051Y-92133189D01*
X133596379Y-92138500D01*
X133567793Y-92121892D01*
X133565900Y-92113100D01*
X133546571Y-92088439D01*
X133540500Y-92087700D01*
X133527074Y-92110916D01*
X133517936Y-92171922D01*
X133515100Y-92245180D01*
X133512026Y-92332502D01*
X133501770Y-92371490D01*
X133482778Y-92361930D01*
X133453497Y-92303609D01*
X133425772Y-92232921D01*
X133386602Y-92141376D01*
X133355393Y-92099353D01*
X133331543Y-92106301D01*
X133319927Y-92135945D01*
X133288805Y-92179262D01*
X133239087Y-92189206D01*
X133172200Y-92189111D01*
X133251978Y-92140464D01*
X133320457Y-92093095D01*
X133345090Y-92053275D01*
X133328303Y-92007587D01*
X133285269Y-91956264D01*
X133237904Y-91906146D01*
X133217546Y-91891417D01*
X133216881Y-91910019D01*
X133223511Y-91938880D01*
X133226702Y-91995690D01*
X133212358Y-92022929D01*
X133192775Y-92014113D01*
X133184988Y-91958622D01*
X133184900Y-91949223D01*
X133170975Y-91857798D01*
X133135015Y-91755877D01*
X133085736Y-91662797D01*
X133031858Y-91597898D01*
X133023687Y-91591627D01*
X132980485Y-91571140D01*
X132928035Y-91557674D01*
X132882157Y-91553231D01*
X132858669Y-91559819D01*
X132863222Y-91571289D01*
X132861770Y-91600488D01*
X132840400Y-91632268D01*
X132817996Y-91672007D01*
X132824767Y-91691199D01*
X132858470Y-91686983D01*
X132880332Y-91668321D01*
X132934784Y-91633183D01*
X132994400Y-91645209D01*
X133051397Y-91702442D01*
X133058178Y-91713050D01*
X133096323Y-91780574D01*
X133105193Y-91814764D01*
X133085232Y-91823488D01*
X133064250Y-91820696D01*
X133006445Y-91812051D01*
X132986550Y-91810244D01*
X132964010Y-91796433D01*
X132966383Y-91787134D01*
X132959061Y-91768251D01*
X132944904Y-91765967D01*
X132920680Y-91783121D01*
X132922353Y-91797265D01*
X132920208Y-91834819D01*
X132885632Y-91847810D01*
X132832430Y-91832720D01*
X132817582Y-91823980D01*
X132778589Y-91801508D01*
X132758400Y-91808142D01*
X132745957Y-91852579D01*
X132740359Y-91884739D01*
X132733568Y-91973242D01*
X132739389Y-92056871D01*
X132741013Y-92065092D01*
X132758604Y-92145187D01*
X132660602Y-92127040D01*
X132587064Y-92101589D01*
X132497455Y-92054353D01*
X132430339Y-92009397D01*
X132343878Y-91947004D01*
X132293981Y-91917098D01*
X132281293Y-91919686D01*
X132306458Y-91954775D01*
X132356574Y-92008607D01*
X132412617Y-92072899D01*
X132427866Y-92109640D01*
X132418879Y-92118758D01*
X132418254Y-92132440D01*
X132457010Y-92153300D01*
X132481033Y-92162046D01*
X132545529Y-92190555D01*
X132566720Y-92221776D01*
X132565910Y-92227949D01*
X132630516Y-92227949D01*
X132647458Y-92217756D01*
X132699334Y-92222293D01*
X132730227Y-92227136D01*
X132802688Y-92242184D01*
X132852865Y-92258536D01*
X132862170Y-92264155D01*
X132865805Y-92287367D01*
X132929328Y-92287367D01*
X132932156Y-92246824D01*
X132956734Y-92248990D01*
X132990771Y-92278200D01*
X133033520Y-92311626D01*
X133054010Y-92308823D01*
X133049228Y-92279539D01*
X133052316Y-92255692D01*
X133090354Y-92241744D01*
X133154460Y-92235089D01*
X133225963Y-92231029D01*
X133272106Y-92229444D01*
X133280441Y-92229809D01*
X133274140Y-92252302D01*
X133251469Y-92309768D01*
X133216953Y-92390874D01*
X133207795Y-92411728D01*
X133151113Y-92524947D01*
X133102540Y-92589205D01*
X133076095Y-92604944D01*
X133013383Y-92608484D01*
X132984541Y-92575497D01*
X132981700Y-92548937D01*
X132975534Y-92500237D01*
X132959765Y-92423597D01*
X132947320Y-92372636D01*
X132929328Y-92287367D01*
X132865805Y-92287367D01*
X132867021Y-92295132D01*
X132864285Y-92360067D01*
X132855949Y-92443030D01*
X132843998Y-92528089D01*
X132830420Y-92599314D01*
X132817202Y-92640773D01*
X132814791Y-92644075D01*
X132791919Y-92642186D01*
X132762144Y-92595456D01*
X132724264Y-92501761D01*
X132708369Y-92456000D01*
X132678061Y-92367627D01*
X132651711Y-92293406D01*
X132637718Y-92256272D01*
X132630516Y-92227949D01*
X132565910Y-92227949D01*
X132564847Y-92236045D01*
X132553127Y-92280546D01*
X132533832Y-92358472D01*
X132510928Y-92453779D01*
X132508597Y-92463627D01*
X132485469Y-92557852D01*
X132466977Y-92612590D01*
X132446279Y-92637842D01*
X132416532Y-92643606D01*
X132386920Y-92641427D01*
X132343984Y-92633505D01*
X132315537Y-92612343D01*
X132293227Y-92566282D01*
X132268702Y-92483662D01*
X132265547Y-92471977D01*
X132235066Y-92366606D01*
X132213745Y-92310776D01*
X132201767Y-92304557D01*
X132199315Y-92348019D01*
X132206574Y-92441230D01*
X132207491Y-92450003D01*
X132216077Y-92540290D01*
X132216470Y-92590063D01*
X132206808Y-92609216D01*
X132185229Y-92607639D01*
X132178246Y-92605336D01*
X132146242Y-92595655D01*
X132154252Y-92606753D01*
X132179217Y-92626594D01*
X132202705Y-92650210D01*
X132213261Y-92677640D01*
X132330027Y-92677640D01*
X132361934Y-92677766D01*
X132393682Y-92694404D01*
X132413458Y-92717614D01*
X132411422Y-92726934D01*
X133007100Y-92726934D01*
X133023056Y-92681347D01*
X133048310Y-92671900D01*
X133075336Y-92677772D01*
X133064660Y-92703992D01*
X133055497Y-92716350D01*
X133025310Y-92756271D01*
X133014287Y-92771384D01*
X133008676Y-92758910D01*
X133007100Y-92726934D01*
X132411422Y-92726934D01*
X132406798Y-92748100D01*
X132778500Y-92748100D01*
X132787793Y-92727193D01*
X132795433Y-92731167D01*
X132798473Y-92761311D01*
X132795433Y-92765034D01*
X132780333Y-92761547D01*
X132778500Y-92748100D01*
X132406798Y-92748100D01*
X132405071Y-92756001D01*
X132388349Y-92789265D01*
X132361610Y-92834824D01*
X132350327Y-92837813D01*
X132347716Y-92807328D01*
X132339790Y-92742647D01*
X132331282Y-92712078D01*
X132330027Y-92677640D01*
X132213261Y-92677640D01*
X132215418Y-92683245D01*
X132218840Y-92737632D01*
X132214454Y-92825302D01*
X132210419Y-92877661D01*
X132196959Y-93039520D01*
X132185430Y-93157600D01*
X132174062Y-93238785D01*
X132161087Y-93289962D01*
X132144737Y-93318017D01*
X132123244Y-93329834D01*
X132094839Y-93332299D01*
X132093661Y-93332301D01*
X132036495Y-93338174D01*
X132007515Y-93349751D01*
X131961863Y-93368367D01*
X131898792Y-93370332D01*
X131849164Y-93354788D01*
X131848377Y-93354179D01*
X131794653Y-93338809D01*
X131725431Y-93350555D01*
X131692650Y-93366284D01*
X131664924Y-93370561D01*
X131660900Y-93360768D01*
X131639168Y-93343853D01*
X131592001Y-93340219D01*
X131550517Y-93338781D01*
X131526542Y-93318874D01*
X131511017Y-93268196D01*
X131502006Y-93218000D01*
X131490060Y-93074105D01*
X131493955Y-92895302D01*
X131512422Y-92694515D01*
X131544197Y-92484669D01*
X131588012Y-92278688D01*
X131597844Y-92240100D01*
X131603482Y-92202544D01*
X131588930Y-92210659D01*
X131554712Y-92263730D01*
X131501355Y-92361046D01*
X131483300Y-92395654D01*
X131425438Y-92496376D01*
X131381334Y-92548217D01*
X131350955Y-92551189D01*
X131334263Y-92505302D01*
X131330700Y-92441706D01*
X131336859Y-92353607D01*
X131356581Y-92308016D01*
X131368800Y-92300086D01*
X131402400Y-92275592D01*
X131406900Y-92263580D01*
X131387762Y-92252950D01*
X131362518Y-92258725D01*
X131335243Y-92266306D01*
X131336039Y-92251126D01*
X131365153Y-92204001D01*
X131389040Y-92161429D01*
X131388213Y-92147586D01*
X131384425Y-92149392D01*
X131367130Y-92148403D01*
X131371808Y-92127120D01*
X131393438Y-92092787D01*
X131403507Y-92087700D01*
X131427494Y-92068464D01*
X131454577Y-92030550D01*
X131474546Y-91994138D01*
X131466078Y-91995642D01*
X131455607Y-92005150D01*
X131415972Y-92033172D01*
X131392767Y-92021494D01*
X131382520Y-91965972D01*
X131381153Y-91916250D01*
X131375676Y-91799733D01*
X131357824Y-91724361D01*
X131324252Y-91681290D01*
X131286063Y-91664690D01*
X131228287Y-91664020D01*
X131181165Y-91703045D01*
X131176536Y-91709039D01*
X131145067Y-91760511D01*
X131147075Y-91781005D01*
X131179593Y-91765299D01*
X131199194Y-91748878D01*
X131258111Y-91711114D01*
X131303216Y-91720572D01*
X131329806Y-91755831D01*
X131351896Y-91808171D01*
X131343391Y-91844018D01*
X131297534Y-91878560D01*
X131267850Y-91895074D01*
X131205586Y-91923851D01*
X131166155Y-91925430D01*
X131138914Y-91908833D01*
X131096583Y-91891837D01*
X131069096Y-91923156D01*
X131056579Y-92002487D01*
X131057764Y-92106750D01*
X131066407Y-92265500D01*
X130956435Y-92265500D01*
X130883174Y-92260629D01*
X130843894Y-92241291D01*
X130825123Y-92208350D01*
X130817144Y-92138189D01*
X130826652Y-92090528D01*
X130841999Y-92034726D01*
X130834512Y-92019695D01*
X130810394Y-92044521D01*
X130780984Y-92097256D01*
X130748838Y-92155272D01*
X130722455Y-92187174D01*
X130717192Y-92189300D01*
X130707797Y-92208339D01*
X130713244Y-92230866D01*
X130714937Y-92261348D01*
X130693397Y-92260642D01*
X130665133Y-92225776D01*
X130653955Y-92150039D01*
X130658756Y-92039990D01*
X130678427Y-91902189D01*
X130711861Y-91743193D01*
X130757951Y-91569564D01*
X130815589Y-91387860D01*
X130862667Y-91258192D01*
X130918057Y-91124899D01*
X130978379Y-91006540D01*
X131049399Y-90896136D01*
X131136884Y-90786708D01*
X131246600Y-90671277D01*
X131384313Y-90542865D01*
X131555791Y-90394493D01*
X131622800Y-90338268D01*
X131748158Y-90233715D01*
X131841188Y-90157724D01*
X131908912Y-90106728D01*
X131958349Y-90077160D01*
X131996521Y-90065451D01*
X132030449Y-90068034D01*
X132067153Y-90081343D01*
X132099896Y-90095851D01*
X132174053Y-90131765D01*
X132272456Y-90183769D01*
X132375890Y-90241653D01*
X132393248Y-90251727D01*
X132492411Y-90308215D01*
X132561384Y-90344601D01*
X132596822Y-90359505D01*
X132595379Y-90351545D01*
X132553711Y-90319338D01*
X132549201Y-90316140D01*
X132451049Y-90253328D01*
X132307460Y-90171525D01*
X132142510Y-90083275D01*
X132052650Y-90040950D01*
X131987375Y-90028529D01*
X131928842Y-90047976D01*
X131859212Y-90101253D01*
X131842184Y-90116319D01*
X131782168Y-90170000D01*
X131800117Y-90036650D01*
X131809023Y-89949268D01*
X131807089Y-89909931D01*
X131796469Y-89917573D01*
X131779318Y-89971129D01*
X131760351Y-90056319D01*
X131741485Y-90138868D01*
X131722807Y-90199116D01*
X131710503Y-90221540D01*
X131683573Y-90211521D01*
X131642116Y-90169749D01*
X131595804Y-90109138D01*
X131554306Y-90042602D01*
X131527294Y-89983054D01*
X131524489Y-89973150D01*
X131507532Y-89903300D01*
X130156792Y-89903300D01*
X130174353Y-89973150D01*
X130204929Y-90106652D01*
X130234752Y-90258315D01*
X130262740Y-90419912D01*
X130287809Y-90583219D01*
X130308877Y-90740008D01*
X130324859Y-90882054D01*
X130334674Y-91001131D01*
X130337237Y-91089011D01*
X130331466Y-91137470D01*
X130328348Y-91142719D01*
X130316813Y-91134563D01*
X130314700Y-91114215D01*
X130305666Y-91077693D01*
X130281107Y-91004106D01*
X130244837Y-90903363D01*
X130200671Y-90785373D01*
X130152422Y-90660046D01*
X130103903Y-90537291D01*
X130058930Y-90427018D01*
X130021316Y-90339136D01*
X129995278Y-90284300D01*
X129988283Y-90277436D01*
X129982277Y-90286965D01*
X129977187Y-90316151D01*
X129972939Y-90368260D01*
X129969461Y-90446554D01*
X129966679Y-90554298D01*
X129964521Y-90694755D01*
X129962912Y-90871190D01*
X129961780Y-91086867D01*
X129961052Y-91345049D01*
X129960655Y-91649001D01*
X129960559Y-91821551D01*
X130625898Y-91821551D01*
X130629448Y-91773804D01*
X130629799Y-91770200D01*
X130641482Y-91697546D01*
X130660009Y-91626213D01*
X130680930Y-91568715D01*
X130699798Y-91537569D01*
X130711063Y-91541600D01*
X130708470Y-91577477D01*
X130692424Y-91645534D01*
X130670106Y-91719400D01*
X130643647Y-91797601D01*
X130629771Y-91830567D01*
X130625898Y-91821551D01*
X129960559Y-91821551D01*
X129960552Y-91833700D01*
X129960502Y-92161484D01*
X129960585Y-92290900D01*
X130660117Y-92290900D01*
X130685513Y-92298642D01*
X130706322Y-92306318D01*
X130741357Y-92337879D01*
X130746500Y-92357118D01*
X130767513Y-92386380D01*
X130794306Y-92392500D01*
X130823463Y-92396895D01*
X130823954Y-92398694D01*
X130924300Y-92398694D01*
X131077239Y-92341499D01*
X131158481Y-92308640D01*
X131218945Y-92279571D01*
X131243838Y-92262202D01*
X131273500Y-92240475D01*
X131277376Y-92240100D01*
X131276033Y-92260777D01*
X131255036Y-92315800D01*
X131218579Y-92394662D01*
X131204342Y-92423195D01*
X131156435Y-92514591D01*
X131120743Y-92569917D01*
X131087724Y-92599006D01*
X131047839Y-92611693D01*
X131017864Y-92615406D01*
X130924300Y-92624522D01*
X130924300Y-92398694D01*
X130823954Y-92398694D01*
X130829511Y-92419054D01*
X130814580Y-92472444D01*
X130809368Y-92487750D01*
X130776793Y-92558552D01*
X130745626Y-92578827D01*
X130716530Y-92548844D01*
X130690172Y-92468870D01*
X130683252Y-92436950D01*
X130668656Y-92359189D01*
X130660495Y-92306213D01*
X130660117Y-92290900D01*
X129960585Y-92290900D01*
X129960684Y-92442606D01*
X129961210Y-92681203D01*
X129961212Y-92681740D01*
X130729831Y-92681740D01*
X130733800Y-92671900D01*
X130756624Y-92647669D01*
X130760699Y-92646500D01*
X130771608Y-92666152D01*
X130771900Y-92671900D01*
X130765132Y-92680367D01*
X131331694Y-92680367D01*
X131339990Y-92621223D01*
X131361417Y-92589006D01*
X131362450Y-92588595D01*
X131392815Y-92581834D01*
X131398875Y-92598456D01*
X131381483Y-92647951D01*
X131370184Y-92674407D01*
X131332688Y-92760800D01*
X131331694Y-92680367D01*
X130765132Y-92680367D01*
X130761747Y-92684600D01*
X130945861Y-92684600D01*
X131025325Y-92681828D01*
X131080281Y-92687387D01*
X131094036Y-92707087D01*
X131093983Y-92707228D01*
X131083183Y-92745776D01*
X131066170Y-92817096D01*
X131050519Y-92887800D01*
X131026302Y-92986741D01*
X131004977Y-93047687D01*
X130988486Y-93067026D01*
X130978773Y-93041141D01*
X130977457Y-93023702D01*
X130973320Y-92964537D01*
X130965700Y-92878697D01*
X130960309Y-92824300D01*
X130945861Y-92684600D01*
X130761747Y-92684600D01*
X130752373Y-92696324D01*
X130745000Y-92697300D01*
X130729831Y-92681740D01*
X129961212Y-92681740D01*
X129962193Y-92881414D01*
X129963747Y-93047377D01*
X129965985Y-93183229D01*
X129969020Y-93293108D01*
X129972966Y-93381152D01*
X129977935Y-93451499D01*
X129984041Y-93508287D01*
X129991397Y-93555653D01*
X130000116Y-93597735D01*
X130009899Y-93637100D01*
X130037688Y-93744011D01*
X130052923Y-93811011D01*
X130055606Y-93847416D01*
X130045736Y-93862541D01*
X130023313Y-93865701D01*
X130009900Y-93865700D01*
X129966821Y-93878062D01*
X129963056Y-93909228D01*
X129995321Y-93950326D01*
X130055992Y-93990299D01*
X130150200Y-94063630D01*
X130199615Y-94143361D01*
X130235378Y-94213066D01*
X130269170Y-94263917D01*
X130278596Y-94273757D01*
X130296695Y-94302073D01*
X130289718Y-94347737D01*
X130274672Y-94387095D01*
X130255772Y-94459281D01*
X130244691Y-94547033D01*
X134254640Y-94547033D01*
X134259502Y-94512575D01*
X134283269Y-94501574D01*
X134308861Y-94500700D01*
X134366217Y-94519088D01*
X134425103Y-94578609D01*
X134440904Y-94600431D01*
X134502853Y-94671468D01*
X134574469Y-94728872D01*
X134596758Y-94741322D01*
X134652636Y-94770562D01*
X134682131Y-94791307D01*
X134683500Y-94793992D01*
X134660186Y-94799529D01*
X134598582Y-94803607D01*
X134511193Y-94805461D01*
X134495717Y-94805500D01*
X134394586Y-94804299D01*
X134332523Y-94794390D01*
X134297805Y-94766315D01*
X134278705Y-94710618D01*
X134263559Y-94618248D01*
X134254640Y-94547033D01*
X130244691Y-94547033D01*
X130242839Y-94561697D01*
X130238499Y-94664985D01*
X130238500Y-94856300D01*
X131673600Y-94856300D01*
X132010472Y-94855957D01*
X132010472Y-94855957D01*
G37*
X132010472Y-94855957D02*
X132298374Y-94854904D01*
X132539132Y-94853106D01*
X132734571Y-94850527D01*
X132886517Y-94847132D01*
X132996795Y-94842887D01*
X133067232Y-94837756D01*
X133099652Y-94831704D01*
X133102350Y-94828765D01*
X133121499Y-94808020D01*
X133178049Y-94776580D01*
X133261297Y-94740087D01*
X133295849Y-94726758D01*
X133398953Y-94685457D01*
X133491861Y-94643203D01*
X133557501Y-94607872D01*
X133566470Y-94601894D01*
X133617075Y-94567938D01*
X133646970Y-94551729D01*
X133648349Y-94551500D01*
X133660841Y-94573737D01*
X133682412Y-94631723D01*
X133705600Y-94703900D01*
X133751743Y-94856300D01*
X133909723Y-94856300D01*
X134001036Y-94853608D01*
X134056693Y-94842643D01*
X134091685Y-94819077D01*
X134107569Y-94799151D01*
X134147435Y-94742000D01*
X134148767Y-94799150D01*
X134150904Y-94821736D01*
X134161326Y-94837416D01*
X134187899Y-94847451D01*
X134238490Y-94853100D01*
X134320966Y-94855623D01*
X134443195Y-94856279D01*
X134505700Y-94856300D01*
X134861300Y-94856300D01*
X134861300Y-94506810D01*
X134860767Y-94366338D01*
X134858400Y-94268027D01*
X134853039Y-94203243D01*
X134843530Y-94163351D01*
X134828713Y-94139718D01*
X134810191Y-94125403D01*
X134759083Y-94093485D01*
X134810191Y-93993305D01*
X134819551Y-93973789D01*
X134827693Y-93952115D01*
X134834702Y-93924805D01*
X134840662Y-93888380D01*
X134845659Y-93839360D01*
X134849777Y-93774266D01*
X134853101Y-93689620D01*
X134855716Y-93581942D01*
X134857707Y-93447754D01*
X134859159Y-93283577D01*
X134860156Y-93085930D01*
X134860784Y-92851337D01*
X134861127Y-92576316D01*
X134861271Y-92257391D01*
X134861300Y-91898212D01*
X134861300Y-89903300D01*
X133121400Y-89905546D01*
X133217932Y-89956488D01*
X133281320Y-89996489D01*
X133322907Y-90034812D01*
X133328788Y-90044757D01*
X133337384Y-90106767D01*
X133332724Y-90196302D01*
X133317795Y-90295434D01*
X133295587Y-90386233D01*
X133269090Y-90450770D01*
X133258835Y-90464365D01*
X133211056Y-90504465D01*
X133184329Y-90502498D01*
X133173393Y-90455241D01*
X133172200Y-90411300D01*
X133176427Y-90347661D01*
X133186988Y-90312281D01*
X133191250Y-90309700D01*
X133205704Y-90331427D01*
X133210300Y-90371701D01*
X133219665Y-90425483D01*
X133235700Y-90449400D01*
X133254253Y-90440104D01*
X133261100Y-90396167D01*
X133236040Y-90317184D01*
X133161617Y-90233554D01*
X133038962Y-90146185D01*
X132869206Y-90055983D01*
X132794013Y-90021778D01*
X132682913Y-89974807D01*
X132585794Y-89936846D01*
X132513769Y-89912045D01*
X132479541Y-89904404D01*
X132481076Y-89913515D01*
X132522006Y-89936995D01*
X132594445Y-89970634D01*
X132638800Y-89989445D01*
X132756892Y-90041659D01*
X132879229Y-90101243D01*
X132981281Y-90156192D01*
X132990241Y-90161454D01*
X133138483Y-90249526D01*
X133142641Y-90532783D01*
X133146800Y-90816039D01*
X133026150Y-90697175D01*
X132966004Y-90641301D01*
X132922774Y-90607596D01*
X132905522Y-90603088D01*
X132905500Y-90603550D01*
X132922519Y-90631780D01*
X132967883Y-90685144D01*
X133033052Y-90753846D01*
X133059665Y-90780396D01*
X133145857Y-90869296D01*
X133230388Y-90963345D01*
X133296516Y-91043829D01*
X133302579Y-91051902D01*
X133385723Y-91144126D01*
X133468463Y-91192725D01*
X133480409Y-91196401D01*
X133571787Y-91238577D01*
X133674515Y-91311855D01*
X133774395Y-91403426D01*
X133857228Y-91500484D01*
X133903958Y-91578469D01*
X133934396Y-91674426D01*
X133950241Y-91783462D01*
X133952403Y-91894457D01*
X133941795Y-91996291D01*
X133919326Y-92077845D01*
X133885909Y-92128000D01*
X133858061Y-92138500D01*
X133819122Y-92122217D01*
X133759173Y-92080111D01*
X133708541Y-92036900D01*
X133646987Y-91982500D01*
X133600414Y-91945629D01*
X133582109Y-91935300D01*
X133568060Y-91956245D01*
X133566290Y-92005188D01*
X133575080Y-92061298D01*
X133592707Y-92103742D01*
X133596379Y-92108020D01*
X133614051Y-92133189D01*
X133596379Y-92138500D01*
X133567793Y-92121892D01*
X133565900Y-92113100D01*
X133546571Y-92088439D01*
X133540500Y-92087700D01*
X133527074Y-92110916D01*
X133517936Y-92171922D01*
X133515100Y-92245180D01*
X133512026Y-92332502D01*
X133501770Y-92371490D01*
X133482778Y-92361930D01*
X133453497Y-92303609D01*
X133425772Y-92232921D01*
X133386602Y-92141376D01*
X133355393Y-92099353D01*
X133331543Y-92106301D01*
X133319927Y-92135945D01*
X133288805Y-92179262D01*
X133239087Y-92189206D01*
X133172200Y-92189111D01*
X133251978Y-92140464D01*
X133320457Y-92093095D01*
X133345090Y-92053275D01*
X133328303Y-92007587D01*
X133285269Y-91956264D01*
X133237904Y-91906146D01*
X133217546Y-91891417D01*
X133216881Y-91910019D01*
X133223511Y-91938880D01*
X133226702Y-91995690D01*
X133212358Y-92022929D01*
X133192775Y-92014113D01*
X133184988Y-91958622D01*
X133184900Y-91949223D01*
X133170975Y-91857798D01*
X133135015Y-91755877D01*
X133085736Y-91662797D01*
X133031858Y-91597898D01*
X133023687Y-91591627D01*
X132980485Y-91571140D01*
X132928035Y-91557674D01*
X132882157Y-91553231D01*
X132858669Y-91559819D01*
X132863222Y-91571289D01*
X132861770Y-91600488D01*
X132840400Y-91632268D01*
X132817996Y-91672007D01*
X132824767Y-91691199D01*
X132858470Y-91686983D01*
X132880332Y-91668321D01*
X132934784Y-91633183D01*
X132994400Y-91645209D01*
X133051397Y-91702442D01*
X133058178Y-91713050D01*
X133096323Y-91780574D01*
X133105193Y-91814764D01*
X133085232Y-91823488D01*
X133064250Y-91820696D01*
X133006445Y-91812051D01*
X132986550Y-91810244D01*
X132964010Y-91796433D01*
X132966383Y-91787134D01*
X132959061Y-91768251D01*
X132944904Y-91765967D01*
X132920680Y-91783121D01*
X132922353Y-91797265D01*
X132920208Y-91834819D01*
X132885632Y-91847810D01*
X132832430Y-91832720D01*
X132817582Y-91823980D01*
X132778589Y-91801508D01*
X132758400Y-91808142D01*
X132745957Y-91852579D01*
X132740359Y-91884739D01*
X132733568Y-91973242D01*
X132739389Y-92056871D01*
X132741013Y-92065092D01*
X132758604Y-92145187D01*
X132660602Y-92127040D01*
X132587064Y-92101589D01*
X132497455Y-92054353D01*
X132430339Y-92009397D01*
X132343878Y-91947004D01*
X132293981Y-91917098D01*
X132281293Y-91919686D01*
X132306458Y-91954775D01*
X132356574Y-92008607D01*
X132412617Y-92072899D01*
X132427866Y-92109640D01*
X132418879Y-92118758D01*
X132418254Y-92132440D01*
X132457010Y-92153300D01*
X132481033Y-92162046D01*
X132545529Y-92190555D01*
X132566720Y-92221776D01*
X132565910Y-92227949D01*
X132630516Y-92227949D01*
X132647458Y-92217756D01*
X132699334Y-92222293D01*
X132730227Y-92227136D01*
X132802688Y-92242184D01*
X132852865Y-92258536D01*
X132862170Y-92264155D01*
X132865805Y-92287367D01*
X132929328Y-92287367D01*
X132932156Y-92246824D01*
X132956734Y-92248990D01*
X132990771Y-92278200D01*
X133033520Y-92311626D01*
X133054010Y-92308823D01*
X133049228Y-92279539D01*
X133052316Y-92255692D01*
X133090354Y-92241744D01*
X133154460Y-92235089D01*
X133225963Y-92231029D01*
X133272106Y-92229444D01*
X133280441Y-92229809D01*
X133274140Y-92252302D01*
X133251469Y-92309768D01*
X133216953Y-92390874D01*
X133207795Y-92411728D01*
X133151113Y-92524947D01*
X133102540Y-92589205D01*
X133076095Y-92604944D01*
X133013383Y-92608484D01*
X132984541Y-92575497D01*
X132981700Y-92548937D01*
X132975534Y-92500237D01*
X132959765Y-92423597D01*
X132947320Y-92372636D01*
X132929328Y-92287367D01*
X132865805Y-92287367D01*
X132867021Y-92295132D01*
X132864285Y-92360067D01*
X132855949Y-92443030D01*
X132843998Y-92528089D01*
X132830420Y-92599314D01*
X132817202Y-92640773D01*
X132814791Y-92644075D01*
X132791919Y-92642186D01*
X132762144Y-92595456D01*
X132724264Y-92501761D01*
X132708369Y-92456000D01*
X132678061Y-92367627D01*
X132651711Y-92293406D01*
X132637718Y-92256272D01*
X132630516Y-92227949D01*
X132565910Y-92227949D01*
X132564847Y-92236045D01*
X132553127Y-92280546D01*
X132533832Y-92358472D01*
X132510928Y-92453779D01*
X132508597Y-92463627D01*
X132485469Y-92557852D01*
X132466977Y-92612590D01*
X132446279Y-92637842D01*
X132416532Y-92643606D01*
X132386920Y-92641427D01*
X132343984Y-92633505D01*
X132315537Y-92612343D01*
X132293227Y-92566282D01*
X132268702Y-92483662D01*
X132265547Y-92471977D01*
X132235066Y-92366606D01*
X132213745Y-92310776D01*
X132201767Y-92304557D01*
X132199315Y-92348019D01*
X132206574Y-92441230D01*
X132207491Y-92450003D01*
X132216077Y-92540290D01*
X132216470Y-92590063D01*
X132206808Y-92609216D01*
X132185229Y-92607639D01*
X132178246Y-92605336D01*
X132146242Y-92595655D01*
X132154252Y-92606753D01*
X132179217Y-92626594D01*
X132202705Y-92650210D01*
X132213261Y-92677640D01*
X132330027Y-92677640D01*
X132361934Y-92677766D01*
X132393682Y-92694404D01*
X132413458Y-92717614D01*
X132411422Y-92726934D01*
X133007100Y-92726934D01*
X133023056Y-92681347D01*
X133048310Y-92671900D01*
X133075336Y-92677772D01*
X133064660Y-92703992D01*
X133055497Y-92716350D01*
X133025310Y-92756271D01*
X133014287Y-92771384D01*
X133008676Y-92758910D01*
X133007100Y-92726934D01*
X132411422Y-92726934D01*
X132406798Y-92748100D01*
X132778500Y-92748100D01*
X132787793Y-92727193D01*
X132795433Y-92731167D01*
X132798473Y-92761311D01*
X132795433Y-92765034D01*
X132780333Y-92761547D01*
X132778500Y-92748100D01*
X132406798Y-92748100D01*
X132405071Y-92756001D01*
X132388349Y-92789265D01*
X132361610Y-92834824D01*
X132350327Y-92837813D01*
X132347716Y-92807328D01*
X132339790Y-92742647D01*
X132331282Y-92712078D01*
X132330027Y-92677640D01*
X132213261Y-92677640D01*
X132215418Y-92683245D01*
X132218840Y-92737632D01*
X132214454Y-92825302D01*
X132210419Y-92877661D01*
X132196959Y-93039520D01*
X132185430Y-93157600D01*
X132174062Y-93238785D01*
X132161087Y-93289962D01*
X132144737Y-93318017D01*
X132123244Y-93329834D01*
X132094839Y-93332299D01*
X132093661Y-93332301D01*
X132036495Y-93338174D01*
X132007515Y-93349751D01*
X131961863Y-93368367D01*
X131898792Y-93370332D01*
X131849164Y-93354788D01*
X131848377Y-93354179D01*
X131794653Y-93338809D01*
X131725431Y-93350555D01*
X131692650Y-93366284D01*
X131664924Y-93370561D01*
X131660900Y-93360768D01*
X131639168Y-93343853D01*
X131592001Y-93340219D01*
X131550517Y-93338781D01*
X131526542Y-93318874D01*
X131511017Y-93268196D01*
X131502006Y-93218000D01*
X131490060Y-93074105D01*
X131493955Y-92895302D01*
X131512422Y-92694515D01*
X131544197Y-92484669D01*
X131588012Y-92278688D01*
X131597844Y-92240100D01*
X131603482Y-92202544D01*
X131588930Y-92210659D01*
X131554712Y-92263730D01*
X131501355Y-92361046D01*
X131483300Y-92395654D01*
X131425438Y-92496376D01*
X131381334Y-92548217D01*
X131350955Y-92551189D01*
X131334263Y-92505302D01*
X131330700Y-92441706D01*
X131336859Y-92353607D01*
X131356581Y-92308016D01*
X131368800Y-92300086D01*
X131402400Y-92275592D01*
X131406900Y-92263580D01*
X131387762Y-92252950D01*
X131362518Y-92258725D01*
X131335243Y-92266306D01*
X131336039Y-92251126D01*
X131365153Y-92204001D01*
X131389040Y-92161429D01*
X131388213Y-92147586D01*
X131384425Y-92149392D01*
X131367130Y-92148403D01*
X131371808Y-92127120D01*
X131393438Y-92092787D01*
X131403507Y-92087700D01*
X131427494Y-92068464D01*
X131454577Y-92030550D01*
X131474546Y-91994138D01*
X131466078Y-91995642D01*
X131455607Y-92005150D01*
X131415972Y-92033172D01*
X131392767Y-92021494D01*
X131382520Y-91965972D01*
X131381153Y-91916250D01*
X131375676Y-91799733D01*
X131357824Y-91724361D01*
X131324252Y-91681290D01*
X131286063Y-91664690D01*
X131228287Y-91664020D01*
X131181165Y-91703045D01*
X131176536Y-91709039D01*
X131145067Y-91760511D01*
X131147075Y-91781005D01*
X131179593Y-91765299D01*
X131199194Y-91748878D01*
X131258111Y-91711114D01*
X131303216Y-91720572D01*
X131329806Y-91755831D01*
X131351896Y-91808171D01*
X131343391Y-91844018D01*
X131297534Y-91878560D01*
X131267850Y-91895074D01*
X131205586Y-91923851D01*
X131166155Y-91925430D01*
X131138914Y-91908833D01*
X131096583Y-91891837D01*
X131069096Y-91923156D01*
X131056579Y-92002487D01*
X131057764Y-92106750D01*
X131066407Y-92265500D01*
X130956435Y-92265500D01*
X130883174Y-92260629D01*
X130843894Y-92241291D01*
X130825123Y-92208350D01*
X130817144Y-92138189D01*
X130826652Y-92090528D01*
X130841999Y-92034726D01*
X130834512Y-92019695D01*
X130810394Y-92044521D01*
X130780984Y-92097256D01*
X130748838Y-92155272D01*
X130722455Y-92187174D01*
X130717192Y-92189300D01*
X130707797Y-92208339D01*
X130713244Y-92230866D01*
X130714937Y-92261348D01*
X130693397Y-92260642D01*
X130665133Y-92225776D01*
X130653955Y-92150039D01*
X130658756Y-92039990D01*
X130678427Y-91902189D01*
X130711861Y-91743193D01*
X130757951Y-91569564D01*
X130815589Y-91387860D01*
X130862667Y-91258192D01*
X130918057Y-91124899D01*
X130978379Y-91006540D01*
X131049399Y-90896136D01*
X131136884Y-90786708D01*
X131246600Y-90671277D01*
X131384313Y-90542865D01*
X131555791Y-90394493D01*
X131622800Y-90338268D01*
X131748158Y-90233715D01*
X131841188Y-90157724D01*
X131908912Y-90106728D01*
X131958349Y-90077160D01*
X131996521Y-90065451D01*
X132030449Y-90068034D01*
X132067153Y-90081343D01*
X132099896Y-90095851D01*
X132174053Y-90131765D01*
X132272456Y-90183769D01*
X132375890Y-90241653D01*
X132393248Y-90251727D01*
X132492411Y-90308215D01*
X132561384Y-90344601D01*
X132596822Y-90359505D01*
X132595379Y-90351545D01*
X132553711Y-90319338D01*
X132549201Y-90316140D01*
X132451049Y-90253328D01*
X132307460Y-90171525D01*
X132142510Y-90083275D01*
X132052650Y-90040950D01*
X131987375Y-90028529D01*
X131928842Y-90047976D01*
X131859212Y-90101253D01*
X131842184Y-90116319D01*
X131782168Y-90170000D01*
X131800117Y-90036650D01*
X131809023Y-89949268D01*
X131807089Y-89909931D01*
X131796469Y-89917573D01*
X131779318Y-89971129D01*
X131760351Y-90056319D01*
X131741485Y-90138868D01*
X131722807Y-90199116D01*
X131710503Y-90221540D01*
X131683573Y-90211521D01*
X131642116Y-90169749D01*
X131595804Y-90109138D01*
X131554306Y-90042602D01*
X131527294Y-89983054D01*
X131524489Y-89973150D01*
X131507532Y-89903300D01*
X130156792Y-89903300D01*
X130174353Y-89973150D01*
X130204929Y-90106652D01*
X130234752Y-90258315D01*
X130262740Y-90419912D01*
X130287809Y-90583219D01*
X130308877Y-90740008D01*
X130324859Y-90882054D01*
X130334674Y-91001131D01*
X130337237Y-91089011D01*
X130331466Y-91137470D01*
X130328348Y-91142719D01*
X130316813Y-91134563D01*
X130314700Y-91114215D01*
X130305666Y-91077693D01*
X130281107Y-91004106D01*
X130244837Y-90903363D01*
X130200671Y-90785373D01*
X130152422Y-90660046D01*
X130103903Y-90537291D01*
X130058930Y-90427018D01*
X130021316Y-90339136D01*
X129995278Y-90284300D01*
X129988283Y-90277436D01*
X129982277Y-90286965D01*
X129977187Y-90316151D01*
X129972939Y-90368260D01*
X129969461Y-90446554D01*
X129966679Y-90554298D01*
X129964521Y-90694755D01*
X129962912Y-90871190D01*
X129961780Y-91086867D01*
X129961052Y-91345049D01*
X129960655Y-91649001D01*
X129960559Y-91821551D01*
X130625898Y-91821551D01*
X130629448Y-91773804D01*
X130629799Y-91770200D01*
X130641482Y-91697546D01*
X130660009Y-91626213D01*
X130680930Y-91568715D01*
X130699798Y-91537569D01*
X130711063Y-91541600D01*
X130708470Y-91577477D01*
X130692424Y-91645534D01*
X130670106Y-91719400D01*
X130643647Y-91797601D01*
X130629771Y-91830567D01*
X130625898Y-91821551D01*
X129960559Y-91821551D01*
X129960552Y-91833700D01*
X129960502Y-92161484D01*
X129960585Y-92290900D01*
X130660117Y-92290900D01*
X130685513Y-92298642D01*
X130706322Y-92306318D01*
X130741357Y-92337879D01*
X130746500Y-92357118D01*
X130767513Y-92386380D01*
X130794306Y-92392500D01*
X130823463Y-92396895D01*
X130823954Y-92398694D01*
X130924300Y-92398694D01*
X131077239Y-92341499D01*
X131158481Y-92308640D01*
X131218945Y-92279571D01*
X131243838Y-92262202D01*
X131273500Y-92240475D01*
X131277376Y-92240100D01*
X131276033Y-92260777D01*
X131255036Y-92315800D01*
X131218579Y-92394662D01*
X131204342Y-92423195D01*
X131156435Y-92514591D01*
X131120743Y-92569917D01*
X131087724Y-92599006D01*
X131047839Y-92611693D01*
X131017864Y-92615406D01*
X130924300Y-92624522D01*
X130924300Y-92398694D01*
X130823954Y-92398694D01*
X130829511Y-92419054D01*
X130814580Y-92472444D01*
X130809368Y-92487750D01*
X130776793Y-92558552D01*
X130745626Y-92578827D01*
X130716530Y-92548844D01*
X130690172Y-92468870D01*
X130683252Y-92436950D01*
X130668656Y-92359189D01*
X130660495Y-92306213D01*
X130660117Y-92290900D01*
X129960585Y-92290900D01*
X129960684Y-92442606D01*
X129961210Y-92681203D01*
X129961212Y-92681740D01*
X130729831Y-92681740D01*
X130733800Y-92671900D01*
X130756624Y-92647669D01*
X130760699Y-92646500D01*
X130771608Y-92666152D01*
X130771900Y-92671900D01*
X130765132Y-92680367D01*
X131331694Y-92680367D01*
X131339990Y-92621223D01*
X131361417Y-92589006D01*
X131362450Y-92588595D01*
X131392815Y-92581834D01*
X131398875Y-92598456D01*
X131381483Y-92647951D01*
X131370184Y-92674407D01*
X131332688Y-92760800D01*
X131331694Y-92680367D01*
X130765132Y-92680367D01*
X130761747Y-92684600D01*
X130945861Y-92684600D01*
X131025325Y-92681828D01*
X131080281Y-92687387D01*
X131094036Y-92707087D01*
X131093983Y-92707228D01*
X131083183Y-92745776D01*
X131066170Y-92817096D01*
X131050519Y-92887800D01*
X131026302Y-92986741D01*
X131004977Y-93047687D01*
X130988486Y-93067026D01*
X130978773Y-93041141D01*
X130977457Y-93023702D01*
X130973320Y-92964537D01*
X130965700Y-92878697D01*
X130960309Y-92824300D01*
X130945861Y-92684600D01*
X130761747Y-92684600D01*
X130752373Y-92696324D01*
X130745000Y-92697300D01*
X130729831Y-92681740D01*
X129961212Y-92681740D01*
X129962193Y-92881414D01*
X129963747Y-93047377D01*
X129965985Y-93183229D01*
X129969020Y-93293108D01*
X129972966Y-93381152D01*
X129977935Y-93451499D01*
X129984041Y-93508287D01*
X129991397Y-93555653D01*
X130000116Y-93597735D01*
X130009899Y-93637100D01*
X130037688Y-93744011D01*
X130052923Y-93811011D01*
X130055606Y-93847416D01*
X130045736Y-93862541D01*
X130023313Y-93865701D01*
X130009900Y-93865700D01*
X129966821Y-93878062D01*
X129963056Y-93909228D01*
X129995321Y-93950326D01*
X130055992Y-93990299D01*
X130150200Y-94063630D01*
X130199615Y-94143361D01*
X130235378Y-94213066D01*
X130269170Y-94263917D01*
X130278596Y-94273757D01*
X130296695Y-94302073D01*
X130289718Y-94347737D01*
X130274672Y-94387095D01*
X130255772Y-94459281D01*
X130244691Y-94547033D01*
X134254640Y-94547033D01*
X134259502Y-94512575D01*
X134283269Y-94501574D01*
X134308861Y-94500700D01*
X134366217Y-94519088D01*
X134425103Y-94578609D01*
X134440904Y-94600431D01*
X134502853Y-94671468D01*
X134574469Y-94728872D01*
X134596758Y-94741322D01*
X134652636Y-94770562D01*
X134682131Y-94791307D01*
X134683500Y-94793992D01*
X134660186Y-94799529D01*
X134598582Y-94803607D01*
X134511193Y-94805461D01*
X134495717Y-94805500D01*
X134394586Y-94804299D01*
X134332523Y-94794390D01*
X134297805Y-94766315D01*
X134278705Y-94710618D01*
X134263559Y-94618248D01*
X134254640Y-94547033D01*
X130244691Y-94547033D01*
X130242839Y-94561697D01*
X130238499Y-94664985D01*
X130238500Y-94856300D01*
X131673600Y-94856300D01*
X132010472Y-94855957D01*
G36*
X176589992Y-92657512D02*
G01*
X176592143Y-92655548D01*
X176613137Y-92608775D01*
X176611528Y-92579348D01*
X176600754Y-92553612D01*
X176596446Y-92561873D01*
X176585859Y-92610168D01*
X176577061Y-92638073D01*
X176570452Y-92668540D01*
X176589992Y-92657512D01*
X176589992Y-92657512D01*
G37*
X176589992Y-92657512D02*
X176592143Y-92655548D01*
X176613137Y-92608775D01*
X176611528Y-92579348D01*
X176600754Y-92553612D01*
X176596446Y-92561873D01*
X176585859Y-92610168D01*
X176577061Y-92638073D01*
X176570452Y-92668540D01*
X176589992Y-92657512D01*
G36*
X176593500Y-92506800D02*
G01*
X176580800Y-92494100D01*
X176568100Y-92506800D01*
X176580800Y-92519500D01*
X176593500Y-92506800D01*
X176593500Y-92506800D01*
G37*
X176593500Y-92506800D02*
X176580800Y-92494100D01*
X176568100Y-92506800D01*
X176580800Y-92519500D01*
X176593500Y-92506800D01*
G36*
X176339500Y-92278200D02*
G01*
X176326800Y-92265500D01*
X176314100Y-92278200D01*
X176326800Y-92290900D01*
X176339500Y-92278200D01*
X176339500Y-92278200D01*
G37*
X176339500Y-92278200D02*
X176326800Y-92265500D01*
X176314100Y-92278200D01*
X176326800Y-92290900D01*
X176339500Y-92278200D01*
G36*
X176364900Y-92227400D02*
G01*
X176352200Y-92214700D01*
X176339500Y-92227400D01*
X176352200Y-92240100D01*
X176364900Y-92227400D01*
X176364900Y-92227400D01*
G37*
X176364900Y-92227400D02*
X176352200Y-92214700D01*
X176339500Y-92227400D01*
X176352200Y-92240100D01*
X176364900Y-92227400D01*
G36*
X176364900Y-92176600D02*
G01*
X176352200Y-92163900D01*
X176339500Y-92176600D01*
X176352200Y-92189300D01*
X176364900Y-92176600D01*
X176364900Y-92176600D01*
G37*
X176364900Y-92176600D02*
X176352200Y-92163900D01*
X176339500Y-92176600D01*
X176352200Y-92189300D01*
X176364900Y-92176600D01*
G36*
X178701700Y-92278200D02*
G01*
X178689000Y-92265500D01*
X178676300Y-92278200D01*
X178689000Y-92290900D01*
X178701700Y-92278200D01*
X178701700Y-92278200D01*
G37*
X178701700Y-92278200D02*
X178689000Y-92265500D01*
X178676300Y-92278200D01*
X178689000Y-92290900D01*
X178701700Y-92278200D01*
G36*
X175780700Y-94513400D02*
G01*
X175768000Y-94500700D01*
X175755300Y-94513400D01*
X175768000Y-94526100D01*
X175780700Y-94513400D01*
X175780700Y-94513400D01*
G37*
X175780700Y-94513400D02*
X175768000Y-94500700D01*
X175755300Y-94513400D01*
X175768000Y-94526100D01*
X175780700Y-94513400D01*
G36*
X175780700Y-94386400D02*
G01*
X175768000Y-94373700D01*
X175755300Y-94386400D01*
X175768000Y-94399100D01*
X175780700Y-94386400D01*
X175780700Y-94386400D01*
G37*
X175780700Y-94386400D02*
X175768000Y-94373700D01*
X175755300Y-94386400D01*
X175768000Y-94399100D01*
X175780700Y-94386400D01*
G36*
X178003200Y-91982530D02*
G01*
X177952400Y-91960700D01*
X177893059Y-91941904D01*
X177863500Y-91937475D01*
X177838217Y-91939797D01*
X177857067Y-91956503D01*
X177863500Y-91960700D01*
X177921169Y-91981180D01*
X177952400Y-91983926D01*
X178003200Y-91982530D01*
X178003200Y-91982530D01*
G37*
X178003200Y-91982530D02*
X177952400Y-91960700D01*
X177893059Y-91941904D01*
X177863500Y-91937475D01*
X177838217Y-91939797D01*
X177857067Y-91956503D01*
X177863500Y-91960700D01*
X177921169Y-91981180D01*
X177952400Y-91983926D01*
X178003200Y-91982530D01*
G36*
X177956633Y-91850634D02*
G01*
X177953146Y-91835534D01*
X177939700Y-91833700D01*
X177918792Y-91842994D01*
X177922766Y-91850634D01*
X177952910Y-91853674D01*
X177956633Y-91850634D01*
X177956633Y-91850634D01*
G37*
X177956633Y-91850634D02*
X177953146Y-91835534D01*
X177939700Y-91833700D01*
X177918792Y-91842994D01*
X177922766Y-91850634D01*
X177952910Y-91853674D01*
X177956633Y-91850634D01*
G36*
X176872900Y-91592400D02*
G01*
X176860200Y-91579700D01*
X176847500Y-91592400D01*
X176860200Y-91605100D01*
X176872900Y-91592400D01*
X176872900Y-91592400D01*
G37*
X176872900Y-91592400D02*
X176860200Y-91579700D01*
X176847500Y-91592400D01*
X176860200Y-91605100D01*
X176872900Y-91592400D01*
G36*
X178642433Y-91545834D02*
G01*
X178645473Y-91515690D01*
X178642433Y-91511967D01*
X178627333Y-91515454D01*
X178625500Y-91528900D01*
X178634793Y-91549808D01*
X178642433Y-91545834D01*
X178642433Y-91545834D01*
G37*
X178642433Y-91545834D02*
X178645473Y-91515690D01*
X178642433Y-91511967D01*
X178627333Y-91515454D01*
X178625500Y-91528900D01*
X178634793Y-91549808D01*
X178642433Y-91545834D01*
G36*
X179441173Y-91696117D02*
G01*
X179475462Y-91641845D01*
X179488535Y-91601094D01*
X179475500Y-91594708D01*
X179444324Y-91623918D01*
X179439106Y-91630500D01*
X179399936Y-91671537D01*
X179370610Y-91672366D01*
X179359080Y-91662939D01*
X179340764Y-91625653D01*
X179355881Y-91570526D01*
X179357013Y-91568021D01*
X179372056Y-91483021D01*
X179363014Y-91446682D01*
X179347253Y-91412483D01*
X179340466Y-91420902D01*
X179338310Y-91470251D01*
X179328981Y-91540883D01*
X179308652Y-91568924D01*
X179283222Y-91559690D01*
X179258593Y-91518496D01*
X179240664Y-91450658D01*
X179235100Y-91377277D01*
X179224290Y-91291244D01*
X179197700Y-91214295D01*
X179191938Y-91204157D01*
X179148776Y-91135200D01*
X179217238Y-91196684D01*
X179272074Y-91238042D01*
X179297615Y-91243578D01*
X179288318Y-91217708D01*
X179247241Y-91172776D01*
X179195823Y-91133996D01*
X179144548Y-91109002D01*
X179105981Y-91101498D01*
X179092687Y-91115191D01*
X179098018Y-91128774D01*
X179124918Y-91171316D01*
X179163928Y-91229220D01*
X179164272Y-91229718D01*
X179202230Y-91325881D01*
X179206342Y-91410372D01*
X179207870Y-91481689D01*
X179226495Y-91540198D01*
X179270169Y-91606018D01*
X179296908Y-91639477D01*
X179393246Y-91757046D01*
X179441173Y-91696117D01*
X179441173Y-91696117D01*
G37*
X179441173Y-91696117D02*
X179475462Y-91641845D01*
X179488535Y-91601094D01*
X179475500Y-91594708D01*
X179444324Y-91623918D01*
X179439106Y-91630500D01*
X179399936Y-91671537D01*
X179370610Y-91672366D01*
X179359080Y-91662939D01*
X179340764Y-91625653D01*
X179355881Y-91570526D01*
X179357013Y-91568021D01*
X179372056Y-91483021D01*
X179363014Y-91446682D01*
X179347253Y-91412483D01*
X179340466Y-91420902D01*
X179338310Y-91470251D01*
X179328981Y-91540883D01*
X179308652Y-91568924D01*
X179283222Y-91559690D01*
X179258593Y-91518496D01*
X179240664Y-91450658D01*
X179235100Y-91377277D01*
X179224290Y-91291244D01*
X179197700Y-91214295D01*
X179191938Y-91204157D01*
X179148776Y-91135200D01*
X179217238Y-91196684D01*
X179272074Y-91238042D01*
X179297615Y-91243578D01*
X179288318Y-91217708D01*
X179247241Y-91172776D01*
X179195823Y-91133996D01*
X179144548Y-91109002D01*
X179105981Y-91101498D01*
X179092687Y-91115191D01*
X179098018Y-91128774D01*
X179124918Y-91171316D01*
X179163928Y-91229220D01*
X179164272Y-91229718D01*
X179202230Y-91325881D01*
X179206342Y-91410372D01*
X179207870Y-91481689D01*
X179226495Y-91540198D01*
X179270169Y-91606018D01*
X179296908Y-91639477D01*
X179393246Y-91757046D01*
X179441173Y-91696117D01*
G36*
X177558700Y-90525600D02*
G01*
X177546000Y-90512900D01*
X177533300Y-90525600D01*
X177546000Y-90538300D01*
X177558700Y-90525600D01*
X177558700Y-90525600D01*
G37*
X177558700Y-90525600D02*
X177546000Y-90512900D01*
X177533300Y-90525600D01*
X177546000Y-90538300D01*
X177558700Y-90525600D01*
G36*
X177482500Y-90525600D02*
G01*
X177469800Y-90512900D01*
X177457100Y-90525600D01*
X177469800Y-90538300D01*
X177482500Y-90525600D01*
X177482500Y-90525600D01*
G37*
X177482500Y-90525600D02*
X177469800Y-90512900D01*
X177457100Y-90525600D01*
X177469800Y-90538300D01*
X177482500Y-90525600D01*
G36*
X177812700Y-90474800D02*
G01*
X177800000Y-90462100D01*
X177787300Y-90474800D01*
X177800000Y-90487500D01*
X177812700Y-90474800D01*
X177812700Y-90474800D01*
G37*
X177812700Y-90474800D02*
X177800000Y-90462100D01*
X177787300Y-90474800D01*
X177800000Y-90487500D01*
X177812700Y-90474800D01*
G36*
X177431700Y-90449400D02*
G01*
X177419000Y-90436700D01*
X177406300Y-90449400D01*
X177419000Y-90462100D01*
X177431700Y-90449400D01*
X177431700Y-90449400D01*
G37*
X177431700Y-90449400D02*
X177419000Y-90436700D01*
X177406300Y-90449400D01*
X177419000Y-90462100D01*
X177431700Y-90449400D01*
G36*
X177665837Y-90594349D02*
G01*
X177760517Y-90577172D01*
X177845265Y-90555391D01*
X177902616Y-90532379D01*
X177912643Y-90525000D01*
X177935337Y-90491888D01*
X177928036Y-90451811D01*
X177913648Y-90422783D01*
X177869648Y-90363948D01*
X177826405Y-90328975D01*
X177791300Y-90312593D01*
X177795123Y-90325706D01*
X177808536Y-90342529D01*
X177829296Y-90386764D01*
X177826267Y-90409897D01*
X177829050Y-90425557D01*
X177849480Y-90420992D01*
X177882918Y-90419087D01*
X177881318Y-90448998D01*
X177852233Y-90495640D01*
X177836076Y-90505620D01*
X177867594Y-90505620D01*
X177873774Y-90491425D01*
X177899349Y-90464157D01*
X177914052Y-90469751D01*
X177914300Y-90473301D01*
X177896258Y-90494785D01*
X177884975Y-90502626D01*
X177867594Y-90505620D01*
X177836076Y-90505620D01*
X177813550Y-90519533D01*
X177744910Y-90539773D01*
X177660045Y-90554894D01*
X177572688Y-90563433D01*
X177496570Y-90563926D01*
X177445425Y-90554910D01*
X177431700Y-90540468D01*
X177418012Y-90520902D01*
X177408961Y-90523956D01*
X177381702Y-90517693D01*
X177372777Y-90502971D01*
X177377608Y-90455947D01*
X177411046Y-90393398D01*
X177462972Y-90332673D01*
X177481334Y-90316858D01*
X177503875Y-90291833D01*
X177498561Y-90285108D01*
X177469733Y-90301282D01*
X177418955Y-90343763D01*
X177377911Y-90382912D01*
X177308832Y-90460710D01*
X177282728Y-90515699D01*
X177299527Y-90552044D01*
X177359155Y-90573911D01*
X177374550Y-90576650D01*
X177450581Y-90589353D01*
X177511159Y-90600348D01*
X177516537Y-90601421D01*
X177578689Y-90603556D01*
X177665837Y-90594349D01*
X177665837Y-90594349D01*
G37*
X177665837Y-90594349D02*
X177760517Y-90577172D01*
X177845265Y-90555391D01*
X177902616Y-90532379D01*
X177912643Y-90525000D01*
X177935337Y-90491888D01*
X177928036Y-90451811D01*
X177913648Y-90422783D01*
X177869648Y-90363948D01*
X177826405Y-90328975D01*
X177791300Y-90312593D01*
X177795123Y-90325706D01*
X177808536Y-90342529D01*
X177829296Y-90386764D01*
X177826267Y-90409897D01*
X177829050Y-90425557D01*
X177849480Y-90420992D01*
X177882918Y-90419087D01*
X177881318Y-90448998D01*
X177852233Y-90495640D01*
X177836076Y-90505620D01*
X177867594Y-90505620D01*
X177873774Y-90491425D01*
X177899349Y-90464157D01*
X177914052Y-90469751D01*
X177914300Y-90473301D01*
X177896258Y-90494785D01*
X177884975Y-90502626D01*
X177867594Y-90505620D01*
X177836076Y-90505620D01*
X177813550Y-90519533D01*
X177744910Y-90539773D01*
X177660045Y-90554894D01*
X177572688Y-90563433D01*
X177496570Y-90563926D01*
X177445425Y-90554910D01*
X177431700Y-90540468D01*
X177418012Y-90520902D01*
X177408961Y-90523956D01*
X177381702Y-90517693D01*
X177372777Y-90502971D01*
X177377608Y-90455947D01*
X177411046Y-90393398D01*
X177462972Y-90332673D01*
X177481334Y-90316858D01*
X177503875Y-90291833D01*
X177498561Y-90285108D01*
X177469733Y-90301282D01*
X177418955Y-90343763D01*
X177377911Y-90382912D01*
X177308832Y-90460710D01*
X177282728Y-90515699D01*
X177299527Y-90552044D01*
X177359155Y-90573911D01*
X177374550Y-90576650D01*
X177450581Y-90589353D01*
X177511159Y-90600348D01*
X177516537Y-90601421D01*
X177578689Y-90603556D01*
X177665837Y-90594349D01*
G36*
X177270575Y-89828368D02*
G01*
X177278824Y-89774711D01*
X177279300Y-89752400D01*
X177277614Y-89681924D01*
X177270274Y-89653486D01*
X177253855Y-89658369D01*
X177245433Y-89666234D01*
X177231013Y-89706325D01*
X177229809Y-89766312D01*
X177240548Y-89820121D01*
X177253900Y-89839800D01*
X177270575Y-89828368D01*
X177270575Y-89828368D01*
G37*
X177270575Y-89828368D02*
X177278824Y-89774711D01*
X177279300Y-89752400D01*
X177277614Y-89681924D01*
X177270274Y-89653486D01*
X177253855Y-89658369D01*
X177245433Y-89666234D01*
X177231013Y-89706325D01*
X177229809Y-89766312D01*
X177240548Y-89820121D01*
X177253900Y-89839800D01*
X177270575Y-89828368D01*
G36*
X177603472Y-94601957D02*
G01*
X177891374Y-94600904D01*
X178132132Y-94599106D01*
X178327571Y-94596527D01*
X178479517Y-94593132D01*
X178589795Y-94588887D01*
X178660232Y-94583756D01*
X178692652Y-94577704D01*
X178695350Y-94574765D01*
X178714499Y-94554020D01*
X178771049Y-94522580D01*
X178854297Y-94486087D01*
X178888849Y-94472758D01*
X178991953Y-94431457D01*
X179084861Y-94389203D01*
X179150501Y-94353872D01*
X179159470Y-94347894D01*
X179210075Y-94313938D01*
X179239970Y-94297729D01*
X179241349Y-94297500D01*
X179253841Y-94319737D01*
X179275412Y-94377723D01*
X179298600Y-94449900D01*
X179344743Y-94602300D01*
X179502723Y-94602300D01*
X179594036Y-94599608D01*
X179649693Y-94588643D01*
X179684685Y-94565077D01*
X179700569Y-94545151D01*
X179740435Y-94488000D01*
X179741767Y-94545150D01*
X179743904Y-94567736D01*
X179754326Y-94583416D01*
X179780899Y-94593451D01*
X179831490Y-94599100D01*
X179913966Y-94601623D01*
X180036195Y-94602279D01*
X180098700Y-94602300D01*
X180454300Y-94602300D01*
X180454300Y-94252810D01*
X180453767Y-94112338D01*
X180451400Y-94014027D01*
X180446039Y-93949243D01*
X180436530Y-93909351D01*
X180421713Y-93885718D01*
X180403191Y-93871403D01*
X180352083Y-93839485D01*
X180403191Y-93739305D01*
X180412551Y-93719789D01*
X180420693Y-93698115D01*
X180427702Y-93670805D01*
X180433662Y-93634380D01*
X180438659Y-93585360D01*
X180442777Y-93520266D01*
X180446101Y-93435620D01*
X180448716Y-93327942D01*
X180450707Y-93193754D01*
X180452159Y-93029577D01*
X180453156Y-92831930D01*
X180453784Y-92597337D01*
X180454127Y-92322316D01*
X180454271Y-92003391D01*
X180454300Y-91644212D01*
X180454300Y-89649300D01*
X178714400Y-89651546D01*
X178810932Y-89702488D01*
X178874320Y-89742489D01*
X178915907Y-89780812D01*
X178921788Y-89790757D01*
X178930384Y-89852767D01*
X178925724Y-89942302D01*
X178910795Y-90041434D01*
X178888587Y-90132233D01*
X178862090Y-90196770D01*
X178851835Y-90210365D01*
X178804056Y-90250465D01*
X178777329Y-90248498D01*
X178766393Y-90201241D01*
X178765200Y-90157300D01*
X178769427Y-90093661D01*
X178779988Y-90058281D01*
X178784250Y-90055700D01*
X178798704Y-90077427D01*
X178803300Y-90117701D01*
X178812665Y-90171483D01*
X178828700Y-90195400D01*
X178847253Y-90186104D01*
X178854100Y-90142167D01*
X178829040Y-90063184D01*
X178754617Y-89979554D01*
X178631962Y-89892185D01*
X178462206Y-89801983D01*
X178387013Y-89767778D01*
X178275913Y-89720807D01*
X178178794Y-89682846D01*
X178106769Y-89658045D01*
X178072541Y-89650404D01*
X178074076Y-89659515D01*
X178115006Y-89682995D01*
X178187445Y-89716634D01*
X178231800Y-89735445D01*
X178349892Y-89787659D01*
X178472229Y-89847243D01*
X178574281Y-89902192D01*
X178583241Y-89907454D01*
X178731483Y-89995526D01*
X178735641Y-90278783D01*
X178739800Y-90562039D01*
X178619150Y-90443175D01*
X178559004Y-90387301D01*
X178515774Y-90353596D01*
X178498522Y-90349088D01*
X178498500Y-90349550D01*
X178515519Y-90377780D01*
X178560883Y-90431144D01*
X178626052Y-90499846D01*
X178652665Y-90526396D01*
X178738857Y-90615296D01*
X178823388Y-90709345D01*
X178889516Y-90789829D01*
X178895579Y-90797902D01*
X178978723Y-90890126D01*
X179061463Y-90938725D01*
X179073409Y-90942401D01*
X179164787Y-90984577D01*
X179267515Y-91057855D01*
X179367395Y-91149426D01*
X179450228Y-91246484D01*
X179496958Y-91324469D01*
X179527396Y-91420426D01*
X179543241Y-91529462D01*
X179545403Y-91640457D01*
X179534795Y-91742291D01*
X179512326Y-91823845D01*
X179478909Y-91874000D01*
X179451061Y-91884500D01*
X179412122Y-91868217D01*
X179352173Y-91826111D01*
X179301541Y-91782900D01*
X179239987Y-91728500D01*
X179193414Y-91691629D01*
X179175109Y-91681300D01*
X179161060Y-91702245D01*
X179159290Y-91751188D01*
X179168080Y-91807298D01*
X179185707Y-91849742D01*
X179189379Y-91854020D01*
X179207051Y-91879189D01*
X179189379Y-91884500D01*
X179160793Y-91867892D01*
X179158900Y-91859100D01*
X179139571Y-91834439D01*
X179133500Y-91833700D01*
X179120074Y-91856916D01*
X179110936Y-91917922D01*
X179108100Y-91991180D01*
X179105026Y-92078502D01*
X179094770Y-92117490D01*
X179075778Y-92107930D01*
X179046497Y-92049609D01*
X179018772Y-91978921D01*
X178979602Y-91887376D01*
X178948393Y-91845353D01*
X178924543Y-91852301D01*
X178912927Y-91881945D01*
X178881805Y-91925262D01*
X178832087Y-91935206D01*
X178765200Y-91935111D01*
X178844978Y-91886464D01*
X178913457Y-91839095D01*
X178938090Y-91799275D01*
X178921303Y-91753587D01*
X178878269Y-91702264D01*
X178830904Y-91652146D01*
X178810546Y-91637417D01*
X178809881Y-91656019D01*
X178816511Y-91684880D01*
X178819702Y-91741690D01*
X178805358Y-91768929D01*
X178785775Y-91760113D01*
X178777988Y-91704622D01*
X178777900Y-91695223D01*
X178763975Y-91603798D01*
X178728015Y-91501877D01*
X178678736Y-91408797D01*
X178624858Y-91343898D01*
X178616687Y-91337627D01*
X178573485Y-91317140D01*
X178521035Y-91303674D01*
X178475157Y-91299231D01*
X178451669Y-91305819D01*
X178456222Y-91317289D01*
X178454770Y-91346488D01*
X178433400Y-91378268D01*
X178410996Y-91418007D01*
X178417767Y-91437199D01*
X178451470Y-91432983D01*
X178473332Y-91414321D01*
X178527784Y-91379183D01*
X178587400Y-91391209D01*
X178644397Y-91448442D01*
X178651178Y-91459050D01*
X178689323Y-91526574D01*
X178698193Y-91560764D01*
X178678232Y-91569488D01*
X178657250Y-91566696D01*
X178599445Y-91558051D01*
X178579550Y-91556244D01*
X178557010Y-91542433D01*
X178559383Y-91533134D01*
X178552061Y-91514251D01*
X178537904Y-91511967D01*
X178513680Y-91529121D01*
X178515353Y-91543265D01*
X178513208Y-91580819D01*
X178478632Y-91593810D01*
X178425430Y-91578720D01*
X178410582Y-91569980D01*
X178371589Y-91547508D01*
X178351400Y-91554142D01*
X178338957Y-91598579D01*
X178333359Y-91630739D01*
X178326568Y-91719242D01*
X178332389Y-91802871D01*
X178334013Y-91811092D01*
X178351604Y-91891187D01*
X178253602Y-91873040D01*
X178180064Y-91847589D01*
X178090455Y-91800353D01*
X178023339Y-91755397D01*
X177936878Y-91693004D01*
X177886981Y-91663098D01*
X177874293Y-91665686D01*
X177899458Y-91700775D01*
X177949574Y-91754607D01*
X178005617Y-91818899D01*
X178020866Y-91855640D01*
X178011879Y-91864758D01*
X178011254Y-91878440D01*
X178050010Y-91899300D01*
X178074033Y-91908046D01*
X178138529Y-91936555D01*
X178159720Y-91967776D01*
X178158910Y-91973949D01*
X178223516Y-91973949D01*
X178240458Y-91963756D01*
X178292334Y-91968293D01*
X178323227Y-91973136D01*
X178395688Y-91988184D01*
X178445865Y-92004536D01*
X178455170Y-92010155D01*
X178458805Y-92033367D01*
X178522328Y-92033367D01*
X178525156Y-91992824D01*
X178549734Y-91994990D01*
X178583771Y-92024200D01*
X178626520Y-92057626D01*
X178647010Y-92054823D01*
X178642228Y-92025539D01*
X178645316Y-92001692D01*
X178683354Y-91987744D01*
X178747460Y-91981089D01*
X178818963Y-91977029D01*
X178865106Y-91975444D01*
X178873441Y-91975809D01*
X178867140Y-91998302D01*
X178844469Y-92055768D01*
X178809953Y-92136874D01*
X178800795Y-92157728D01*
X178744113Y-92270947D01*
X178695540Y-92335205D01*
X178669095Y-92350944D01*
X178606383Y-92354484D01*
X178577541Y-92321497D01*
X178574700Y-92294937D01*
X178568534Y-92246237D01*
X178552765Y-92169597D01*
X178540320Y-92118636D01*
X178522328Y-92033367D01*
X178458805Y-92033367D01*
X178460021Y-92041132D01*
X178457285Y-92106067D01*
X178448949Y-92189030D01*
X178436998Y-92274089D01*
X178423420Y-92345314D01*
X178410202Y-92386773D01*
X178407791Y-92390075D01*
X178384919Y-92388186D01*
X178355144Y-92341456D01*
X178317264Y-92247761D01*
X178301369Y-92202000D01*
X178271061Y-92113627D01*
X178244711Y-92039406D01*
X178230718Y-92002272D01*
X178223516Y-91973949D01*
X178158910Y-91973949D01*
X178157847Y-91982045D01*
X178146127Y-92026546D01*
X178126832Y-92104472D01*
X178103928Y-92199779D01*
X178101597Y-92209627D01*
X178078469Y-92303852D01*
X178059977Y-92358590D01*
X178039279Y-92383842D01*
X178009532Y-92389606D01*
X177979920Y-92387427D01*
X177936984Y-92379505D01*
X177908537Y-92358343D01*
X177886227Y-92312282D01*
X177861702Y-92229662D01*
X177858547Y-92217977D01*
X177828066Y-92112606D01*
X177806745Y-92056776D01*
X177794767Y-92050557D01*
X177792315Y-92094019D01*
X177799574Y-92187230D01*
X177800491Y-92196003D01*
X177809077Y-92286290D01*
X177809470Y-92336063D01*
X177799808Y-92355216D01*
X177778229Y-92353639D01*
X177771246Y-92351336D01*
X177739242Y-92341655D01*
X177747252Y-92352753D01*
X177772217Y-92372594D01*
X177795705Y-92396210D01*
X177806261Y-92423640D01*
X177923027Y-92423640D01*
X177954934Y-92423766D01*
X177986682Y-92440404D01*
X178006458Y-92463614D01*
X178004422Y-92472934D01*
X178600100Y-92472934D01*
X178616056Y-92427347D01*
X178641310Y-92417900D01*
X178668336Y-92423772D01*
X178657660Y-92449992D01*
X178648497Y-92462350D01*
X178618310Y-92502271D01*
X178607287Y-92517384D01*
X178601676Y-92504910D01*
X178600100Y-92472934D01*
X178004422Y-92472934D01*
X177999798Y-92494100D01*
X178371500Y-92494100D01*
X178380793Y-92473193D01*
X178388433Y-92477167D01*
X178391473Y-92507311D01*
X178388433Y-92511034D01*
X178373333Y-92507547D01*
X178371500Y-92494100D01*
X177999798Y-92494100D01*
X177998071Y-92502001D01*
X177981349Y-92535265D01*
X177954610Y-92580824D01*
X177943327Y-92583813D01*
X177940716Y-92553328D01*
X177932790Y-92488647D01*
X177924282Y-92458078D01*
X177923027Y-92423640D01*
X177806261Y-92423640D01*
X177808418Y-92429245D01*
X177811840Y-92483632D01*
X177807454Y-92571302D01*
X177803419Y-92623661D01*
X177789959Y-92785520D01*
X177778430Y-92903600D01*
X177767062Y-92984785D01*
X177754087Y-93035962D01*
X177737737Y-93064017D01*
X177716244Y-93075834D01*
X177687839Y-93078299D01*
X177686661Y-93078301D01*
X177629495Y-93084174D01*
X177600515Y-93095751D01*
X177554863Y-93114367D01*
X177491792Y-93116332D01*
X177442164Y-93100788D01*
X177441377Y-93100179D01*
X177387653Y-93084809D01*
X177318431Y-93096555D01*
X177285650Y-93112284D01*
X177257924Y-93116561D01*
X177253900Y-93106768D01*
X177232168Y-93089853D01*
X177185001Y-93086219D01*
X177143517Y-93084781D01*
X177119542Y-93064874D01*
X177104017Y-93014196D01*
X177095006Y-92964000D01*
X177083060Y-92820105D01*
X177086955Y-92641302D01*
X177105422Y-92440515D01*
X177137197Y-92230669D01*
X177181012Y-92024688D01*
X177190844Y-91986100D01*
X177196482Y-91948544D01*
X177181930Y-91956659D01*
X177147712Y-92009730D01*
X177094355Y-92107046D01*
X177076300Y-92141654D01*
X177018438Y-92242376D01*
X176974334Y-92294217D01*
X176943955Y-92297189D01*
X176927263Y-92251302D01*
X176923700Y-92187706D01*
X176929859Y-92099607D01*
X176949581Y-92054016D01*
X176961800Y-92046086D01*
X176995400Y-92021592D01*
X176999900Y-92009580D01*
X176980762Y-91998950D01*
X176955518Y-92004725D01*
X176928243Y-92012306D01*
X176929039Y-91997126D01*
X176958153Y-91950001D01*
X176982040Y-91907429D01*
X176981213Y-91893586D01*
X176977425Y-91895392D01*
X176960130Y-91894403D01*
X176964808Y-91873120D01*
X176986438Y-91838787D01*
X176996507Y-91833700D01*
X177020494Y-91814464D01*
X177047577Y-91776550D01*
X177067546Y-91740138D01*
X177059078Y-91741642D01*
X177048607Y-91751150D01*
X177008972Y-91779172D01*
X176985767Y-91767494D01*
X176975520Y-91711972D01*
X176974153Y-91662250D01*
X176968676Y-91545733D01*
X176950824Y-91470361D01*
X176917252Y-91427290D01*
X176879063Y-91410690D01*
X176821287Y-91410020D01*
X176774165Y-91449045D01*
X176769536Y-91455039D01*
X176738067Y-91506511D01*
X176740075Y-91527005D01*
X176772593Y-91511299D01*
X176792194Y-91494878D01*
X176851111Y-91457114D01*
X176896216Y-91466572D01*
X176922806Y-91501831D01*
X176944896Y-91554171D01*
X176936391Y-91590018D01*
X176890534Y-91624560D01*
X176860850Y-91641074D01*
X176798586Y-91669851D01*
X176759155Y-91671430D01*
X176731914Y-91654833D01*
X176689583Y-91637837D01*
X176662096Y-91669156D01*
X176649579Y-91748487D01*
X176650764Y-91852750D01*
X176659407Y-92011500D01*
X176549435Y-92011500D01*
X176476174Y-92006629D01*
X176436894Y-91987291D01*
X176418123Y-91954350D01*
X176410144Y-91884189D01*
X176419652Y-91836528D01*
X176434999Y-91780726D01*
X176427512Y-91765695D01*
X176403394Y-91790521D01*
X176373984Y-91843256D01*
X176341838Y-91901272D01*
X176315455Y-91933174D01*
X176310192Y-91935300D01*
X176300797Y-91954339D01*
X176306244Y-91976866D01*
X176307937Y-92007348D01*
X176286397Y-92006642D01*
X176258133Y-91971776D01*
X176246955Y-91896039D01*
X176251756Y-91785990D01*
X176271427Y-91648189D01*
X176304861Y-91489193D01*
X176350951Y-91315564D01*
X176408589Y-91133860D01*
X176455667Y-91004192D01*
X176511057Y-90870899D01*
X176571379Y-90752540D01*
X176642399Y-90642136D01*
X176729884Y-90532708D01*
X176839600Y-90417277D01*
X176977313Y-90288865D01*
X177148791Y-90140493D01*
X177215800Y-90084268D01*
X177341158Y-89979715D01*
X177434188Y-89903724D01*
X177501912Y-89852728D01*
X177551349Y-89823160D01*
X177589521Y-89811451D01*
X177623449Y-89814034D01*
X177660153Y-89827343D01*
X177692896Y-89841851D01*
X177767053Y-89877765D01*
X177865456Y-89929769D01*
X177968890Y-89987653D01*
X177986248Y-89997727D01*
X178085411Y-90054215D01*
X178154384Y-90090601D01*
X178189822Y-90105505D01*
X178188379Y-90097545D01*
X178146711Y-90065338D01*
X178142201Y-90062140D01*
X178044049Y-89999328D01*
X177900460Y-89917525D01*
X177735510Y-89829275D01*
X177645650Y-89786950D01*
X177580375Y-89774529D01*
X177521842Y-89793976D01*
X177452212Y-89847253D01*
X177435184Y-89862319D01*
X177375168Y-89916000D01*
X177393117Y-89782650D01*
X177402023Y-89695268D01*
X177400089Y-89655931D01*
X177389469Y-89663573D01*
X177372318Y-89717129D01*
X177353351Y-89802319D01*
X177334485Y-89884868D01*
X177315807Y-89945116D01*
X177303503Y-89967540D01*
X177276573Y-89957521D01*
X177235116Y-89915749D01*
X177188804Y-89855138D01*
X177147306Y-89788602D01*
X177120294Y-89729054D01*
X177117489Y-89719150D01*
X177100532Y-89649300D01*
X175749792Y-89649300D01*
X175767353Y-89719150D01*
X175797929Y-89852652D01*
X175827752Y-90004315D01*
X175855740Y-90165912D01*
X175880809Y-90329219D01*
X175901877Y-90486008D01*
X175917859Y-90628054D01*
X175927674Y-90747131D01*
X175930237Y-90835011D01*
X175924466Y-90883470D01*
X175921348Y-90888719D01*
X175909813Y-90880563D01*
X175907700Y-90860215D01*
X175898666Y-90823693D01*
X175874107Y-90750106D01*
X175837837Y-90649363D01*
X175793671Y-90531373D01*
X175745422Y-90406046D01*
X175696903Y-90283291D01*
X175651930Y-90173018D01*
X175614316Y-90085136D01*
X175588278Y-90030300D01*
X175581283Y-90023436D01*
X175575277Y-90032965D01*
X175570187Y-90062151D01*
X175565939Y-90114260D01*
X175562461Y-90192554D01*
X175559679Y-90300298D01*
X175557521Y-90440755D01*
X175555912Y-90617190D01*
X175554780Y-90832867D01*
X175554052Y-91091049D01*
X175553655Y-91395001D01*
X175553559Y-91567551D01*
X176218898Y-91567551D01*
X176222448Y-91519804D01*
X176222799Y-91516200D01*
X176234482Y-91443546D01*
X176253009Y-91372213D01*
X176273930Y-91314715D01*
X176292798Y-91283569D01*
X176304063Y-91287600D01*
X176301470Y-91323477D01*
X176285424Y-91391534D01*
X176263106Y-91465400D01*
X176236647Y-91543601D01*
X176222771Y-91576567D01*
X176218898Y-91567551D01*
X175553559Y-91567551D01*
X175553552Y-91579700D01*
X175553502Y-91907484D01*
X175553585Y-92036900D01*
X176253117Y-92036900D01*
X176278513Y-92044642D01*
X176299322Y-92052318D01*
X176334357Y-92083879D01*
X176339500Y-92103118D01*
X176360513Y-92132380D01*
X176387306Y-92138500D01*
X176416463Y-92142895D01*
X176416954Y-92144694D01*
X176517300Y-92144694D01*
X176670239Y-92087499D01*
X176751481Y-92054640D01*
X176811945Y-92025571D01*
X176836838Y-92008202D01*
X176866500Y-91986475D01*
X176870376Y-91986100D01*
X176869033Y-92006777D01*
X176848036Y-92061800D01*
X176811579Y-92140662D01*
X176797342Y-92169195D01*
X176749435Y-92260591D01*
X176713743Y-92315917D01*
X176680724Y-92345006D01*
X176640839Y-92357693D01*
X176610864Y-92361406D01*
X176517300Y-92370522D01*
X176517300Y-92144694D01*
X176416954Y-92144694D01*
X176422511Y-92165054D01*
X176407580Y-92218444D01*
X176402368Y-92233750D01*
X176369793Y-92304552D01*
X176338626Y-92324827D01*
X176309530Y-92294844D01*
X176283172Y-92214870D01*
X176276252Y-92182950D01*
X176261656Y-92105189D01*
X176253495Y-92052213D01*
X176253117Y-92036900D01*
X175553585Y-92036900D01*
X175553684Y-92188606D01*
X175554210Y-92427203D01*
X175554212Y-92427740D01*
X176322831Y-92427740D01*
X176326800Y-92417900D01*
X176349624Y-92393669D01*
X176353699Y-92392500D01*
X176364608Y-92412152D01*
X176364900Y-92417900D01*
X176358132Y-92426367D01*
X176924694Y-92426367D01*
X176932990Y-92367223D01*
X176954417Y-92335006D01*
X176955450Y-92334595D01*
X176985815Y-92327834D01*
X176991875Y-92344456D01*
X176974483Y-92393951D01*
X176963184Y-92420407D01*
X176925688Y-92506800D01*
X176924694Y-92426367D01*
X176358132Y-92426367D01*
X176354747Y-92430600D01*
X176538861Y-92430600D01*
X176618325Y-92427828D01*
X176673281Y-92433387D01*
X176687036Y-92453087D01*
X176686983Y-92453228D01*
X176676183Y-92491776D01*
X176659170Y-92563096D01*
X176643519Y-92633800D01*
X176619302Y-92732741D01*
X176597977Y-92793687D01*
X176581486Y-92813026D01*
X176571773Y-92787141D01*
X176570457Y-92769702D01*
X176566320Y-92710537D01*
X176558700Y-92624697D01*
X176553309Y-92570300D01*
X176538861Y-92430600D01*
X176354747Y-92430600D01*
X176345373Y-92442324D01*
X176338000Y-92443300D01*
X176322831Y-92427740D01*
X175554212Y-92427740D01*
X175555193Y-92627414D01*
X175556747Y-92793377D01*
X175558985Y-92929229D01*
X175562020Y-93039108D01*
X175565966Y-93127152D01*
X175570935Y-93197499D01*
X175577041Y-93254287D01*
X175584397Y-93301653D01*
X175593116Y-93343735D01*
X175602899Y-93383100D01*
X175630688Y-93490011D01*
X175645923Y-93557011D01*
X175648606Y-93593416D01*
X175638736Y-93608541D01*
X175616313Y-93611701D01*
X175602900Y-93611700D01*
X175559821Y-93624062D01*
X175556056Y-93655228D01*
X175588321Y-93696326D01*
X175648992Y-93736299D01*
X175743200Y-93809630D01*
X175792615Y-93889361D01*
X175828378Y-93959066D01*
X175862170Y-94009917D01*
X175871596Y-94019757D01*
X175889695Y-94048073D01*
X175882718Y-94093737D01*
X175867672Y-94133095D01*
X175848772Y-94205281D01*
X175837691Y-94293033D01*
X179847640Y-94293033D01*
X179852502Y-94258575D01*
X179876269Y-94247574D01*
X179901861Y-94246700D01*
X179959217Y-94265088D01*
X180018103Y-94324609D01*
X180033904Y-94346431D01*
X180095853Y-94417468D01*
X180167469Y-94474872D01*
X180189758Y-94487322D01*
X180245636Y-94516562D01*
X180275131Y-94537307D01*
X180276500Y-94539992D01*
X180253186Y-94545529D01*
X180191582Y-94549607D01*
X180104193Y-94551461D01*
X180088717Y-94551500D01*
X179987586Y-94550299D01*
X179925523Y-94540390D01*
X179890805Y-94512315D01*
X179871705Y-94456618D01*
X179856559Y-94364248D01*
X179847640Y-94293033D01*
X175837691Y-94293033D01*
X175835839Y-94307697D01*
X175831499Y-94410985D01*
X175831500Y-94602300D01*
X177266600Y-94602300D01*
X177603472Y-94601957D01*
X177603472Y-94601957D01*
G37*
X177603472Y-94601957D02*
X177891374Y-94600904D01*
X178132132Y-94599106D01*
X178327571Y-94596527D01*
X178479517Y-94593132D01*
X178589795Y-94588887D01*
X178660232Y-94583756D01*
X178692652Y-94577704D01*
X178695350Y-94574765D01*
X178714499Y-94554020D01*
X178771049Y-94522580D01*
X178854297Y-94486087D01*
X178888849Y-94472758D01*
X178991953Y-94431457D01*
X179084861Y-94389203D01*
X179150501Y-94353872D01*
X179159470Y-94347894D01*
X179210075Y-94313938D01*
X179239970Y-94297729D01*
X179241349Y-94297500D01*
X179253841Y-94319737D01*
X179275412Y-94377723D01*
X179298600Y-94449900D01*
X179344743Y-94602300D01*
X179502723Y-94602300D01*
X179594036Y-94599608D01*
X179649693Y-94588643D01*
X179684685Y-94565077D01*
X179700569Y-94545151D01*
X179740435Y-94488000D01*
X179741767Y-94545150D01*
X179743904Y-94567736D01*
X179754326Y-94583416D01*
X179780899Y-94593451D01*
X179831490Y-94599100D01*
X179913966Y-94601623D01*
X180036195Y-94602279D01*
X180098700Y-94602300D01*
X180454300Y-94602300D01*
X180454300Y-94252810D01*
X180453767Y-94112338D01*
X180451400Y-94014027D01*
X180446039Y-93949243D01*
X180436530Y-93909351D01*
X180421713Y-93885718D01*
X180403191Y-93871403D01*
X180352083Y-93839485D01*
X180403191Y-93739305D01*
X180412551Y-93719789D01*
X180420693Y-93698115D01*
X180427702Y-93670805D01*
X180433662Y-93634380D01*
X180438659Y-93585360D01*
X180442777Y-93520266D01*
X180446101Y-93435620D01*
X180448716Y-93327942D01*
X180450707Y-93193754D01*
X180452159Y-93029577D01*
X180453156Y-92831930D01*
X180453784Y-92597337D01*
X180454127Y-92322316D01*
X180454271Y-92003391D01*
X180454300Y-91644212D01*
X180454300Y-89649300D01*
X178714400Y-89651546D01*
X178810932Y-89702488D01*
X178874320Y-89742489D01*
X178915907Y-89780812D01*
X178921788Y-89790757D01*
X178930384Y-89852767D01*
X178925724Y-89942302D01*
X178910795Y-90041434D01*
X178888587Y-90132233D01*
X178862090Y-90196770D01*
X178851835Y-90210365D01*
X178804056Y-90250465D01*
X178777329Y-90248498D01*
X178766393Y-90201241D01*
X178765200Y-90157300D01*
X178769427Y-90093661D01*
X178779988Y-90058281D01*
X178784250Y-90055700D01*
X178798704Y-90077427D01*
X178803300Y-90117701D01*
X178812665Y-90171483D01*
X178828700Y-90195400D01*
X178847253Y-90186104D01*
X178854100Y-90142167D01*
X178829040Y-90063184D01*
X178754617Y-89979554D01*
X178631962Y-89892185D01*
X178462206Y-89801983D01*
X178387013Y-89767778D01*
X178275913Y-89720807D01*
X178178794Y-89682846D01*
X178106769Y-89658045D01*
X178072541Y-89650404D01*
X178074076Y-89659515D01*
X178115006Y-89682995D01*
X178187445Y-89716634D01*
X178231800Y-89735445D01*
X178349892Y-89787659D01*
X178472229Y-89847243D01*
X178574281Y-89902192D01*
X178583241Y-89907454D01*
X178731483Y-89995526D01*
X178735641Y-90278783D01*
X178739800Y-90562039D01*
X178619150Y-90443175D01*
X178559004Y-90387301D01*
X178515774Y-90353596D01*
X178498522Y-90349088D01*
X178498500Y-90349550D01*
X178515519Y-90377780D01*
X178560883Y-90431144D01*
X178626052Y-90499846D01*
X178652665Y-90526396D01*
X178738857Y-90615296D01*
X178823388Y-90709345D01*
X178889516Y-90789829D01*
X178895579Y-90797902D01*
X178978723Y-90890126D01*
X179061463Y-90938725D01*
X179073409Y-90942401D01*
X179164787Y-90984577D01*
X179267515Y-91057855D01*
X179367395Y-91149426D01*
X179450228Y-91246484D01*
X179496958Y-91324469D01*
X179527396Y-91420426D01*
X179543241Y-91529462D01*
X179545403Y-91640457D01*
X179534795Y-91742291D01*
X179512326Y-91823845D01*
X179478909Y-91874000D01*
X179451061Y-91884500D01*
X179412122Y-91868217D01*
X179352173Y-91826111D01*
X179301541Y-91782900D01*
X179239987Y-91728500D01*
X179193414Y-91691629D01*
X179175109Y-91681300D01*
X179161060Y-91702245D01*
X179159290Y-91751188D01*
X179168080Y-91807298D01*
X179185707Y-91849742D01*
X179189379Y-91854020D01*
X179207051Y-91879189D01*
X179189379Y-91884500D01*
X179160793Y-91867892D01*
X179158900Y-91859100D01*
X179139571Y-91834439D01*
X179133500Y-91833700D01*
X179120074Y-91856916D01*
X179110936Y-91917922D01*
X179108100Y-91991180D01*
X179105026Y-92078502D01*
X179094770Y-92117490D01*
X179075778Y-92107930D01*
X179046497Y-92049609D01*
X179018772Y-91978921D01*
X178979602Y-91887376D01*
X178948393Y-91845353D01*
X178924543Y-91852301D01*
X178912927Y-91881945D01*
X178881805Y-91925262D01*
X178832087Y-91935206D01*
X178765200Y-91935111D01*
X178844978Y-91886464D01*
X178913457Y-91839095D01*
X178938090Y-91799275D01*
X178921303Y-91753587D01*
X178878269Y-91702264D01*
X178830904Y-91652146D01*
X178810546Y-91637417D01*
X178809881Y-91656019D01*
X178816511Y-91684880D01*
X178819702Y-91741690D01*
X178805358Y-91768929D01*
X178785775Y-91760113D01*
X178777988Y-91704622D01*
X178777900Y-91695223D01*
X178763975Y-91603798D01*
X178728015Y-91501877D01*
X178678736Y-91408797D01*
X178624858Y-91343898D01*
X178616687Y-91337627D01*
X178573485Y-91317140D01*
X178521035Y-91303674D01*
X178475157Y-91299231D01*
X178451669Y-91305819D01*
X178456222Y-91317289D01*
X178454770Y-91346488D01*
X178433400Y-91378268D01*
X178410996Y-91418007D01*
X178417767Y-91437199D01*
X178451470Y-91432983D01*
X178473332Y-91414321D01*
X178527784Y-91379183D01*
X178587400Y-91391209D01*
X178644397Y-91448442D01*
X178651178Y-91459050D01*
X178689323Y-91526574D01*
X178698193Y-91560764D01*
X178678232Y-91569488D01*
X178657250Y-91566696D01*
X178599445Y-91558051D01*
X178579550Y-91556244D01*
X178557010Y-91542433D01*
X178559383Y-91533134D01*
X178552061Y-91514251D01*
X178537904Y-91511967D01*
X178513680Y-91529121D01*
X178515353Y-91543265D01*
X178513208Y-91580819D01*
X178478632Y-91593810D01*
X178425430Y-91578720D01*
X178410582Y-91569980D01*
X178371589Y-91547508D01*
X178351400Y-91554142D01*
X178338957Y-91598579D01*
X178333359Y-91630739D01*
X178326568Y-91719242D01*
X178332389Y-91802871D01*
X178334013Y-91811092D01*
X178351604Y-91891187D01*
X178253602Y-91873040D01*
X178180064Y-91847589D01*
X178090455Y-91800353D01*
X178023339Y-91755397D01*
X177936878Y-91693004D01*
X177886981Y-91663098D01*
X177874293Y-91665686D01*
X177899458Y-91700775D01*
X177949574Y-91754607D01*
X178005617Y-91818899D01*
X178020866Y-91855640D01*
X178011879Y-91864758D01*
X178011254Y-91878440D01*
X178050010Y-91899300D01*
X178074033Y-91908046D01*
X178138529Y-91936555D01*
X178159720Y-91967776D01*
X178158910Y-91973949D01*
X178223516Y-91973949D01*
X178240458Y-91963756D01*
X178292334Y-91968293D01*
X178323227Y-91973136D01*
X178395688Y-91988184D01*
X178445865Y-92004536D01*
X178455170Y-92010155D01*
X178458805Y-92033367D01*
X178522328Y-92033367D01*
X178525156Y-91992824D01*
X178549734Y-91994990D01*
X178583771Y-92024200D01*
X178626520Y-92057626D01*
X178647010Y-92054823D01*
X178642228Y-92025539D01*
X178645316Y-92001692D01*
X178683354Y-91987744D01*
X178747460Y-91981089D01*
X178818963Y-91977029D01*
X178865106Y-91975444D01*
X178873441Y-91975809D01*
X178867140Y-91998302D01*
X178844469Y-92055768D01*
X178809953Y-92136874D01*
X178800795Y-92157728D01*
X178744113Y-92270947D01*
X178695540Y-92335205D01*
X178669095Y-92350944D01*
X178606383Y-92354484D01*
X178577541Y-92321497D01*
X178574700Y-92294937D01*
X178568534Y-92246237D01*
X178552765Y-92169597D01*
X178540320Y-92118636D01*
X178522328Y-92033367D01*
X178458805Y-92033367D01*
X178460021Y-92041132D01*
X178457285Y-92106067D01*
X178448949Y-92189030D01*
X178436998Y-92274089D01*
X178423420Y-92345314D01*
X178410202Y-92386773D01*
X178407791Y-92390075D01*
X178384919Y-92388186D01*
X178355144Y-92341456D01*
X178317264Y-92247761D01*
X178301369Y-92202000D01*
X178271061Y-92113627D01*
X178244711Y-92039406D01*
X178230718Y-92002272D01*
X178223516Y-91973949D01*
X178158910Y-91973949D01*
X178157847Y-91982045D01*
X178146127Y-92026546D01*
X178126832Y-92104472D01*
X178103928Y-92199779D01*
X178101597Y-92209627D01*
X178078469Y-92303852D01*
X178059977Y-92358590D01*
X178039279Y-92383842D01*
X178009532Y-92389606D01*
X177979920Y-92387427D01*
X177936984Y-92379505D01*
X177908537Y-92358343D01*
X177886227Y-92312282D01*
X177861702Y-92229662D01*
X177858547Y-92217977D01*
X177828066Y-92112606D01*
X177806745Y-92056776D01*
X177794767Y-92050557D01*
X177792315Y-92094019D01*
X177799574Y-92187230D01*
X177800491Y-92196003D01*
X177809077Y-92286290D01*
X177809470Y-92336063D01*
X177799808Y-92355216D01*
X177778229Y-92353639D01*
X177771246Y-92351336D01*
X177739242Y-92341655D01*
X177747252Y-92352753D01*
X177772217Y-92372594D01*
X177795705Y-92396210D01*
X177806261Y-92423640D01*
X177923027Y-92423640D01*
X177954934Y-92423766D01*
X177986682Y-92440404D01*
X178006458Y-92463614D01*
X178004422Y-92472934D01*
X178600100Y-92472934D01*
X178616056Y-92427347D01*
X178641310Y-92417900D01*
X178668336Y-92423772D01*
X178657660Y-92449992D01*
X178648497Y-92462350D01*
X178618310Y-92502271D01*
X178607287Y-92517384D01*
X178601676Y-92504910D01*
X178600100Y-92472934D01*
X178004422Y-92472934D01*
X177999798Y-92494100D01*
X178371500Y-92494100D01*
X178380793Y-92473193D01*
X178388433Y-92477167D01*
X178391473Y-92507311D01*
X178388433Y-92511034D01*
X178373333Y-92507547D01*
X178371500Y-92494100D01*
X177999798Y-92494100D01*
X177998071Y-92502001D01*
X177981349Y-92535265D01*
X177954610Y-92580824D01*
X177943327Y-92583813D01*
X177940716Y-92553328D01*
X177932790Y-92488647D01*
X177924282Y-92458078D01*
X177923027Y-92423640D01*
X177806261Y-92423640D01*
X177808418Y-92429245D01*
X177811840Y-92483632D01*
X177807454Y-92571302D01*
X177803419Y-92623661D01*
X177789959Y-92785520D01*
X177778430Y-92903600D01*
X177767062Y-92984785D01*
X177754087Y-93035962D01*
X177737737Y-93064017D01*
X177716244Y-93075834D01*
X177687839Y-93078299D01*
X177686661Y-93078301D01*
X177629495Y-93084174D01*
X177600515Y-93095751D01*
X177554863Y-93114367D01*
X177491792Y-93116332D01*
X177442164Y-93100788D01*
X177441377Y-93100179D01*
X177387653Y-93084809D01*
X177318431Y-93096555D01*
X177285650Y-93112284D01*
X177257924Y-93116561D01*
X177253900Y-93106768D01*
X177232168Y-93089853D01*
X177185001Y-93086219D01*
X177143517Y-93084781D01*
X177119542Y-93064874D01*
X177104017Y-93014196D01*
X177095006Y-92964000D01*
X177083060Y-92820105D01*
X177086955Y-92641302D01*
X177105422Y-92440515D01*
X177137197Y-92230669D01*
X177181012Y-92024688D01*
X177190844Y-91986100D01*
X177196482Y-91948544D01*
X177181930Y-91956659D01*
X177147712Y-92009730D01*
X177094355Y-92107046D01*
X177076300Y-92141654D01*
X177018438Y-92242376D01*
X176974334Y-92294217D01*
X176943955Y-92297189D01*
X176927263Y-92251302D01*
X176923700Y-92187706D01*
X176929859Y-92099607D01*
X176949581Y-92054016D01*
X176961800Y-92046086D01*
X176995400Y-92021592D01*
X176999900Y-92009580D01*
X176980762Y-91998950D01*
X176955518Y-92004725D01*
X176928243Y-92012306D01*
X176929039Y-91997126D01*
X176958153Y-91950001D01*
X176982040Y-91907429D01*
X176981213Y-91893586D01*
X176977425Y-91895392D01*
X176960130Y-91894403D01*
X176964808Y-91873120D01*
X176986438Y-91838787D01*
X176996507Y-91833700D01*
X177020494Y-91814464D01*
X177047577Y-91776550D01*
X177067546Y-91740138D01*
X177059078Y-91741642D01*
X177048607Y-91751150D01*
X177008972Y-91779172D01*
X176985767Y-91767494D01*
X176975520Y-91711972D01*
X176974153Y-91662250D01*
X176968676Y-91545733D01*
X176950824Y-91470361D01*
X176917252Y-91427290D01*
X176879063Y-91410690D01*
X176821287Y-91410020D01*
X176774165Y-91449045D01*
X176769536Y-91455039D01*
X176738067Y-91506511D01*
X176740075Y-91527005D01*
X176772593Y-91511299D01*
X176792194Y-91494878D01*
X176851111Y-91457114D01*
X176896216Y-91466572D01*
X176922806Y-91501831D01*
X176944896Y-91554171D01*
X176936391Y-91590018D01*
X176890534Y-91624560D01*
X176860850Y-91641074D01*
X176798586Y-91669851D01*
X176759155Y-91671430D01*
X176731914Y-91654833D01*
X176689583Y-91637837D01*
X176662096Y-91669156D01*
X176649579Y-91748487D01*
X176650764Y-91852750D01*
X176659407Y-92011500D01*
X176549435Y-92011500D01*
X176476174Y-92006629D01*
X176436894Y-91987291D01*
X176418123Y-91954350D01*
X176410144Y-91884189D01*
X176419652Y-91836528D01*
X176434999Y-91780726D01*
X176427512Y-91765695D01*
X176403394Y-91790521D01*
X176373984Y-91843256D01*
X176341838Y-91901272D01*
X176315455Y-91933174D01*
X176310192Y-91935300D01*
X176300797Y-91954339D01*
X176306244Y-91976866D01*
X176307937Y-92007348D01*
X176286397Y-92006642D01*
X176258133Y-91971776D01*
X176246955Y-91896039D01*
X176251756Y-91785990D01*
X176271427Y-91648189D01*
X176304861Y-91489193D01*
X176350951Y-91315564D01*
X176408589Y-91133860D01*
X176455667Y-91004192D01*
X176511057Y-90870899D01*
X176571379Y-90752540D01*
X176642399Y-90642136D01*
X176729884Y-90532708D01*
X176839600Y-90417277D01*
X176977313Y-90288865D01*
X177148791Y-90140493D01*
X177215800Y-90084268D01*
X177341158Y-89979715D01*
X177434188Y-89903724D01*
X177501912Y-89852728D01*
X177551349Y-89823160D01*
X177589521Y-89811451D01*
X177623449Y-89814034D01*
X177660153Y-89827343D01*
X177692896Y-89841851D01*
X177767053Y-89877765D01*
X177865456Y-89929769D01*
X177968890Y-89987653D01*
X177986248Y-89997727D01*
X178085411Y-90054215D01*
X178154384Y-90090601D01*
X178189822Y-90105505D01*
X178188379Y-90097545D01*
X178146711Y-90065338D01*
X178142201Y-90062140D01*
X178044049Y-89999328D01*
X177900460Y-89917525D01*
X177735510Y-89829275D01*
X177645650Y-89786950D01*
X177580375Y-89774529D01*
X177521842Y-89793976D01*
X177452212Y-89847253D01*
X177435184Y-89862319D01*
X177375168Y-89916000D01*
X177393117Y-89782650D01*
X177402023Y-89695268D01*
X177400089Y-89655931D01*
X177389469Y-89663573D01*
X177372318Y-89717129D01*
X177353351Y-89802319D01*
X177334485Y-89884868D01*
X177315807Y-89945116D01*
X177303503Y-89967540D01*
X177276573Y-89957521D01*
X177235116Y-89915749D01*
X177188804Y-89855138D01*
X177147306Y-89788602D01*
X177120294Y-89729054D01*
X177117489Y-89719150D01*
X177100532Y-89649300D01*
X175749792Y-89649300D01*
X175767353Y-89719150D01*
X175797929Y-89852652D01*
X175827752Y-90004315D01*
X175855740Y-90165912D01*
X175880809Y-90329219D01*
X175901877Y-90486008D01*
X175917859Y-90628054D01*
X175927674Y-90747131D01*
X175930237Y-90835011D01*
X175924466Y-90883470D01*
X175921348Y-90888719D01*
X175909813Y-90880563D01*
X175907700Y-90860215D01*
X175898666Y-90823693D01*
X175874107Y-90750106D01*
X175837837Y-90649363D01*
X175793671Y-90531373D01*
X175745422Y-90406046D01*
X175696903Y-90283291D01*
X175651930Y-90173018D01*
X175614316Y-90085136D01*
X175588278Y-90030300D01*
X175581283Y-90023436D01*
X175575277Y-90032965D01*
X175570187Y-90062151D01*
X175565939Y-90114260D01*
X175562461Y-90192554D01*
X175559679Y-90300298D01*
X175557521Y-90440755D01*
X175555912Y-90617190D01*
X175554780Y-90832867D01*
X175554052Y-91091049D01*
X175553655Y-91395001D01*
X175553559Y-91567551D01*
X176218898Y-91567551D01*
X176222448Y-91519804D01*
X176222799Y-91516200D01*
X176234482Y-91443546D01*
X176253009Y-91372213D01*
X176273930Y-91314715D01*
X176292798Y-91283569D01*
X176304063Y-91287600D01*
X176301470Y-91323477D01*
X176285424Y-91391534D01*
X176263106Y-91465400D01*
X176236647Y-91543601D01*
X176222771Y-91576567D01*
X176218898Y-91567551D01*
X175553559Y-91567551D01*
X175553552Y-91579700D01*
X175553502Y-91907484D01*
X175553585Y-92036900D01*
X176253117Y-92036900D01*
X176278513Y-92044642D01*
X176299322Y-92052318D01*
X176334357Y-92083879D01*
X176339500Y-92103118D01*
X176360513Y-92132380D01*
X176387306Y-92138500D01*
X176416463Y-92142895D01*
X176416954Y-92144694D01*
X176517300Y-92144694D01*
X176670239Y-92087499D01*
X176751481Y-92054640D01*
X176811945Y-92025571D01*
X176836838Y-92008202D01*
X176866500Y-91986475D01*
X176870376Y-91986100D01*
X176869033Y-92006777D01*
X176848036Y-92061800D01*
X176811579Y-92140662D01*
X176797342Y-92169195D01*
X176749435Y-92260591D01*
X176713743Y-92315917D01*
X176680724Y-92345006D01*
X176640839Y-92357693D01*
X176610864Y-92361406D01*
X176517300Y-92370522D01*
X176517300Y-92144694D01*
X176416954Y-92144694D01*
X176422511Y-92165054D01*
X176407580Y-92218444D01*
X176402368Y-92233750D01*
X176369793Y-92304552D01*
X176338626Y-92324827D01*
X176309530Y-92294844D01*
X176283172Y-92214870D01*
X176276252Y-92182950D01*
X176261656Y-92105189D01*
X176253495Y-92052213D01*
X176253117Y-92036900D01*
X175553585Y-92036900D01*
X175553684Y-92188606D01*
X175554210Y-92427203D01*
X175554212Y-92427740D01*
X176322831Y-92427740D01*
X176326800Y-92417900D01*
X176349624Y-92393669D01*
X176353699Y-92392500D01*
X176364608Y-92412152D01*
X176364900Y-92417900D01*
X176358132Y-92426367D01*
X176924694Y-92426367D01*
X176932990Y-92367223D01*
X176954417Y-92335006D01*
X176955450Y-92334595D01*
X176985815Y-92327834D01*
X176991875Y-92344456D01*
X176974483Y-92393951D01*
X176963184Y-92420407D01*
X176925688Y-92506800D01*
X176924694Y-92426367D01*
X176358132Y-92426367D01*
X176354747Y-92430600D01*
X176538861Y-92430600D01*
X176618325Y-92427828D01*
X176673281Y-92433387D01*
X176687036Y-92453087D01*
X176686983Y-92453228D01*
X176676183Y-92491776D01*
X176659170Y-92563096D01*
X176643519Y-92633800D01*
X176619302Y-92732741D01*
X176597977Y-92793687D01*
X176581486Y-92813026D01*
X176571773Y-92787141D01*
X176570457Y-92769702D01*
X176566320Y-92710537D01*
X176558700Y-92624697D01*
X176553309Y-92570300D01*
X176538861Y-92430600D01*
X176354747Y-92430600D01*
X176345373Y-92442324D01*
X176338000Y-92443300D01*
X176322831Y-92427740D01*
X175554212Y-92427740D01*
X175555193Y-92627414D01*
X175556747Y-92793377D01*
X175558985Y-92929229D01*
X175562020Y-93039108D01*
X175565966Y-93127152D01*
X175570935Y-93197499D01*
X175577041Y-93254287D01*
X175584397Y-93301653D01*
X175593116Y-93343735D01*
X175602899Y-93383100D01*
X175630688Y-93490011D01*
X175645923Y-93557011D01*
X175648606Y-93593416D01*
X175638736Y-93608541D01*
X175616313Y-93611701D01*
X175602900Y-93611700D01*
X175559821Y-93624062D01*
X175556056Y-93655228D01*
X175588321Y-93696326D01*
X175648992Y-93736299D01*
X175743200Y-93809630D01*
X175792615Y-93889361D01*
X175828378Y-93959066D01*
X175862170Y-94009917D01*
X175871596Y-94019757D01*
X175889695Y-94048073D01*
X175882718Y-94093737D01*
X175867672Y-94133095D01*
X175848772Y-94205281D01*
X175837691Y-94293033D01*
X179847640Y-94293033D01*
X179852502Y-94258575D01*
X179876269Y-94247574D01*
X179901861Y-94246700D01*
X179959217Y-94265088D01*
X180018103Y-94324609D01*
X180033904Y-94346431D01*
X180095853Y-94417468D01*
X180167469Y-94474872D01*
X180189758Y-94487322D01*
X180245636Y-94516562D01*
X180275131Y-94537307D01*
X180276500Y-94539992D01*
X180253186Y-94545529D01*
X180191582Y-94549607D01*
X180104193Y-94551461D01*
X180088717Y-94551500D01*
X179987586Y-94550299D01*
X179925523Y-94540390D01*
X179890805Y-94512315D01*
X179871705Y-94456618D01*
X179856559Y-94364248D01*
X179847640Y-94293033D01*
X175837691Y-94293033D01*
X175835839Y-94307697D01*
X175831499Y-94410985D01*
X175831500Y-94602300D01*
X177266600Y-94602300D01*
X177603472Y-94601957D01*
G36*
X149540467Y-93552081D02*
G01*
X149569746Y-93587253D01*
X149576670Y-93594728D01*
X149615645Y-93633042D01*
X149640186Y-93651404D01*
X149641563Y-93651679D01*
X149635654Y-93637375D01*
X149606375Y-93602204D01*
X149599451Y-93594728D01*
X149560476Y-93556415D01*
X149535935Y-93538052D01*
X149534558Y-93537778D01*
X149540467Y-93552081D01*
X149540467Y-93552081D01*
G37*
X149540467Y-93552081D02*
X149569746Y-93587253D01*
X149576670Y-93594728D01*
X149615645Y-93633042D01*
X149640186Y-93651404D01*
X149641563Y-93651679D01*
X149635654Y-93637375D01*
X149606375Y-93602204D01*
X149599451Y-93594728D01*
X149560476Y-93556415D01*
X149535935Y-93538052D01*
X149534558Y-93537778D01*
X149540467Y-93552081D01*
G36*
X149635044Y-88286890D02*
G01*
X149603382Y-88323749D01*
X149575409Y-88390308D01*
X149549699Y-88490761D01*
X149524826Y-88629303D01*
X149505247Y-88765311D01*
X149486171Y-88948180D01*
X149472284Y-89165790D01*
X149463584Y-89407621D01*
X149460070Y-89663149D01*
X149461740Y-89921853D01*
X149468591Y-90173211D01*
X149480623Y-90406701D01*
X149497833Y-90611800D01*
X149505572Y-90678854D01*
X149520122Y-90798048D01*
X149531651Y-90900157D01*
X149539327Y-90977176D01*
X149542323Y-91021097D01*
X149541785Y-91028168D01*
X149517062Y-91035442D01*
X149462966Y-91044789D01*
X149436175Y-91048487D01*
X149366107Y-91065291D01*
X149275257Y-91097448D01*
X149182664Y-91138173D01*
X149178016Y-91140468D01*
X148946619Y-91263445D01*
X148753838Y-91385071D01*
X148593339Y-91511434D01*
X148458786Y-91648621D01*
X148343847Y-91802718D01*
X148242188Y-91979814D01*
X148188776Y-92091129D01*
X148154641Y-92170198D01*
X148129712Y-92235164D01*
X148118859Y-92273222D01*
X148118733Y-92275279D01*
X148108321Y-92312220D01*
X148077843Y-92309389D01*
X148028438Y-92267339D01*
X147976241Y-92206074D01*
X147880063Y-92098552D01*
X147758413Y-91984394D01*
X147626755Y-91876967D01*
X147500553Y-91789640D01*
X147480886Y-91777833D01*
X147380151Y-91733210D01*
X147276132Y-91710945D01*
X147181471Y-91712039D01*
X147108814Y-91737494D01*
X147096029Y-91747362D01*
X147060679Y-91789326D01*
X147048061Y-91821398D01*
X147036037Y-91849395D01*
X147027847Y-91852038D01*
X147003327Y-91839928D01*
X146947417Y-91806266D01*
X146866447Y-91755054D01*
X146766746Y-91690293D01*
X146658467Y-91618540D01*
X146514926Y-91524982D01*
X146353103Y-91423460D01*
X146189050Y-91323811D01*
X146038822Y-91235871D01*
X145978238Y-91201758D01*
X145647176Y-91018474D01*
X145589764Y-90932176D01*
X145514397Y-90932176D01*
X145514308Y-90933114D01*
X145491485Y-90927878D01*
X145437439Y-90906981D01*
X145362070Y-90874372D01*
X145327243Y-90858505D01*
X145224641Y-90816699D01*
X145127135Y-90786827D01*
X145043362Y-90770446D01*
X144981960Y-90769116D01*
X144951567Y-90784395D01*
X144949874Y-90790394D01*
X144948664Y-90827568D01*
X144948551Y-90890037D01*
X144948789Y-90913026D01*
X144945176Y-90971843D01*
X144933850Y-90997585D01*
X144928071Y-90996897D01*
X144908022Y-90974465D01*
X144866859Y-90921282D01*
X144809524Y-90843972D01*
X144740958Y-90749160D01*
X144693917Y-90682995D01*
X144509467Y-90392994D01*
X144366841Y-90101966D01*
X144262865Y-89801733D01*
X144194368Y-89484115D01*
X144175813Y-89347058D01*
X144163700Y-89235798D01*
X144157809Y-89160639D01*
X144158488Y-89112503D01*
X144166079Y-89082313D01*
X144180929Y-89060990D01*
X144186910Y-89054907D01*
X144211140Y-89035625D01*
X144234012Y-89036280D01*
X144265698Y-89061820D01*
X144316371Y-89117192D01*
X144317443Y-89118405D01*
X144428078Y-89250276D01*
X144538583Y-89396252D01*
X144654734Y-89564467D01*
X144782307Y-89763053D01*
X144830168Y-89840332D01*
X144912722Y-89973451D01*
X145010952Y-90129905D01*
X145115526Y-90294946D01*
X145217112Y-90453822D01*
X145277200Y-90546922D01*
X145351762Y-90662891D01*
X145416378Y-90765288D01*
X145467431Y-90848225D01*
X145501309Y-90905817D01*
X145514397Y-90932176D01*
X145589764Y-90932176D01*
X145458427Y-90734763D01*
X145378980Y-90614045D01*
X145296743Y-90486881D01*
X145220703Y-90367301D01*
X145159851Y-90269337D01*
X145152617Y-90257419D01*
X144978107Y-89974523D01*
X144818078Y-89727552D01*
X144668631Y-89510743D01*
X144525870Y-89318332D01*
X144467072Y-89243541D01*
X144349578Y-89101836D01*
X144253776Y-88998393D01*
X144177948Y-88932387D01*
X144120371Y-88902996D01*
X144079328Y-88909394D01*
X144053096Y-88950760D01*
X144039957Y-89026270D01*
X144039113Y-89038675D01*
X144042393Y-89241625D01*
X144075620Y-89464684D01*
X144139602Y-89711608D01*
X144235147Y-89986155D01*
X144252119Y-90029616D01*
X144323934Y-90185131D01*
X144423107Y-90361760D01*
X144543416Y-90549821D01*
X144678638Y-90739636D01*
X144822553Y-90921524D01*
X144834408Y-90935623D01*
X144886973Y-91004283D01*
X144925656Y-91066926D01*
X144941643Y-91108316D01*
X144955439Y-91160559D01*
X144983316Y-91229816D01*
X144996492Y-91257115D01*
X145023902Y-91315706D01*
X145062624Y-91404861D01*
X145107585Y-91512631D01*
X145153710Y-91627068D01*
X145155323Y-91631148D01*
X145241052Y-91841906D01*
X145340835Y-92076858D01*
X145448828Y-92322905D01*
X145559184Y-92566949D01*
X145666060Y-92795894D01*
X145763609Y-92996640D01*
X145773469Y-93016337D01*
X145855792Y-93192549D01*
X145930188Y-93375423D01*
X145993783Y-93555989D01*
X146043707Y-93725279D01*
X146077086Y-93874323D01*
X146091047Y-93994153D01*
X146091289Y-94008712D01*
X146081803Y-94101823D01*
X146056694Y-94210835D01*
X146020987Y-94320242D01*
X145979707Y-94414535D01*
X145939879Y-94476018D01*
X145853990Y-94541542D01*
X145734306Y-94589944D01*
X145589413Y-94620823D01*
X145427900Y-94633772D01*
X145258354Y-94628388D01*
X145089362Y-94604267D01*
X144929512Y-94561004D01*
X144845584Y-94527535D01*
X144761262Y-94485038D01*
X144703160Y-94447411D01*
X144679138Y-94419832D01*
X144678913Y-94417767D01*
X144662303Y-94381233D01*
X144622118Y-94339303D01*
X144619969Y-94337590D01*
X144588509Y-94318136D01*
X144548435Y-94305622D01*
X144494127Y-94300316D01*
X144419962Y-94302488D01*
X144320319Y-94312408D01*
X144189578Y-94330345D01*
X144022116Y-94356570D01*
X143938554Y-94370273D01*
X143763369Y-94397509D01*
X143607736Y-94417134D01*
X143458933Y-94429940D01*
X143304237Y-94436720D01*
X143130923Y-94438267D01*
X142926270Y-94435372D01*
X142902052Y-94434834D01*
X142751477Y-94431627D01*
X142608036Y-94428996D01*
X142481090Y-94427079D01*
X142380006Y-94426017D01*
X142314145Y-94425950D01*
X142309765Y-94426004D01*
X142211273Y-94420065D01*
X142108335Y-94402942D01*
X142070572Y-94393099D01*
X142005518Y-94373518D01*
X141961654Y-94360807D01*
X141950975Y-94358114D01*
X141946234Y-94376937D01*
X141945280Y-94400360D01*
X141938768Y-94426414D01*
X141911523Y-94436678D01*
X141851983Y-94435063D01*
X141844482Y-94434456D01*
X141764789Y-94420327D01*
X141653597Y-94390423D01*
X141520668Y-94348297D01*
X141375760Y-94297503D01*
X141228632Y-94241595D01*
X141089045Y-94184127D01*
X140966757Y-94128653D01*
X140878150Y-94082564D01*
X140793264Y-94034946D01*
X140722827Y-93997397D01*
X140676318Y-93974863D01*
X140663637Y-93970603D01*
X140615333Y-93952686D01*
X140551214Y-93904268D01*
X140479831Y-93833344D01*
X140409734Y-93747913D01*
X140379630Y-93704971D01*
X140320375Y-93619440D01*
X140259802Y-93538451D01*
X140209984Y-93478069D01*
X140205374Y-93473048D01*
X140144653Y-93421800D01*
X140055771Y-93363067D01*
X139953291Y-93305197D01*
X139851774Y-93256539D01*
X139781333Y-93229945D01*
X139741878Y-93222139D01*
X139737822Y-93232868D01*
X139764694Y-93258613D01*
X139818024Y-93295859D01*
X139893343Y-93341087D01*
X139984940Y-93390151D01*
X140078150Y-93439008D01*
X140142978Y-93479815D01*
X140192225Y-93524006D01*
X140238694Y-93583016D01*
X140293661Y-93665912D01*
X140415286Y-93826159D01*
X140558825Y-93958748D01*
X140733712Y-94071737D01*
X140820925Y-94116314D01*
X140913275Y-94162440D01*
X141002821Y-94210259D01*
X141070395Y-94249527D01*
X141071151Y-94250003D01*
X141137711Y-94284510D01*
X141236685Y-94326465D01*
X141357981Y-94372508D01*
X141491504Y-94419278D01*
X141627163Y-94463415D01*
X141754863Y-94501558D01*
X141864512Y-94530348D01*
X141946016Y-94546424D01*
X141967739Y-94548511D01*
X142039772Y-94548135D01*
X142074966Y-94537463D01*
X142081962Y-94521605D01*
X142097160Y-94499809D01*
X142135695Y-94503096D01*
X142191050Y-94511251D01*
X142284761Y-94518687D01*
X142409626Y-94525289D01*
X142558443Y-94530945D01*
X142724012Y-94535541D01*
X142899132Y-94538965D01*
X143076601Y-94541103D01*
X143249218Y-94541842D01*
X143409781Y-94541069D01*
X143551091Y-94538671D01*
X143665945Y-94534534D01*
X143747142Y-94528546D01*
X143748126Y-94528435D01*
X143821663Y-94518882D01*
X143924909Y-94503938D01*
X144042659Y-94485859D01*
X144132186Y-94471461D01*
X144283255Y-94447278D01*
X144396808Y-94431429D01*
X144480136Y-94424008D01*
X144540531Y-94425106D01*
X144585286Y-94434816D01*
X144621692Y-94453229D01*
X144654234Y-94478066D01*
X144709696Y-94517163D01*
X144791092Y-94565596D01*
X144882740Y-94614156D01*
X144902200Y-94623690D01*
X145064045Y-94685120D01*
X145244631Y-94725726D01*
X145433018Y-94745203D01*
X145618268Y-94743251D01*
X145789439Y-94719567D01*
X145935594Y-94673850D01*
X145977388Y-94653373D01*
X146068295Y-94586166D01*
X146133687Y-94495595D01*
X146176155Y-94375977D01*
X146198287Y-94221627D01*
X146201604Y-94161196D01*
X146194306Y-93968633D01*
X146157111Y-93766530D01*
X146088418Y-93548992D01*
X145986628Y-93310121D01*
X145950119Y-93234871D01*
X145864290Y-93057664D01*
X145766495Y-92847927D01*
X145661172Y-92615635D01*
X145552762Y-92370762D01*
X145445702Y-92123283D01*
X145344432Y-91883172D01*
X145292445Y-91756973D01*
X145239745Y-91628778D01*
X145190234Y-91510150D01*
X145147543Y-91409655D01*
X145115304Y-91335856D01*
X145099264Y-91301368D01*
X145082638Y-91265680D01*
X145083989Y-91256416D01*
X145107272Y-91275804D01*
X145156444Y-91326069D01*
X145171809Y-91342209D01*
X145302895Y-91474508D01*
X145449412Y-91612658D01*
X145604571Y-91751046D01*
X145761587Y-91884060D01*
X145913672Y-92006084D01*
X146054040Y-92111507D01*
X146175902Y-92194714D01*
X146265066Y-92246429D01*
X146342993Y-92288706D01*
X146403874Y-92327404D01*
X146436849Y-92355468D01*
X146439346Y-92359680D01*
X146456393Y-92388726D01*
X146495065Y-92447218D01*
X146550282Y-92527688D01*
X146616964Y-92622669D01*
X146646024Y-92663492D01*
X146843998Y-92972697D01*
X146984606Y-93242441D01*
X147040920Y-93359528D01*
X147096232Y-93469520D01*
X147145166Y-93562056D01*
X147182346Y-93626776D01*
X147190857Y-93639882D01*
X147227534Y-93698114D01*
X147249888Y-93742788D01*
X147253083Y-93755216D01*
X147267464Y-93784961D01*
X147302248Y-93825744D01*
X147344894Y-93865712D01*
X147382861Y-93893009D01*
X147402836Y-93896784D01*
X147403382Y-93869910D01*
X147392128Y-93811840D01*
X147371469Y-93734672D01*
X147369348Y-93727593D01*
X147316607Y-93541249D01*
X147292449Y-93446657D01*
X147183423Y-93446657D01*
X147173608Y-93441200D01*
X147147593Y-93401378D01*
X147109271Y-93333720D01*
X147062534Y-93244750D01*
X147059746Y-93239269D01*
X146999401Y-93128770D01*
X146920901Y-92997013D01*
X146833573Y-92859079D01*
X146746747Y-92730047D01*
X146730071Y-92706366D01*
X146660104Y-92606386D01*
X146601591Y-92519852D01*
X146558775Y-92453280D01*
X146535900Y-92413188D01*
X146533507Y-92404558D01*
X146557258Y-92409011D01*
X146612749Y-92429452D01*
X146690607Y-92462236D01*
X146746850Y-92487551D01*
X146836011Y-92527539D01*
X146910602Y-92558982D01*
X146960380Y-92577670D01*
X146974056Y-92581006D01*
X146989266Y-92601723D01*
X147007011Y-92656420D01*
X147023782Y-92733921D01*
X147025887Y-92746163D01*
X147043814Y-92840196D01*
X147069842Y-92959829D01*
X147099876Y-93086765D01*
X147118921Y-93161903D01*
X147145113Y-93265275D01*
X147166132Y-93354375D01*
X147179628Y-93418824D01*
X147183423Y-93446657D01*
X147292449Y-93446657D01*
X147262690Y-93330139D01*
X147212517Y-93114646D01*
X147171004Y-92915156D01*
X147162732Y-92871136D01*
X147122006Y-92648709D01*
X147227410Y-92651595D01*
X147340310Y-92645799D01*
X147414226Y-92620194D01*
X147451840Y-92573402D01*
X147458105Y-92533088D01*
X147443813Y-92463126D01*
X147420936Y-92408896D01*
X147325388Y-92408896D01*
X147321232Y-92464660D01*
X147285856Y-92499917D01*
X147275863Y-92505376D01*
X147213776Y-92528032D01*
X147167657Y-92535110D01*
X147131833Y-92527586D01*
X147118036Y-92495672D01*
X147116563Y-92461410D01*
X147119182Y-92379665D01*
X147122485Y-92334979D01*
X147001918Y-92334979D01*
X147000384Y-92422454D01*
X146989863Y-92474544D01*
X146963840Y-92495198D01*
X146915799Y-92488365D01*
X146839225Y-92457992D01*
X146727601Y-92408027D01*
X146694966Y-92393600D01*
X146604563Y-92352991D01*
X146528984Y-92317305D01*
X146478691Y-92291571D01*
X146465158Y-92283128D01*
X146443289Y-92255842D01*
X146415038Y-92214487D01*
X146335394Y-92214487D01*
X146333431Y-92216522D01*
X146308680Y-92206422D01*
X146254706Y-92179680D01*
X146182194Y-92141632D01*
X146166109Y-92132974D01*
X146055104Y-92064911D01*
X145922009Y-91970565D01*
X145775481Y-91857271D01*
X145624181Y-91732365D01*
X145476768Y-91603182D01*
X145341900Y-91477058D01*
X145228238Y-91361328D01*
X145153870Y-91275478D01*
X145104519Y-91209729D01*
X145078450Y-91159335D01*
X145069301Y-91105052D01*
X145070713Y-91027636D01*
X145070871Y-91024353D01*
X145075747Y-90948175D01*
X145084820Y-90906225D01*
X145103926Y-90887202D01*
X145138899Y-90879802D01*
X145145908Y-90878993D01*
X145211434Y-90886217D01*
X145299757Y-90914832D01*
X145398070Y-90958387D01*
X145493566Y-91010428D01*
X145573438Y-91064503D01*
X145624878Y-91114157D01*
X145630804Y-91123303D01*
X145659542Y-91169594D01*
X145707823Y-91242402D01*
X145768592Y-91331251D01*
X145826649Y-91414177D01*
X145920873Y-91549178D01*
X146012834Y-91684462D01*
X146099287Y-91814893D01*
X146176988Y-91935335D01*
X146242694Y-92040652D01*
X146293159Y-92125707D01*
X146325141Y-92185364D01*
X146335394Y-92214487D01*
X146415038Y-92214487D01*
X146404387Y-92198896D01*
X146354769Y-92121751D01*
X146320496Y-92066458D01*
X146259680Y-91970186D01*
X146181957Y-91851854D01*
X146097193Y-91726263D01*
X146015251Y-91608217D01*
X146012895Y-91604885D01*
X145917473Y-91467811D01*
X145837190Y-91348135D01*
X145774546Y-91249887D01*
X145732041Y-91177095D01*
X145712173Y-91133788D01*
X145713950Y-91123069D01*
X145746264Y-91134529D01*
X145810751Y-91166412D01*
X145900963Y-91214971D01*
X146010450Y-91276459D01*
X146132765Y-91347129D01*
X146261459Y-91423235D01*
X146390084Y-91501029D01*
X146512192Y-91576764D01*
X146621333Y-91646695D01*
X146665732Y-91676099D01*
X147000981Y-91901092D01*
X147000981Y-92208173D01*
X147001918Y-92334979D01*
X147122485Y-92334979D01*
X147125804Y-92290079D01*
X147135060Y-92204121D01*
X147145582Y-92133258D01*
X147156002Y-92088958D01*
X147162082Y-92079840D01*
X147183014Y-92099046D01*
X147214470Y-92148582D01*
X147250436Y-92216328D01*
X147284896Y-92290161D01*
X147311835Y-92357961D01*
X147325235Y-92407607D01*
X147325388Y-92408896D01*
X147420936Y-92408896D01*
X147405485Y-92372270D01*
X147349951Y-92273141D01*
X147284035Y-92178360D01*
X147235468Y-92121460D01*
X147187484Y-92065207D01*
X147168236Y-92022351D01*
X147171142Y-91977507D01*
X147172131Y-91973389D01*
X147210465Y-91884062D01*
X147271984Y-91833782D01*
X147357726Y-91821778D01*
X147374397Y-91823439D01*
X147518568Y-91864136D01*
X147666338Y-91949384D01*
X147816625Y-92078414D01*
X147958716Y-92238300D01*
X148020709Y-92320663D01*
X148054256Y-92378334D01*
X148063255Y-92418709D01*
X148060771Y-92431932D01*
X148051062Y-92476742D01*
X148039639Y-92551648D01*
X148028799Y-92641363D01*
X148027696Y-92651921D01*
X148016918Y-92743186D01*
X148005104Y-92822193D01*
X147994636Y-92873207D01*
X147993709Y-92876309D01*
X147982652Y-92940153D01*
X147977599Y-93031425D01*
X147978630Y-93132380D01*
X147985820Y-93225274D01*
X147992003Y-93264414D01*
X148011566Y-93329277D01*
X148044967Y-93412083D01*
X148072211Y-93469437D01*
X148109545Y-93545859D01*
X148139537Y-93613467D01*
X148152497Y-93648007D01*
X148195638Y-93739875D01*
X148271227Y-93848393D01*
X148372505Y-93967007D01*
X148492709Y-94089163D01*
X148625081Y-94208306D01*
X148762859Y-94317883D01*
X148899284Y-94411339D01*
X148997708Y-94467452D01*
X149052653Y-94492346D01*
X149134491Y-94525564D01*
X149233359Y-94563533D01*
X149339395Y-94602679D01*
X149442738Y-94639429D01*
X149533523Y-94670209D01*
X149601891Y-94691447D01*
X149637977Y-94699567D01*
X149638336Y-94699571D01*
X149642744Y-94679506D01*
X149644952Y-94630152D01*
X149645011Y-94619515D01*
X149633980Y-94566334D01*
X149613121Y-94508548D01*
X149518848Y-94508548D01*
X149515481Y-94552414D01*
X149497676Y-94562890D01*
X149463930Y-94556096D01*
X149397208Y-94537680D01*
X149307705Y-94510589D01*
X149221928Y-94483140D01*
X149050097Y-94421920D01*
X148908144Y-94358460D01*
X148780785Y-94284508D01*
X148652735Y-94191816D01*
X148593157Y-94143730D01*
X148449810Y-94009102D01*
X148344156Y-93871063D01*
X148268811Y-93720020D01*
X148234710Y-93641198D01*
X148197686Y-93567853D01*
X148186772Y-93549059D01*
X148140899Y-93442548D01*
X148112752Y-93309811D01*
X148104541Y-93167463D01*
X148118201Y-93033473D01*
X148136323Y-92930818D01*
X148153668Y-92811851D01*
X148164286Y-92722529D01*
X148174665Y-92639394D01*
X148186290Y-92574790D01*
X148196815Y-92541472D01*
X148197783Y-92540286D01*
X148220725Y-92547990D01*
X148267473Y-92586500D01*
X148333523Y-92650923D01*
X148414371Y-92736368D01*
X148505514Y-92837941D01*
X148602449Y-92950750D01*
X148700671Y-93069904D01*
X148792329Y-93186153D01*
X148891661Y-93321374D01*
X148991379Y-93468257D01*
X149089114Y-93622180D01*
X149182498Y-93778522D01*
X149269164Y-93932660D01*
X149346744Y-94079973D01*
X149412870Y-94215840D01*
X149465175Y-94335640D01*
X149501290Y-94434749D01*
X149518848Y-94508548D01*
X149613121Y-94508548D01*
X149602763Y-94479855D01*
X149554178Y-94366106D01*
X149491043Y-94231117D01*
X149416174Y-94080918D01*
X149332389Y-93921536D01*
X149244901Y-93763227D01*
X149150909Y-93611123D01*
X149031101Y-93438323D01*
X148893360Y-93254791D01*
X148745571Y-93070489D01*
X148595620Y-92895380D01*
X148451391Y-92739427D01*
X148372045Y-92660312D01*
X148203922Y-92498971D01*
X148288885Y-92286614D01*
X148411422Y-92028443D01*
X148558613Y-91806927D01*
X148732963Y-91618904D01*
X148936981Y-91461212D01*
X148950213Y-91452651D01*
X149034310Y-91401998D01*
X149133696Y-91347047D01*
X149238994Y-91292399D01*
X149340828Y-91242657D01*
X149429820Y-91202423D01*
X149496595Y-91176301D01*
X149528845Y-91168630D01*
X149546903Y-91169629D01*
X149561073Y-91176737D01*
X149573123Y-91196123D01*
X149584820Y-91233954D01*
X149597934Y-91296399D01*
X149614233Y-91389625D01*
X149635486Y-91519801D01*
X149643141Y-91567284D01*
X149681520Y-91798774D01*
X149722535Y-92032236D01*
X149767759Y-92275919D01*
X149818764Y-92538068D01*
X149877126Y-92826930D01*
X149944417Y-93150753D01*
X149953951Y-93196074D01*
X150035387Y-93576702D01*
X150110741Y-93915774D01*
X150180938Y-94216752D01*
X150246905Y-94483099D01*
X150309568Y-94718277D01*
X150369851Y-94925748D01*
X150428681Y-95108974D01*
X150486984Y-95271418D01*
X150545684Y-95416542D01*
X150550874Y-95428540D01*
X150596219Y-95534261D01*
X150635893Y-95629455D01*
X150665674Y-95703808D01*
X150681338Y-95747005D01*
X150681473Y-95747464D01*
X150718006Y-95819153D01*
X150777431Y-95889182D01*
X150833148Y-95931458D01*
X150857846Y-95935437D01*
X150883574Y-95914377D01*
X150916856Y-95861429D01*
X150938212Y-95821160D01*
X150983077Y-95725990D01*
X151025573Y-95622709D01*
X151046055Y-95565222D01*
X151076848Y-95481867D01*
X151120165Y-95379197D01*
X151167139Y-95278126D01*
X151171614Y-95269078D01*
X151222973Y-95159221D01*
X151275557Y-95036076D01*
X151317585Y-94927374D01*
X151343741Y-94863578D01*
X151388059Y-94766315D01*
X151447259Y-94642319D01*
X151518061Y-94498321D01*
X151597187Y-94341056D01*
X151681355Y-94177257D01*
X151706235Y-94129501D01*
X151818088Y-93913116D01*
X151910084Y-93729440D01*
X151985297Y-93571815D01*
X152046801Y-93433583D01*
X152097672Y-93308084D01*
X152140983Y-93188660D01*
X152141917Y-93185925D01*
X152249874Y-92869369D01*
X152319166Y-93015636D01*
X152356178Y-93092952D01*
X152406907Y-93197823D01*
X152464898Y-93316953D01*
X152523696Y-93437045D01*
X152528419Y-93446657D01*
X152591578Y-93577233D01*
X152658396Y-93718825D01*
X152720662Y-93853853D01*
X152767765Y-93959213D01*
X152824209Y-94079502D01*
X152891175Y-94208681D01*
X152957603Y-94325826D01*
X152984512Y-94369258D01*
X153037759Y-94456982D01*
X153103384Y-94572729D01*
X153174179Y-94703384D01*
X153242940Y-94835834D01*
X153264358Y-94878511D01*
X153322969Y-94994909D01*
X153377841Y-95101039D01*
X153424396Y-95188253D01*
X153458057Y-95247903D01*
X153469378Y-95265775D01*
X153505205Y-95324202D01*
X153544884Y-95399710D01*
X153558516Y-95428540D01*
X153603642Y-95507377D01*
X153660202Y-95580684D01*
X153678560Y-95599392D01*
X153752005Y-95667733D01*
X153655742Y-95485491D01*
X153610252Y-95398996D01*
X153550422Y-95284699D01*
X153482862Y-95155251D01*
X153414181Y-95023309D01*
X153388014Y-94972935D01*
X153318371Y-94841476D01*
X153244154Y-94705926D01*
X153172812Y-94579614D01*
X153111796Y-94475865D01*
X153093740Y-94446521D01*
X153042253Y-94362866D01*
X153001385Y-94293723D01*
X152976314Y-94248012D01*
X152970930Y-94234870D01*
X152961532Y-94210823D01*
X152935112Y-94151459D01*
X152894335Y-94062551D01*
X152841866Y-93949870D01*
X152780370Y-93819189D01*
X152730190Y-93713391D01*
X152656203Y-93557834D01*
X152582153Y-93402010D01*
X152512424Y-93255161D01*
X152451406Y-93126529D01*
X152403485Y-93025356D01*
X152386436Y-92989287D01*
X152283423Y-92771109D01*
X152313782Y-92668878D01*
X152148075Y-92668878D01*
X152023927Y-93028892D01*
X151979384Y-93155767D01*
X151936661Y-93273318D01*
X151899261Y-93372205D01*
X151870686Y-93443090D01*
X151858857Y-93469037D01*
X151837920Y-93509860D01*
X151799218Y-93585148D01*
X151745859Y-93688864D01*
X151680949Y-93814975D01*
X151607592Y-93957443D01*
X151528895Y-94110234D01*
X151518680Y-94130065D01*
X151437566Y-94289375D01*
X151360305Y-94444586D01*
X151290349Y-94588496D01*
X151231150Y-94713903D01*
X151186160Y-94813608D01*
X151158830Y-94880407D01*
X151158325Y-94881814D01*
X151116359Y-94990843D01*
X151066736Y-95107881D01*
X151023502Y-95200737D01*
X150981366Y-95290082D01*
X150943855Y-95377733D01*
X150920743Y-95439930D01*
X150892601Y-95515693D01*
X150854353Y-95603902D01*
X150835359Y-95643447D01*
X150779012Y-95755842D01*
X150667673Y-95500356D01*
X150621255Y-95383996D01*
X150568631Y-95235682D01*
X150513920Y-95067835D01*
X150461241Y-94892875D01*
X150433846Y-94795256D01*
X150392519Y-94641553D01*
X150351809Y-94486547D01*
X150314637Y-94341621D01*
X150283923Y-94218159D01*
X150263059Y-94129647D01*
X150196024Y-93825863D01*
X150130831Y-93522721D01*
X150068091Y-93223547D01*
X150008412Y-92931669D01*
X149952405Y-92650414D01*
X149900680Y-92383109D01*
X149853846Y-92133081D01*
X149812512Y-91903657D01*
X149777290Y-91698164D01*
X149748787Y-91519930D01*
X149727615Y-91372281D01*
X149714382Y-91258544D01*
X149709699Y-91182047D01*
X149714175Y-91146116D01*
X149715950Y-91144244D01*
X149764255Y-91126562D01*
X149850186Y-91107476D01*
X149965879Y-91088105D01*
X150103469Y-91069567D01*
X150255093Y-91052981D01*
X150412885Y-91039466D01*
X150487881Y-91034436D01*
X150654170Y-91024470D01*
X150782689Y-91017227D01*
X150881137Y-91012564D01*
X150957214Y-91010336D01*
X151018620Y-91010402D01*
X151073055Y-91012616D01*
X151128219Y-91016836D01*
X151178141Y-91021568D01*
X151333065Y-91036805D01*
X151740570Y-91852841D01*
X152148075Y-92668878D01*
X152313782Y-92668878D01*
X152319643Y-92649143D01*
X152336541Y-92563631D01*
X152348366Y-92446010D01*
X152355061Y-92308504D01*
X152356572Y-92163337D01*
X152354511Y-92085571D01*
X152236895Y-92085571D01*
X152235308Y-92151487D01*
X152229323Y-92277381D01*
X152219671Y-92385517D01*
X152207451Y-92465758D01*
X152197376Y-92501275D01*
X152189207Y-92518102D01*
X152180356Y-92527201D01*
X152168755Y-92525039D01*
X152152335Y-92508083D01*
X152129031Y-92472800D01*
X152096775Y-92415655D01*
X152053499Y-92333117D01*
X151997136Y-92221651D01*
X151925619Y-92077724D01*
X151836881Y-91897803D01*
X151797530Y-91817867D01*
X151713636Y-91646835D01*
X151636787Y-91489027D01*
X151569164Y-91349009D01*
X151512950Y-91231350D01*
X151470326Y-91140617D01*
X151443473Y-91081378D01*
X151434573Y-91058200D01*
X151434626Y-91058082D01*
X151458050Y-91060712D01*
X151513149Y-91075132D01*
X151588511Y-91098322D01*
X151596964Y-91101086D01*
X151765904Y-91162588D01*
X151896741Y-91226684D01*
X151996696Y-91300586D01*
X152072992Y-91391504D01*
X152132851Y-91506650D01*
X152183496Y-91653234D01*
X152196740Y-91699910D01*
X152218000Y-91787478D01*
X152230972Y-91871496D01*
X152236867Y-91966136D01*
X152236895Y-92085571D01*
X152354511Y-92085571D01*
X152352844Y-92022732D01*
X152343820Y-91898915D01*
X152329446Y-91804108D01*
X152323568Y-91781432D01*
X152236593Y-91570175D01*
X152112478Y-91384295D01*
X151953064Y-91225585D01*
X151760193Y-91095837D01*
X151535706Y-90996845D01*
X151508315Y-90987634D01*
X151355565Y-90937789D01*
X151346484Y-90921070D01*
X151262410Y-90921070D01*
X151244554Y-90933366D01*
X151215356Y-90928963D01*
X151155783Y-90918914D01*
X151058648Y-90912808D01*
X150931748Y-90910340D01*
X150782885Y-90911206D01*
X150619856Y-90915102D01*
X150450462Y-90921723D01*
X150282502Y-90930766D01*
X150123774Y-90941925D01*
X149982079Y-90954898D01*
X149865216Y-90969379D01*
X149781693Y-90984889D01*
X149724530Y-90998539D01*
X149688371Y-91006422D01*
X149685909Y-91006836D01*
X149671741Y-90988711D01*
X149658595Y-90941387D01*
X149657491Y-90935132D01*
X149612762Y-90597323D01*
X149585378Y-90232381D01*
X149575614Y-89855414D01*
X149583743Y-89481532D01*
X149610042Y-89125842D01*
X149622645Y-89015894D01*
X149650260Y-88809495D01*
X149676393Y-88646797D01*
X149702411Y-88526032D01*
X149729679Y-88445428D01*
X149759563Y-88403217D01*
X149793427Y-88397629D01*
X149832639Y-88426894D01*
X149878562Y-88489241D01*
X149932563Y-88582903D01*
X149942440Y-88601426D01*
X149998871Y-88698866D01*
X150067155Y-88804029D01*
X150115942Y-88871987D01*
X150214811Y-89013572D01*
X150325826Y-89194765D01*
X150446868Y-89411904D01*
X150575816Y-89661330D01*
X150592449Y-89694724D01*
X150658717Y-89824223D01*
X150732443Y-89961714D01*
X150804672Y-90090844D01*
X150866451Y-90195257D01*
X150866843Y-90195890D01*
X150927689Y-90296552D01*
X150993291Y-90409060D01*
X151059641Y-90526070D01*
X151122733Y-90640236D01*
X151178561Y-90744213D01*
X151223117Y-90830657D01*
X151252395Y-90892221D01*
X151262410Y-90921070D01*
X151346484Y-90921070D01*
X151248119Y-90739981D01*
X151191057Y-90637599D01*
X151119850Y-90513734D01*
X151044466Y-90385563D01*
X150987923Y-90291589D01*
X150917742Y-90172202D01*
X150837594Y-90029111D01*
X150757056Y-89879767D01*
X150685705Y-89741622D01*
X150681626Y-89733473D01*
X150574895Y-89523676D01*
X150481837Y-89349847D01*
X150398881Y-89205781D01*
X150322454Y-89085275D01*
X150248983Y-88982126D01*
X150248678Y-88981724D01*
X150186000Y-88893021D01*
X150118844Y-88788712D01*
X150070395Y-88706553D01*
X150010034Y-88609861D01*
X149938150Y-88513016D01*
X149861755Y-88423600D01*
X149787861Y-88349195D01*
X149723478Y-88297384D01*
X149675617Y-88275748D01*
X149671823Y-88275536D01*
X149635044Y-88286890D01*
X149635044Y-88286890D01*
G37*
X149635044Y-88286890D02*
X149603382Y-88323749D01*
X149575409Y-88390308D01*
X149549699Y-88490761D01*
X149524826Y-88629303D01*
X149505247Y-88765311D01*
X149486171Y-88948180D01*
X149472284Y-89165790D01*
X149463584Y-89407621D01*
X149460070Y-89663149D01*
X149461740Y-89921853D01*
X149468591Y-90173211D01*
X149480623Y-90406701D01*
X149497833Y-90611800D01*
X149505572Y-90678854D01*
X149520122Y-90798048D01*
X149531651Y-90900157D01*
X149539327Y-90977176D01*
X149542323Y-91021097D01*
X149541785Y-91028168D01*
X149517062Y-91035442D01*
X149462966Y-91044789D01*
X149436175Y-91048487D01*
X149366107Y-91065291D01*
X149275257Y-91097448D01*
X149182664Y-91138173D01*
X149178016Y-91140468D01*
X148946619Y-91263445D01*
X148753838Y-91385071D01*
X148593339Y-91511434D01*
X148458786Y-91648621D01*
X148343847Y-91802718D01*
X148242188Y-91979814D01*
X148188776Y-92091129D01*
X148154641Y-92170198D01*
X148129712Y-92235164D01*
X148118859Y-92273222D01*
X148118733Y-92275279D01*
X148108321Y-92312220D01*
X148077843Y-92309389D01*
X148028438Y-92267339D01*
X147976241Y-92206074D01*
X147880063Y-92098552D01*
X147758413Y-91984394D01*
X147626755Y-91876967D01*
X147500553Y-91789640D01*
X147480886Y-91777833D01*
X147380151Y-91733210D01*
X147276132Y-91710945D01*
X147181471Y-91712039D01*
X147108814Y-91737494D01*
X147096029Y-91747362D01*
X147060679Y-91789326D01*
X147048061Y-91821398D01*
X147036037Y-91849395D01*
X147027847Y-91852038D01*
X147003327Y-91839928D01*
X146947417Y-91806266D01*
X146866447Y-91755054D01*
X146766746Y-91690293D01*
X146658467Y-91618540D01*
X146514926Y-91524982D01*
X146353103Y-91423460D01*
X146189050Y-91323811D01*
X146038822Y-91235871D01*
X145978238Y-91201758D01*
X145647176Y-91018474D01*
X145589764Y-90932176D01*
X145514397Y-90932176D01*
X145514308Y-90933114D01*
X145491485Y-90927878D01*
X145437439Y-90906981D01*
X145362070Y-90874372D01*
X145327243Y-90858505D01*
X145224641Y-90816699D01*
X145127135Y-90786827D01*
X145043362Y-90770446D01*
X144981960Y-90769116D01*
X144951567Y-90784395D01*
X144949874Y-90790394D01*
X144948664Y-90827568D01*
X144948551Y-90890037D01*
X144948789Y-90913026D01*
X144945176Y-90971843D01*
X144933850Y-90997585D01*
X144928071Y-90996897D01*
X144908022Y-90974465D01*
X144866859Y-90921282D01*
X144809524Y-90843972D01*
X144740958Y-90749160D01*
X144693917Y-90682995D01*
X144509467Y-90392994D01*
X144366841Y-90101966D01*
X144262865Y-89801733D01*
X144194368Y-89484115D01*
X144175813Y-89347058D01*
X144163700Y-89235798D01*
X144157809Y-89160639D01*
X144158488Y-89112503D01*
X144166079Y-89082313D01*
X144180929Y-89060990D01*
X144186910Y-89054907D01*
X144211140Y-89035625D01*
X144234012Y-89036280D01*
X144265698Y-89061820D01*
X144316371Y-89117192D01*
X144317443Y-89118405D01*
X144428078Y-89250276D01*
X144538583Y-89396252D01*
X144654734Y-89564467D01*
X144782307Y-89763053D01*
X144830168Y-89840332D01*
X144912722Y-89973451D01*
X145010952Y-90129905D01*
X145115526Y-90294946D01*
X145217112Y-90453822D01*
X145277200Y-90546922D01*
X145351762Y-90662891D01*
X145416378Y-90765288D01*
X145467431Y-90848225D01*
X145501309Y-90905817D01*
X145514397Y-90932176D01*
X145589764Y-90932176D01*
X145458427Y-90734763D01*
X145378980Y-90614045D01*
X145296743Y-90486881D01*
X145220703Y-90367301D01*
X145159851Y-90269337D01*
X145152617Y-90257419D01*
X144978107Y-89974523D01*
X144818078Y-89727552D01*
X144668631Y-89510743D01*
X144525870Y-89318332D01*
X144467072Y-89243541D01*
X144349578Y-89101836D01*
X144253776Y-88998393D01*
X144177948Y-88932387D01*
X144120371Y-88902996D01*
X144079328Y-88909394D01*
X144053096Y-88950760D01*
X144039957Y-89026270D01*
X144039113Y-89038675D01*
X144042393Y-89241625D01*
X144075620Y-89464684D01*
X144139602Y-89711608D01*
X144235147Y-89986155D01*
X144252119Y-90029616D01*
X144323934Y-90185131D01*
X144423107Y-90361760D01*
X144543416Y-90549821D01*
X144678638Y-90739636D01*
X144822553Y-90921524D01*
X144834408Y-90935623D01*
X144886973Y-91004283D01*
X144925656Y-91066926D01*
X144941643Y-91108316D01*
X144955439Y-91160559D01*
X144983316Y-91229816D01*
X144996492Y-91257115D01*
X145023902Y-91315706D01*
X145062624Y-91404861D01*
X145107585Y-91512631D01*
X145153710Y-91627068D01*
X145155323Y-91631148D01*
X145241052Y-91841906D01*
X145340835Y-92076858D01*
X145448828Y-92322905D01*
X145559184Y-92566949D01*
X145666060Y-92795894D01*
X145763609Y-92996640D01*
X145773469Y-93016337D01*
X145855792Y-93192549D01*
X145930188Y-93375423D01*
X145993783Y-93555989D01*
X146043707Y-93725279D01*
X146077086Y-93874323D01*
X146091047Y-93994153D01*
X146091289Y-94008712D01*
X146081803Y-94101823D01*
X146056694Y-94210835D01*
X146020987Y-94320242D01*
X145979707Y-94414535D01*
X145939879Y-94476018D01*
X145853990Y-94541542D01*
X145734306Y-94589944D01*
X145589413Y-94620823D01*
X145427900Y-94633772D01*
X145258354Y-94628388D01*
X145089362Y-94604267D01*
X144929512Y-94561004D01*
X144845584Y-94527535D01*
X144761262Y-94485038D01*
X144703160Y-94447411D01*
X144679138Y-94419832D01*
X144678913Y-94417767D01*
X144662303Y-94381233D01*
X144622118Y-94339303D01*
X144619969Y-94337590D01*
X144588509Y-94318136D01*
X144548435Y-94305622D01*
X144494127Y-94300316D01*
X144419962Y-94302488D01*
X144320319Y-94312408D01*
X144189578Y-94330345D01*
X144022116Y-94356570D01*
X143938554Y-94370273D01*
X143763369Y-94397509D01*
X143607736Y-94417134D01*
X143458933Y-94429940D01*
X143304237Y-94436720D01*
X143130923Y-94438267D01*
X142926270Y-94435372D01*
X142902052Y-94434834D01*
X142751477Y-94431627D01*
X142608036Y-94428996D01*
X142481090Y-94427079D01*
X142380006Y-94426017D01*
X142314145Y-94425950D01*
X142309765Y-94426004D01*
X142211273Y-94420065D01*
X142108335Y-94402942D01*
X142070572Y-94393099D01*
X142005518Y-94373518D01*
X141961654Y-94360807D01*
X141950975Y-94358114D01*
X141946234Y-94376937D01*
X141945280Y-94400360D01*
X141938768Y-94426414D01*
X141911523Y-94436678D01*
X141851983Y-94435063D01*
X141844482Y-94434456D01*
X141764789Y-94420327D01*
X141653597Y-94390423D01*
X141520668Y-94348297D01*
X141375760Y-94297503D01*
X141228632Y-94241595D01*
X141089045Y-94184127D01*
X140966757Y-94128653D01*
X140878150Y-94082564D01*
X140793264Y-94034946D01*
X140722827Y-93997397D01*
X140676318Y-93974863D01*
X140663637Y-93970603D01*
X140615333Y-93952686D01*
X140551214Y-93904268D01*
X140479831Y-93833344D01*
X140409734Y-93747913D01*
X140379630Y-93704971D01*
X140320375Y-93619440D01*
X140259802Y-93538451D01*
X140209984Y-93478069D01*
X140205374Y-93473048D01*
X140144653Y-93421800D01*
X140055771Y-93363067D01*
X139953291Y-93305197D01*
X139851774Y-93256539D01*
X139781333Y-93229945D01*
X139741878Y-93222139D01*
X139737822Y-93232868D01*
X139764694Y-93258613D01*
X139818024Y-93295859D01*
X139893343Y-93341087D01*
X139984940Y-93390151D01*
X140078150Y-93439008D01*
X140142978Y-93479815D01*
X140192225Y-93524006D01*
X140238694Y-93583016D01*
X140293661Y-93665912D01*
X140415286Y-93826159D01*
X140558825Y-93958748D01*
X140733712Y-94071737D01*
X140820925Y-94116314D01*
X140913275Y-94162440D01*
X141002821Y-94210259D01*
X141070395Y-94249527D01*
X141071151Y-94250003D01*
X141137711Y-94284510D01*
X141236685Y-94326465D01*
X141357981Y-94372508D01*
X141491504Y-94419278D01*
X141627163Y-94463415D01*
X141754863Y-94501558D01*
X141864512Y-94530348D01*
X141946016Y-94546424D01*
X141967739Y-94548511D01*
X142039772Y-94548135D01*
X142074966Y-94537463D01*
X142081962Y-94521605D01*
X142097160Y-94499809D01*
X142135695Y-94503096D01*
X142191050Y-94511251D01*
X142284761Y-94518687D01*
X142409626Y-94525289D01*
X142558443Y-94530945D01*
X142724012Y-94535541D01*
X142899132Y-94538965D01*
X143076601Y-94541103D01*
X143249218Y-94541842D01*
X143409781Y-94541069D01*
X143551091Y-94538671D01*
X143665945Y-94534534D01*
X143747142Y-94528546D01*
X143748126Y-94528435D01*
X143821663Y-94518882D01*
X143924909Y-94503938D01*
X144042659Y-94485859D01*
X144132186Y-94471461D01*
X144283255Y-94447278D01*
X144396808Y-94431429D01*
X144480136Y-94424008D01*
X144540531Y-94425106D01*
X144585286Y-94434816D01*
X144621692Y-94453229D01*
X144654234Y-94478066D01*
X144709696Y-94517163D01*
X144791092Y-94565596D01*
X144882740Y-94614156D01*
X144902200Y-94623690D01*
X145064045Y-94685120D01*
X145244631Y-94725726D01*
X145433018Y-94745203D01*
X145618268Y-94743251D01*
X145789439Y-94719567D01*
X145935594Y-94673850D01*
X145977388Y-94653373D01*
X146068295Y-94586166D01*
X146133687Y-94495595D01*
X146176155Y-94375977D01*
X146198287Y-94221627D01*
X146201604Y-94161196D01*
X146194306Y-93968633D01*
X146157111Y-93766530D01*
X146088418Y-93548992D01*
X145986628Y-93310121D01*
X145950119Y-93234871D01*
X145864290Y-93057664D01*
X145766495Y-92847927D01*
X145661172Y-92615635D01*
X145552762Y-92370762D01*
X145445702Y-92123283D01*
X145344432Y-91883172D01*
X145292445Y-91756973D01*
X145239745Y-91628778D01*
X145190234Y-91510150D01*
X145147543Y-91409655D01*
X145115304Y-91335856D01*
X145099264Y-91301368D01*
X145082638Y-91265680D01*
X145083989Y-91256416D01*
X145107272Y-91275804D01*
X145156444Y-91326069D01*
X145171809Y-91342209D01*
X145302895Y-91474508D01*
X145449412Y-91612658D01*
X145604571Y-91751046D01*
X145761587Y-91884060D01*
X145913672Y-92006084D01*
X146054040Y-92111507D01*
X146175902Y-92194714D01*
X146265066Y-92246429D01*
X146342993Y-92288706D01*
X146403874Y-92327404D01*
X146436849Y-92355468D01*
X146439346Y-92359680D01*
X146456393Y-92388726D01*
X146495065Y-92447218D01*
X146550282Y-92527688D01*
X146616964Y-92622669D01*
X146646024Y-92663492D01*
X146843998Y-92972697D01*
X146984606Y-93242441D01*
X147040920Y-93359528D01*
X147096232Y-93469520D01*
X147145166Y-93562056D01*
X147182346Y-93626776D01*
X147190857Y-93639882D01*
X147227534Y-93698114D01*
X147249888Y-93742788D01*
X147253083Y-93755216D01*
X147267464Y-93784961D01*
X147302248Y-93825744D01*
X147344894Y-93865712D01*
X147382861Y-93893009D01*
X147402836Y-93896784D01*
X147403382Y-93869910D01*
X147392128Y-93811840D01*
X147371469Y-93734672D01*
X147369348Y-93727593D01*
X147316607Y-93541249D01*
X147292449Y-93446657D01*
X147183423Y-93446657D01*
X147173608Y-93441200D01*
X147147593Y-93401378D01*
X147109271Y-93333720D01*
X147062534Y-93244750D01*
X147059746Y-93239269D01*
X146999401Y-93128770D01*
X146920901Y-92997013D01*
X146833573Y-92859079D01*
X146746747Y-92730047D01*
X146730071Y-92706366D01*
X146660104Y-92606386D01*
X146601591Y-92519852D01*
X146558775Y-92453280D01*
X146535900Y-92413188D01*
X146533507Y-92404558D01*
X146557258Y-92409011D01*
X146612749Y-92429452D01*
X146690607Y-92462236D01*
X146746850Y-92487551D01*
X146836011Y-92527539D01*
X146910602Y-92558982D01*
X146960380Y-92577670D01*
X146974056Y-92581006D01*
X146989266Y-92601723D01*
X147007011Y-92656420D01*
X147023782Y-92733921D01*
X147025887Y-92746163D01*
X147043814Y-92840196D01*
X147069842Y-92959829D01*
X147099876Y-93086765D01*
X147118921Y-93161903D01*
X147145113Y-93265275D01*
X147166132Y-93354375D01*
X147179628Y-93418824D01*
X147183423Y-93446657D01*
X147292449Y-93446657D01*
X147262690Y-93330139D01*
X147212517Y-93114646D01*
X147171004Y-92915156D01*
X147162732Y-92871136D01*
X147122006Y-92648709D01*
X147227410Y-92651595D01*
X147340310Y-92645799D01*
X147414226Y-92620194D01*
X147451840Y-92573402D01*
X147458105Y-92533088D01*
X147443813Y-92463126D01*
X147420936Y-92408896D01*
X147325388Y-92408896D01*
X147321232Y-92464660D01*
X147285856Y-92499917D01*
X147275863Y-92505376D01*
X147213776Y-92528032D01*
X147167657Y-92535110D01*
X147131833Y-92527586D01*
X147118036Y-92495672D01*
X147116563Y-92461410D01*
X147119182Y-92379665D01*
X147122485Y-92334979D01*
X147001918Y-92334979D01*
X147000384Y-92422454D01*
X146989863Y-92474544D01*
X146963840Y-92495198D01*
X146915799Y-92488365D01*
X146839225Y-92457992D01*
X146727601Y-92408027D01*
X146694966Y-92393600D01*
X146604563Y-92352991D01*
X146528984Y-92317305D01*
X146478691Y-92291571D01*
X146465158Y-92283128D01*
X146443289Y-92255842D01*
X146415038Y-92214487D01*
X146335394Y-92214487D01*
X146333431Y-92216522D01*
X146308680Y-92206422D01*
X146254706Y-92179680D01*
X146182194Y-92141632D01*
X146166109Y-92132974D01*
X146055104Y-92064911D01*
X145922009Y-91970565D01*
X145775481Y-91857271D01*
X145624181Y-91732365D01*
X145476768Y-91603182D01*
X145341900Y-91477058D01*
X145228238Y-91361328D01*
X145153870Y-91275478D01*
X145104519Y-91209729D01*
X145078450Y-91159335D01*
X145069301Y-91105052D01*
X145070713Y-91027636D01*
X145070871Y-91024353D01*
X145075747Y-90948175D01*
X145084820Y-90906225D01*
X145103926Y-90887202D01*
X145138899Y-90879802D01*
X145145908Y-90878993D01*
X145211434Y-90886217D01*
X145299757Y-90914832D01*
X145398070Y-90958387D01*
X145493566Y-91010428D01*
X145573438Y-91064503D01*
X145624878Y-91114157D01*
X145630804Y-91123303D01*
X145659542Y-91169594D01*
X145707823Y-91242402D01*
X145768592Y-91331251D01*
X145826649Y-91414177D01*
X145920873Y-91549178D01*
X146012834Y-91684462D01*
X146099287Y-91814893D01*
X146176988Y-91935335D01*
X146242694Y-92040652D01*
X146293159Y-92125707D01*
X146325141Y-92185364D01*
X146335394Y-92214487D01*
X146415038Y-92214487D01*
X146404387Y-92198896D01*
X146354769Y-92121751D01*
X146320496Y-92066458D01*
X146259680Y-91970186D01*
X146181957Y-91851854D01*
X146097193Y-91726263D01*
X146015251Y-91608217D01*
X146012895Y-91604885D01*
X145917473Y-91467811D01*
X145837190Y-91348135D01*
X145774546Y-91249887D01*
X145732041Y-91177095D01*
X145712173Y-91133788D01*
X145713950Y-91123069D01*
X145746264Y-91134529D01*
X145810751Y-91166412D01*
X145900963Y-91214971D01*
X146010450Y-91276459D01*
X146132765Y-91347129D01*
X146261459Y-91423235D01*
X146390084Y-91501029D01*
X146512192Y-91576764D01*
X146621333Y-91646695D01*
X146665732Y-91676099D01*
X147000981Y-91901092D01*
X147000981Y-92208173D01*
X147001918Y-92334979D01*
X147122485Y-92334979D01*
X147125804Y-92290079D01*
X147135060Y-92204121D01*
X147145582Y-92133258D01*
X147156002Y-92088958D01*
X147162082Y-92079840D01*
X147183014Y-92099046D01*
X147214470Y-92148582D01*
X147250436Y-92216328D01*
X147284896Y-92290161D01*
X147311835Y-92357961D01*
X147325235Y-92407607D01*
X147325388Y-92408896D01*
X147420936Y-92408896D01*
X147405485Y-92372270D01*
X147349951Y-92273141D01*
X147284035Y-92178360D01*
X147235468Y-92121460D01*
X147187484Y-92065207D01*
X147168236Y-92022351D01*
X147171142Y-91977507D01*
X147172131Y-91973389D01*
X147210465Y-91884062D01*
X147271984Y-91833782D01*
X147357726Y-91821778D01*
X147374397Y-91823439D01*
X147518568Y-91864136D01*
X147666338Y-91949384D01*
X147816625Y-92078414D01*
X147958716Y-92238300D01*
X148020709Y-92320663D01*
X148054256Y-92378334D01*
X148063255Y-92418709D01*
X148060771Y-92431932D01*
X148051062Y-92476742D01*
X148039639Y-92551648D01*
X148028799Y-92641363D01*
X148027696Y-92651921D01*
X148016918Y-92743186D01*
X148005104Y-92822193D01*
X147994636Y-92873207D01*
X147993709Y-92876309D01*
X147982652Y-92940153D01*
X147977599Y-93031425D01*
X147978630Y-93132380D01*
X147985820Y-93225274D01*
X147992003Y-93264414D01*
X148011566Y-93329277D01*
X148044967Y-93412083D01*
X148072211Y-93469437D01*
X148109545Y-93545859D01*
X148139537Y-93613467D01*
X148152497Y-93648007D01*
X148195638Y-93739875D01*
X148271227Y-93848393D01*
X148372505Y-93967007D01*
X148492709Y-94089163D01*
X148625081Y-94208306D01*
X148762859Y-94317883D01*
X148899284Y-94411339D01*
X148997708Y-94467452D01*
X149052653Y-94492346D01*
X149134491Y-94525564D01*
X149233359Y-94563533D01*
X149339395Y-94602679D01*
X149442738Y-94639429D01*
X149533523Y-94670209D01*
X149601891Y-94691447D01*
X149637977Y-94699567D01*
X149638336Y-94699571D01*
X149642744Y-94679506D01*
X149644952Y-94630152D01*
X149645011Y-94619515D01*
X149633980Y-94566334D01*
X149613121Y-94508548D01*
X149518848Y-94508548D01*
X149515481Y-94552414D01*
X149497676Y-94562890D01*
X149463930Y-94556096D01*
X149397208Y-94537680D01*
X149307705Y-94510589D01*
X149221928Y-94483140D01*
X149050097Y-94421920D01*
X148908144Y-94358460D01*
X148780785Y-94284508D01*
X148652735Y-94191816D01*
X148593157Y-94143730D01*
X148449810Y-94009102D01*
X148344156Y-93871063D01*
X148268811Y-93720020D01*
X148234710Y-93641198D01*
X148197686Y-93567853D01*
X148186772Y-93549059D01*
X148140899Y-93442548D01*
X148112752Y-93309811D01*
X148104541Y-93167463D01*
X148118201Y-93033473D01*
X148136323Y-92930818D01*
X148153668Y-92811851D01*
X148164286Y-92722529D01*
X148174665Y-92639394D01*
X148186290Y-92574790D01*
X148196815Y-92541472D01*
X148197783Y-92540286D01*
X148220725Y-92547990D01*
X148267473Y-92586500D01*
X148333523Y-92650923D01*
X148414371Y-92736368D01*
X148505514Y-92837941D01*
X148602449Y-92950750D01*
X148700671Y-93069904D01*
X148792329Y-93186153D01*
X148891661Y-93321374D01*
X148991379Y-93468257D01*
X149089114Y-93622180D01*
X149182498Y-93778522D01*
X149269164Y-93932660D01*
X149346744Y-94079973D01*
X149412870Y-94215840D01*
X149465175Y-94335640D01*
X149501290Y-94434749D01*
X149518848Y-94508548D01*
X149613121Y-94508548D01*
X149602763Y-94479855D01*
X149554178Y-94366106D01*
X149491043Y-94231117D01*
X149416174Y-94080918D01*
X149332389Y-93921536D01*
X149244901Y-93763227D01*
X149150909Y-93611123D01*
X149031101Y-93438323D01*
X148893360Y-93254791D01*
X148745571Y-93070489D01*
X148595620Y-92895380D01*
X148451391Y-92739427D01*
X148372045Y-92660312D01*
X148203922Y-92498971D01*
X148288885Y-92286614D01*
X148411422Y-92028443D01*
X148558613Y-91806927D01*
X148732963Y-91618904D01*
X148936981Y-91461212D01*
X148950213Y-91452651D01*
X149034310Y-91401998D01*
X149133696Y-91347047D01*
X149238994Y-91292399D01*
X149340828Y-91242657D01*
X149429820Y-91202423D01*
X149496595Y-91176301D01*
X149528845Y-91168630D01*
X149546903Y-91169629D01*
X149561073Y-91176737D01*
X149573123Y-91196123D01*
X149584820Y-91233954D01*
X149597934Y-91296399D01*
X149614233Y-91389625D01*
X149635486Y-91519801D01*
X149643141Y-91567284D01*
X149681520Y-91798774D01*
X149722535Y-92032236D01*
X149767759Y-92275919D01*
X149818764Y-92538068D01*
X149877126Y-92826930D01*
X149944417Y-93150753D01*
X149953951Y-93196074D01*
X150035387Y-93576702D01*
X150110741Y-93915774D01*
X150180938Y-94216752D01*
X150246905Y-94483099D01*
X150309568Y-94718277D01*
X150369851Y-94925748D01*
X150428681Y-95108974D01*
X150486984Y-95271418D01*
X150545684Y-95416542D01*
X150550874Y-95428540D01*
X150596219Y-95534261D01*
X150635893Y-95629455D01*
X150665674Y-95703808D01*
X150681338Y-95747005D01*
X150681473Y-95747464D01*
X150718006Y-95819153D01*
X150777431Y-95889182D01*
X150833148Y-95931458D01*
X150857846Y-95935437D01*
X150883574Y-95914377D01*
X150916856Y-95861429D01*
X150938212Y-95821160D01*
X150983077Y-95725990D01*
X151025573Y-95622709D01*
X151046055Y-95565222D01*
X151076848Y-95481867D01*
X151120165Y-95379197D01*
X151167139Y-95278126D01*
X151171614Y-95269078D01*
X151222973Y-95159221D01*
X151275557Y-95036076D01*
X151317585Y-94927374D01*
X151343741Y-94863578D01*
X151388059Y-94766315D01*
X151447259Y-94642319D01*
X151518061Y-94498321D01*
X151597187Y-94341056D01*
X151681355Y-94177257D01*
X151706235Y-94129501D01*
X151818088Y-93913116D01*
X151910084Y-93729440D01*
X151985297Y-93571815D01*
X152046801Y-93433583D01*
X152097672Y-93308084D01*
X152140983Y-93188660D01*
X152141917Y-93185925D01*
X152249874Y-92869369D01*
X152319166Y-93015636D01*
X152356178Y-93092952D01*
X152406907Y-93197823D01*
X152464898Y-93316953D01*
X152523696Y-93437045D01*
X152528419Y-93446657D01*
X152591578Y-93577233D01*
X152658396Y-93718825D01*
X152720662Y-93853853D01*
X152767765Y-93959213D01*
X152824209Y-94079502D01*
X152891175Y-94208681D01*
X152957603Y-94325826D01*
X152984512Y-94369258D01*
X153037759Y-94456982D01*
X153103384Y-94572729D01*
X153174179Y-94703384D01*
X153242940Y-94835834D01*
X153264358Y-94878511D01*
X153322969Y-94994909D01*
X153377841Y-95101039D01*
X153424396Y-95188253D01*
X153458057Y-95247903D01*
X153469378Y-95265775D01*
X153505205Y-95324202D01*
X153544884Y-95399710D01*
X153558516Y-95428540D01*
X153603642Y-95507377D01*
X153660202Y-95580684D01*
X153678560Y-95599392D01*
X153752005Y-95667733D01*
X153655742Y-95485491D01*
X153610252Y-95398996D01*
X153550422Y-95284699D01*
X153482862Y-95155251D01*
X153414181Y-95023309D01*
X153388014Y-94972935D01*
X153318371Y-94841476D01*
X153244154Y-94705926D01*
X153172812Y-94579614D01*
X153111796Y-94475865D01*
X153093740Y-94446521D01*
X153042253Y-94362866D01*
X153001385Y-94293723D01*
X152976314Y-94248012D01*
X152970930Y-94234870D01*
X152961532Y-94210823D01*
X152935112Y-94151459D01*
X152894335Y-94062551D01*
X152841866Y-93949870D01*
X152780370Y-93819189D01*
X152730190Y-93713391D01*
X152656203Y-93557834D01*
X152582153Y-93402010D01*
X152512424Y-93255161D01*
X152451406Y-93126529D01*
X152403485Y-93025356D01*
X152386436Y-92989287D01*
X152283423Y-92771109D01*
X152313782Y-92668878D01*
X152148075Y-92668878D01*
X152023927Y-93028892D01*
X151979384Y-93155767D01*
X151936661Y-93273318D01*
X151899261Y-93372205D01*
X151870686Y-93443090D01*
X151858857Y-93469037D01*
X151837920Y-93509860D01*
X151799218Y-93585148D01*
X151745859Y-93688864D01*
X151680949Y-93814975D01*
X151607592Y-93957443D01*
X151528895Y-94110234D01*
X151518680Y-94130065D01*
X151437566Y-94289375D01*
X151360305Y-94444586D01*
X151290349Y-94588496D01*
X151231150Y-94713903D01*
X151186160Y-94813608D01*
X151158830Y-94880407D01*
X151158325Y-94881814D01*
X151116359Y-94990843D01*
X151066736Y-95107881D01*
X151023502Y-95200737D01*
X150981366Y-95290082D01*
X150943855Y-95377733D01*
X150920743Y-95439930D01*
X150892601Y-95515693D01*
X150854353Y-95603902D01*
X150835359Y-95643447D01*
X150779012Y-95755842D01*
X150667673Y-95500356D01*
X150621255Y-95383996D01*
X150568631Y-95235682D01*
X150513920Y-95067835D01*
X150461241Y-94892875D01*
X150433846Y-94795256D01*
X150392519Y-94641553D01*
X150351809Y-94486547D01*
X150314637Y-94341621D01*
X150283923Y-94218159D01*
X150263059Y-94129647D01*
X150196024Y-93825863D01*
X150130831Y-93522721D01*
X150068091Y-93223547D01*
X150008412Y-92931669D01*
X149952405Y-92650414D01*
X149900680Y-92383109D01*
X149853846Y-92133081D01*
X149812512Y-91903657D01*
X149777290Y-91698164D01*
X149748787Y-91519930D01*
X149727615Y-91372281D01*
X149714382Y-91258544D01*
X149709699Y-91182047D01*
X149714175Y-91146116D01*
X149715950Y-91144244D01*
X149764255Y-91126562D01*
X149850186Y-91107476D01*
X149965879Y-91088105D01*
X150103469Y-91069567D01*
X150255093Y-91052981D01*
X150412885Y-91039466D01*
X150487881Y-91034436D01*
X150654170Y-91024470D01*
X150782689Y-91017227D01*
X150881137Y-91012564D01*
X150957214Y-91010336D01*
X151018620Y-91010402D01*
X151073055Y-91012616D01*
X151128219Y-91016836D01*
X151178141Y-91021568D01*
X151333065Y-91036805D01*
X151740570Y-91852841D01*
X152148075Y-92668878D01*
X152313782Y-92668878D01*
X152319643Y-92649143D01*
X152336541Y-92563631D01*
X152348366Y-92446010D01*
X152355061Y-92308504D01*
X152356572Y-92163337D01*
X152354511Y-92085571D01*
X152236895Y-92085571D01*
X152235308Y-92151487D01*
X152229323Y-92277381D01*
X152219671Y-92385517D01*
X152207451Y-92465758D01*
X152197376Y-92501275D01*
X152189207Y-92518102D01*
X152180356Y-92527201D01*
X152168755Y-92525039D01*
X152152335Y-92508083D01*
X152129031Y-92472800D01*
X152096775Y-92415655D01*
X152053499Y-92333117D01*
X151997136Y-92221651D01*
X151925619Y-92077724D01*
X151836881Y-91897803D01*
X151797530Y-91817867D01*
X151713636Y-91646835D01*
X151636787Y-91489027D01*
X151569164Y-91349009D01*
X151512950Y-91231350D01*
X151470326Y-91140617D01*
X151443473Y-91081378D01*
X151434573Y-91058200D01*
X151434626Y-91058082D01*
X151458050Y-91060712D01*
X151513149Y-91075132D01*
X151588511Y-91098322D01*
X151596964Y-91101086D01*
X151765904Y-91162588D01*
X151896741Y-91226684D01*
X151996696Y-91300586D01*
X152072992Y-91391504D01*
X152132851Y-91506650D01*
X152183496Y-91653234D01*
X152196740Y-91699910D01*
X152218000Y-91787478D01*
X152230972Y-91871496D01*
X152236867Y-91966136D01*
X152236895Y-92085571D01*
X152354511Y-92085571D01*
X152352844Y-92022732D01*
X152343820Y-91898915D01*
X152329446Y-91804108D01*
X152323568Y-91781432D01*
X152236593Y-91570175D01*
X152112478Y-91384295D01*
X151953064Y-91225585D01*
X151760193Y-91095837D01*
X151535706Y-90996845D01*
X151508315Y-90987634D01*
X151355565Y-90937789D01*
X151346484Y-90921070D01*
X151262410Y-90921070D01*
X151244554Y-90933366D01*
X151215356Y-90928963D01*
X151155783Y-90918914D01*
X151058648Y-90912808D01*
X150931748Y-90910340D01*
X150782885Y-90911206D01*
X150619856Y-90915102D01*
X150450462Y-90921723D01*
X150282502Y-90930766D01*
X150123774Y-90941925D01*
X149982079Y-90954898D01*
X149865216Y-90969379D01*
X149781693Y-90984889D01*
X149724530Y-90998539D01*
X149688371Y-91006422D01*
X149685909Y-91006836D01*
X149671741Y-90988711D01*
X149658595Y-90941387D01*
X149657491Y-90935132D01*
X149612762Y-90597323D01*
X149585378Y-90232381D01*
X149575614Y-89855414D01*
X149583743Y-89481532D01*
X149610042Y-89125842D01*
X149622645Y-89015894D01*
X149650260Y-88809495D01*
X149676393Y-88646797D01*
X149702411Y-88526032D01*
X149729679Y-88445428D01*
X149759563Y-88403217D01*
X149793427Y-88397629D01*
X149832639Y-88426894D01*
X149878562Y-88489241D01*
X149932563Y-88582903D01*
X149942440Y-88601426D01*
X149998871Y-88698866D01*
X150067155Y-88804029D01*
X150115942Y-88871987D01*
X150214811Y-89013572D01*
X150325826Y-89194765D01*
X150446868Y-89411904D01*
X150575816Y-89661330D01*
X150592449Y-89694724D01*
X150658717Y-89824223D01*
X150732443Y-89961714D01*
X150804672Y-90090844D01*
X150866451Y-90195257D01*
X150866843Y-90195890D01*
X150927689Y-90296552D01*
X150993291Y-90409060D01*
X151059641Y-90526070D01*
X151122733Y-90640236D01*
X151178561Y-90744213D01*
X151223117Y-90830657D01*
X151252395Y-90892221D01*
X151262410Y-90921070D01*
X151346484Y-90921070D01*
X151248119Y-90739981D01*
X151191057Y-90637599D01*
X151119850Y-90513734D01*
X151044466Y-90385563D01*
X150987923Y-90291589D01*
X150917742Y-90172202D01*
X150837594Y-90029111D01*
X150757056Y-89879767D01*
X150685705Y-89741622D01*
X150681626Y-89733473D01*
X150574895Y-89523676D01*
X150481837Y-89349847D01*
X150398881Y-89205781D01*
X150322454Y-89085275D01*
X150248983Y-88982126D01*
X150248678Y-88981724D01*
X150186000Y-88893021D01*
X150118844Y-88788712D01*
X150070395Y-88706553D01*
X150010034Y-88609861D01*
X149938150Y-88513016D01*
X149861755Y-88423600D01*
X149787861Y-88349195D01*
X149723478Y-88297384D01*
X149675617Y-88275748D01*
X149671823Y-88275536D01*
X149635044Y-88286890D01*
D12*
X183171500Y-96064000D02*
X187743500Y-96064000D01*
X189521500Y-96572000D02*
X181621500Y-96572000D01*
X189521500Y-96572000D02*
X189521500Y-88672000D01*
X183171500Y-96572000D02*
X183171500Y-96064000D01*
X187743500Y-96064000D02*
X187743500Y-96572000D01*
X190029500Y-94872000D02*
X189521500Y-94872000D01*
X190029500Y-90300000D02*
X190029500Y-94872000D01*
X181621500Y-96572000D02*
X181621500Y-88672000D01*
X189521500Y-90300000D02*
X190029500Y-90300000D01*
X183171500Y-88671400D02*
X183171500Y-88163400D01*
X187743500Y-88163400D02*
X187743500Y-88671400D01*
X189521500Y-88672000D02*
X181621500Y-88672000D01*
X183171500Y-88163400D02*
X187743500Y-88163400D01*
X189521500Y-80772000D02*
X181621500Y-80772000D01*
X190029500Y-86995000D02*
X189521500Y-86995000D01*
X190029500Y-82423000D02*
X190029500Y-86995000D01*
X189521500Y-82423000D02*
X190029500Y-82423000D01*
X183171500Y-80264000D02*
X187743500Y-80264000D01*
X187743500Y-80264000D02*
X187743500Y-80772000D01*
X183171500Y-80772000D02*
X183171500Y-80264000D01*
X181621500Y-88672000D02*
X181621500Y-80772000D01*
X189521500Y-88672000D02*
X189521500Y-80772000D01*
X122021000Y-96088500D02*
X126593000Y-96088500D01*
X128371000Y-96596500D02*
X120471000Y-96596500D01*
X128371000Y-96596500D02*
X128371000Y-88696500D01*
X122021000Y-96596500D02*
X122021000Y-96088500D01*
X126593000Y-96088500D02*
X126593000Y-96596500D01*
X128879000Y-94896500D02*
X128371000Y-94896500D01*
X128879000Y-90324500D02*
X128879000Y-94896500D01*
X120471000Y-96596500D02*
X120471000Y-88696500D01*
X128371000Y-90324500D02*
X128879000Y-90324500D01*
X122021000Y-88695900D02*
X122021000Y-88187900D01*
X126593000Y-88187900D02*
X126593000Y-88695900D01*
X128371000Y-88696500D02*
X120471000Y-88696500D01*
X122021000Y-88187900D02*
X126593000Y-88187900D01*
X128371000Y-80796500D02*
X120471000Y-80796500D01*
X128879000Y-87019500D02*
X128371000Y-87019500D01*
X128879000Y-82447500D02*
X128879000Y-87019500D01*
X128371000Y-82447500D02*
X128879000Y-82447500D01*
X122021000Y-80288500D02*
X126593000Y-80288500D01*
X126593000Y-80288500D02*
X126593000Y-80796500D01*
X122021000Y-80796500D02*
X122021000Y-80288500D01*
X120471000Y-88696500D02*
X120471000Y-80796500D01*
X128371000Y-88696500D02*
X128371000Y-80796500D01*
X180824142Y-81255690D02*
X180871761Y-81208071D01*
X180919380Y-81065214D01*
X180919380Y-80969976D01*
X180871761Y-80827119D01*
X180776523Y-80731880D01*
X180681285Y-80684261D01*
X180490809Y-80636642D01*
X180347952Y-80636642D01*
X180157476Y-80684261D01*
X180062238Y-80731880D01*
X179967000Y-80827119D01*
X179919380Y-80969976D01*
X179919380Y-81065214D01*
X179967000Y-81208071D01*
X180014619Y-81255690D01*
X180919380Y-81827119D02*
X180871761Y-81731880D01*
X180824142Y-81684261D01*
X180728904Y-81636642D01*
X180443190Y-81636642D01*
X180347952Y-81684261D01*
X180300333Y-81731880D01*
X180252714Y-81827119D01*
X180252714Y-81969976D01*
X180300333Y-82065214D01*
X180347952Y-82112833D01*
X180443190Y-82160452D01*
X180728904Y-82160452D01*
X180824142Y-82112833D01*
X180871761Y-82065214D01*
X180919380Y-81969976D01*
X180919380Y-81827119D01*
X180252714Y-82589023D02*
X180919380Y-82589023D01*
X180347952Y-82589023D02*
X180300333Y-82636642D01*
X180252714Y-82731880D01*
X180252714Y-82874738D01*
X180300333Y-82969976D01*
X180395571Y-83017595D01*
X180919380Y-83017595D01*
X180252714Y-83493785D02*
X180919380Y-83493785D01*
X180347952Y-83493785D02*
X180300333Y-83541404D01*
X180252714Y-83636642D01*
X180252714Y-83779500D01*
X180300333Y-83874738D01*
X180395571Y-83922357D01*
X180919380Y-83922357D01*
X180014619Y-84350928D02*
X179967000Y-84398547D01*
X179919380Y-84493785D01*
X179919380Y-84731880D01*
X179967000Y-84827119D01*
X180014619Y-84874738D01*
X180109857Y-84922357D01*
X180205095Y-84922357D01*
X180347952Y-84874738D01*
X180919380Y-84303309D01*
X180919380Y-84922357D01*
X130024142Y-81470690D02*
X130071761Y-81423071D01*
X130119380Y-81280214D01*
X130119380Y-81184976D01*
X130071761Y-81042119D01*
X129976523Y-80946880D01*
X129881285Y-80899261D01*
X129690809Y-80851642D01*
X129547952Y-80851642D01*
X129357476Y-80899261D01*
X129262238Y-80946880D01*
X129167000Y-81042119D01*
X129119380Y-81184976D01*
X129119380Y-81280214D01*
X129167000Y-81423071D01*
X129214619Y-81470690D01*
X130119380Y-82042119D02*
X130071761Y-81946880D01*
X130024142Y-81899261D01*
X129928904Y-81851642D01*
X129643190Y-81851642D01*
X129547952Y-81899261D01*
X129500333Y-81946880D01*
X129452714Y-82042119D01*
X129452714Y-82184976D01*
X129500333Y-82280214D01*
X129547952Y-82327833D01*
X129643190Y-82375452D01*
X129928904Y-82375452D01*
X130024142Y-82327833D01*
X130071761Y-82280214D01*
X130119380Y-82184976D01*
X130119380Y-82042119D01*
X129452714Y-82804023D02*
X130119380Y-82804023D01*
X129547952Y-82804023D02*
X129500333Y-82851642D01*
X129452714Y-82946880D01*
X129452714Y-83089738D01*
X129500333Y-83184976D01*
X129595571Y-83232595D01*
X130119380Y-83232595D01*
X129452714Y-83708785D02*
X130119380Y-83708785D01*
X129547952Y-83708785D02*
X129500333Y-83756404D01*
X129452714Y-83851642D01*
X129452714Y-83994500D01*
X129500333Y-84089738D01*
X129595571Y-84137357D01*
X130119380Y-84137357D01*
X130119380Y-85137357D02*
X130119380Y-84565928D01*
X130119380Y-84851642D02*
X129119380Y-84851642D01*
X129262238Y-84756404D01*
X129357476Y-84661166D01*
X129405095Y-84565928D01*
M02*
