G04 #@! TF.GenerationSoftware,KiCad,Pcbnew,(5.1.4)-1*
G04 #@! TF.CreationDate,2021-02-15T19:13:41-06:00*
G04 #@! TF.ProjectId,CapcitorBreakout,43617063-6974-46f7-9242-7265616b6f75,rev?*
G04 #@! TF.SameCoordinates,Original*
G04 #@! TF.FileFunction,Legend,Top*
G04 #@! TF.FilePolarity,Positive*
%FSLAX46Y46*%
G04 Gerber Fmt 4.6, Leading zero omitted, Abs format (unit mm)*
G04 Created by KiCad (PCBNEW (5.1.4)-1) date 2021-02-15 19:13:41*
%MOMM*%
%LPD*%
G04 APERTURE LIST*
%ADD10C,0.120000*%
%ADD11C,0.150000*%
G04 APERTURE END LIST*
D10*
X166666500Y-96468491D02*
X168266500Y-96468491D01*
X167466500Y-97268491D02*
X167466500Y-95668491D01*
X171256500Y-80498000D02*
X172786500Y-80498000D01*
X170923500Y-80538000D02*
X173119500Y-80538000D01*
X170670500Y-80578000D02*
X173372500Y-80578000D01*
X170457500Y-80618000D02*
X173585500Y-80618000D01*
X170269500Y-80658000D02*
X173773500Y-80658000D01*
X170101500Y-80698000D02*
X173941500Y-80698000D01*
X169947500Y-80738000D02*
X174095500Y-80738000D01*
X169803500Y-80778000D02*
X174239500Y-80778000D01*
X169670500Y-80818000D02*
X174372500Y-80818000D01*
X169543500Y-80858000D02*
X174499500Y-80858000D01*
X169424500Y-80898000D02*
X174618500Y-80898000D01*
X169310500Y-80938000D02*
X174732500Y-80938000D01*
X169201500Y-80978000D02*
X174841500Y-80978000D01*
X169097500Y-81018000D02*
X174945500Y-81018000D01*
X168997500Y-81058000D02*
X175045500Y-81058000D01*
X168901500Y-81098000D02*
X175141500Y-81098000D01*
X168808500Y-81138000D02*
X175234500Y-81138000D01*
X168718500Y-81178000D02*
X175324500Y-81178000D01*
X168631500Y-81218000D02*
X175411500Y-81218000D01*
X168546500Y-81258000D02*
X175496500Y-81258000D01*
X168464500Y-81298000D02*
X175578500Y-81298000D01*
X168384500Y-81338000D02*
X175658500Y-81338000D01*
X168306500Y-81378000D02*
X175736500Y-81378000D01*
X168231500Y-81418000D02*
X175811500Y-81418000D01*
X168157500Y-81458000D02*
X175885500Y-81458000D01*
X168085500Y-81498000D02*
X175957500Y-81498000D01*
X168014500Y-81538000D02*
X176028500Y-81538000D01*
X167945500Y-81578000D02*
X176097500Y-81578000D01*
X167878500Y-81618000D02*
X176164500Y-81618000D01*
X167812500Y-81658000D02*
X176230500Y-81658000D01*
X167748500Y-81698000D02*
X176294500Y-81698000D01*
X167685500Y-81738000D02*
X176357500Y-81738000D01*
X167623500Y-81778000D02*
X176419500Y-81778000D01*
X167562500Y-81818000D02*
X176480500Y-81818000D01*
X167502500Y-81858000D02*
X176540500Y-81858000D01*
X167444500Y-81898000D02*
X176598500Y-81898000D01*
X167387500Y-81938000D02*
X176655500Y-81938000D01*
X167330500Y-81978000D02*
X176712500Y-81978000D01*
X167275500Y-82018000D02*
X176767500Y-82018000D01*
X167221500Y-82058000D02*
X176821500Y-82058000D01*
X167167500Y-82098000D02*
X176875500Y-82098000D01*
X167115500Y-82138000D02*
X176927500Y-82138000D01*
X167063500Y-82178000D02*
X176979500Y-82178000D01*
X167012500Y-82218000D02*
X177030500Y-82218000D01*
X166962500Y-82258000D02*
X177080500Y-82258000D01*
X166913500Y-82298000D02*
X177129500Y-82298000D01*
X166865500Y-82338000D02*
X177177500Y-82338000D01*
X166817500Y-82378000D02*
X177225500Y-82378000D01*
X166770500Y-82418000D02*
X177272500Y-82418000D01*
X166724500Y-82458000D02*
X177318500Y-82458000D01*
X166678500Y-82498000D02*
X177364500Y-82498000D01*
X166633500Y-82538000D02*
X177409500Y-82538000D01*
X166589500Y-82578000D02*
X177453500Y-82578000D01*
X166546500Y-82618000D02*
X177496500Y-82618000D01*
X166503500Y-82658000D02*
X177539500Y-82658000D01*
X166461500Y-82698000D02*
X177581500Y-82698000D01*
X166419500Y-82738000D02*
X177623500Y-82738000D01*
X166378500Y-82778000D02*
X177664500Y-82778000D01*
X166337500Y-82818000D02*
X177705500Y-82818000D01*
X166297500Y-82858000D02*
X177745500Y-82858000D01*
X166258500Y-82898000D02*
X177784500Y-82898000D01*
X166219500Y-82938000D02*
X177823500Y-82938000D01*
X166181500Y-82978000D02*
X177861500Y-82978000D01*
X166143500Y-83018000D02*
X177899500Y-83018000D01*
X166105500Y-83058000D02*
X177937500Y-83058000D01*
X166069500Y-83098000D02*
X177973500Y-83098000D01*
X166032500Y-83138000D02*
X178010500Y-83138000D01*
X165996500Y-83178000D02*
X178046500Y-83178000D01*
X165961500Y-83218000D02*
X178081500Y-83218000D01*
X165926500Y-83258000D02*
X178116500Y-83258000D01*
X165892500Y-83298000D02*
X178150500Y-83298000D01*
X165858500Y-83338000D02*
X178184500Y-83338000D01*
X165824500Y-83378000D02*
X178218500Y-83378000D01*
X173461500Y-83418000D02*
X178251500Y-83418000D01*
X165791500Y-83418000D02*
X170581500Y-83418000D01*
X173461500Y-83458000D02*
X178284500Y-83458000D01*
X165758500Y-83458000D02*
X170581500Y-83458000D01*
X173461500Y-83498000D02*
X178316500Y-83498000D01*
X165726500Y-83498000D02*
X170581500Y-83498000D01*
X173461500Y-83538000D02*
X178348500Y-83538000D01*
X165694500Y-83538000D02*
X170581500Y-83538000D01*
X173461500Y-83578000D02*
X178379500Y-83578000D01*
X165663500Y-83578000D02*
X170581500Y-83578000D01*
X173461500Y-83618000D02*
X178411500Y-83618000D01*
X165631500Y-83618000D02*
X170581500Y-83618000D01*
X173461500Y-83658000D02*
X178441500Y-83658000D01*
X165601500Y-83658000D02*
X170581500Y-83658000D01*
X173461500Y-83698000D02*
X178471500Y-83698000D01*
X165571500Y-83698000D02*
X170581500Y-83698000D01*
X173461500Y-83738000D02*
X178501500Y-83738000D01*
X165541500Y-83738000D02*
X170581500Y-83738000D01*
X173461500Y-83778000D02*
X178531500Y-83778000D01*
X165511500Y-83778000D02*
X170581500Y-83778000D01*
X173461500Y-83818000D02*
X178560500Y-83818000D01*
X165482500Y-83818000D02*
X170581500Y-83818000D01*
X173461500Y-83858000D02*
X178589500Y-83858000D01*
X165453500Y-83858000D02*
X170581500Y-83858000D01*
X173461500Y-83898000D02*
X178617500Y-83898000D01*
X165425500Y-83898000D02*
X170581500Y-83898000D01*
X173461500Y-83938000D02*
X178645500Y-83938000D01*
X165397500Y-83938000D02*
X170581500Y-83938000D01*
X173461500Y-83978000D02*
X178673500Y-83978000D01*
X165369500Y-83978000D02*
X170581500Y-83978000D01*
X173461500Y-84018000D02*
X178700500Y-84018000D01*
X165342500Y-84018000D02*
X170581500Y-84018000D01*
X173461500Y-84058000D02*
X178727500Y-84058000D01*
X165315500Y-84058000D02*
X170581500Y-84058000D01*
X173461500Y-84098000D02*
X178754500Y-84098000D01*
X165288500Y-84098000D02*
X170581500Y-84098000D01*
X173461500Y-84138000D02*
X178780500Y-84138000D01*
X165262500Y-84138000D02*
X170581500Y-84138000D01*
X173461500Y-84178000D02*
X178806500Y-84178000D01*
X165236500Y-84178000D02*
X170581500Y-84178000D01*
X173461500Y-84218000D02*
X178832500Y-84218000D01*
X165210500Y-84218000D02*
X170581500Y-84218000D01*
X173461500Y-84258000D02*
X178857500Y-84258000D01*
X165185500Y-84258000D02*
X170581500Y-84258000D01*
X173461500Y-84298000D02*
X178882500Y-84298000D01*
X165160500Y-84298000D02*
X170581500Y-84298000D01*
X173461500Y-84338000D02*
X178907500Y-84338000D01*
X165135500Y-84338000D02*
X170581500Y-84338000D01*
X173461500Y-84378000D02*
X178931500Y-84378000D01*
X165111500Y-84378000D02*
X170581500Y-84378000D01*
X173461500Y-84418000D02*
X178955500Y-84418000D01*
X165087500Y-84418000D02*
X170581500Y-84418000D01*
X173461500Y-84458000D02*
X178979500Y-84458000D01*
X165063500Y-84458000D02*
X170581500Y-84458000D01*
X173461500Y-84498000D02*
X179002500Y-84498000D01*
X165040500Y-84498000D02*
X170581500Y-84498000D01*
X173461500Y-84538000D02*
X179025500Y-84538000D01*
X165017500Y-84538000D02*
X170581500Y-84538000D01*
X173461500Y-84578000D02*
X179048500Y-84578000D01*
X164994500Y-84578000D02*
X170581500Y-84578000D01*
X173461500Y-84618000D02*
X179070500Y-84618000D01*
X164972500Y-84618000D02*
X170581500Y-84618000D01*
X173461500Y-84658000D02*
X179093500Y-84658000D01*
X164949500Y-84658000D02*
X170581500Y-84658000D01*
X173461500Y-84698000D02*
X179115500Y-84698000D01*
X164927500Y-84698000D02*
X170581500Y-84698000D01*
X173461500Y-84738000D02*
X179136500Y-84738000D01*
X164906500Y-84738000D02*
X170581500Y-84738000D01*
X173461500Y-84778000D02*
X179157500Y-84778000D01*
X164885500Y-84778000D02*
X170581500Y-84778000D01*
X173461500Y-84818000D02*
X179178500Y-84818000D01*
X164864500Y-84818000D02*
X170581500Y-84818000D01*
X173461500Y-84858000D02*
X179199500Y-84858000D01*
X164843500Y-84858000D02*
X170581500Y-84858000D01*
X173461500Y-84898000D02*
X179220500Y-84898000D01*
X164822500Y-84898000D02*
X170581500Y-84898000D01*
X173461500Y-84938000D02*
X179240500Y-84938000D01*
X164802500Y-84938000D02*
X170581500Y-84938000D01*
X173461500Y-84978000D02*
X179260500Y-84978000D01*
X164782500Y-84978000D02*
X170581500Y-84978000D01*
X173461500Y-85018000D02*
X179279500Y-85018000D01*
X164763500Y-85018000D02*
X170581500Y-85018000D01*
X173461500Y-85058000D02*
X179299500Y-85058000D01*
X164743500Y-85058000D02*
X170581500Y-85058000D01*
X173461500Y-85098000D02*
X179318500Y-85098000D01*
X164724500Y-85098000D02*
X170581500Y-85098000D01*
X173461500Y-85138000D02*
X179337500Y-85138000D01*
X164705500Y-85138000D02*
X170581500Y-85138000D01*
X173461500Y-85178000D02*
X179355500Y-85178000D01*
X164687500Y-85178000D02*
X170581500Y-85178000D01*
X173461500Y-85218000D02*
X179374500Y-85218000D01*
X164668500Y-85218000D02*
X170581500Y-85218000D01*
X173461500Y-85258000D02*
X179392500Y-85258000D01*
X164650500Y-85258000D02*
X170581500Y-85258000D01*
X173461500Y-85298000D02*
X179410500Y-85298000D01*
X164632500Y-85298000D02*
X170581500Y-85298000D01*
X173461500Y-85338000D02*
X179427500Y-85338000D01*
X164615500Y-85338000D02*
X170581500Y-85338000D01*
X173461500Y-85378000D02*
X179444500Y-85378000D01*
X164598500Y-85378000D02*
X170581500Y-85378000D01*
X173461500Y-85418000D02*
X179461500Y-85418000D01*
X164581500Y-85418000D02*
X170581500Y-85418000D01*
X173461500Y-85458000D02*
X179478500Y-85458000D01*
X164564500Y-85458000D02*
X170581500Y-85458000D01*
X173461500Y-85498000D02*
X179495500Y-85498000D01*
X164547500Y-85498000D02*
X170581500Y-85498000D01*
X173461500Y-85538000D02*
X179511500Y-85538000D01*
X164531500Y-85538000D02*
X170581500Y-85538000D01*
X173461500Y-85578000D02*
X179527500Y-85578000D01*
X164515500Y-85578000D02*
X170581500Y-85578000D01*
X173461500Y-85618000D02*
X179543500Y-85618000D01*
X164499500Y-85618000D02*
X170581500Y-85618000D01*
X173461500Y-85658000D02*
X179558500Y-85658000D01*
X164484500Y-85658000D02*
X170581500Y-85658000D01*
X173461500Y-85698000D02*
X179574500Y-85698000D01*
X164468500Y-85698000D02*
X170581500Y-85698000D01*
X173461500Y-85738000D02*
X179589500Y-85738000D01*
X164453500Y-85738000D02*
X170581500Y-85738000D01*
X173461500Y-85778000D02*
X179603500Y-85778000D01*
X164439500Y-85778000D02*
X170581500Y-85778000D01*
X173461500Y-85818000D02*
X179618500Y-85818000D01*
X164424500Y-85818000D02*
X170581500Y-85818000D01*
X173461500Y-85858000D02*
X179632500Y-85858000D01*
X164410500Y-85858000D02*
X170581500Y-85858000D01*
X173461500Y-85898000D02*
X179646500Y-85898000D01*
X164396500Y-85898000D02*
X170581500Y-85898000D01*
X173461500Y-85938000D02*
X179660500Y-85938000D01*
X164382500Y-85938000D02*
X170581500Y-85938000D01*
X173461500Y-85978000D02*
X179674500Y-85978000D01*
X164368500Y-85978000D02*
X170581500Y-85978000D01*
X173461500Y-86018000D02*
X179687500Y-86018000D01*
X164355500Y-86018000D02*
X170581500Y-86018000D01*
X173461500Y-86058000D02*
X179701500Y-86058000D01*
X164341500Y-86058000D02*
X170581500Y-86058000D01*
X173461500Y-86098000D02*
X179714500Y-86098000D01*
X164328500Y-86098000D02*
X170581500Y-86098000D01*
X173461500Y-86138000D02*
X179726500Y-86138000D01*
X164316500Y-86138000D02*
X170581500Y-86138000D01*
X173461500Y-86178000D02*
X179739500Y-86178000D01*
X164303500Y-86178000D02*
X170581500Y-86178000D01*
X173461500Y-86218000D02*
X179751500Y-86218000D01*
X164291500Y-86218000D02*
X170581500Y-86218000D01*
X173461500Y-86258000D02*
X179763500Y-86258000D01*
X164279500Y-86258000D02*
X170581500Y-86258000D01*
X164267500Y-86298000D02*
X179775500Y-86298000D01*
X164256500Y-86338000D02*
X179786500Y-86338000D01*
X164244500Y-86378000D02*
X179798500Y-86378000D01*
X164233500Y-86418000D02*
X179809500Y-86418000D01*
X164222500Y-86458000D02*
X179820500Y-86458000D01*
X164211500Y-86498000D02*
X179831500Y-86498000D01*
X164201500Y-86538000D02*
X179841500Y-86538000D01*
X164191500Y-86578000D02*
X179851500Y-86578000D01*
X164181500Y-86618000D02*
X179861500Y-86618000D01*
X164171500Y-86658000D02*
X179871500Y-86658000D01*
X164161500Y-86698000D02*
X179881500Y-86698000D01*
X164152500Y-86738000D02*
X179890500Y-86738000D01*
X164143500Y-86778000D02*
X179899500Y-86778000D01*
X164134500Y-86818000D02*
X179908500Y-86818000D01*
X164125500Y-86858000D02*
X179917500Y-86858000D01*
X164116500Y-86898000D02*
X179926500Y-86898000D01*
X164108500Y-86938000D02*
X179934500Y-86938000D01*
X164100500Y-86978000D02*
X179942500Y-86978000D01*
X164092500Y-87018000D02*
X179950500Y-87018000D01*
X164084500Y-87058000D02*
X179958500Y-87058000D01*
X164077500Y-87098000D02*
X179965500Y-87098000D01*
X164069500Y-87138000D02*
X179973500Y-87138000D01*
X164062500Y-87178000D02*
X179980500Y-87178000D01*
X164055500Y-87218000D02*
X179987500Y-87218000D01*
X164049500Y-87258000D02*
X179993500Y-87258000D01*
X164042500Y-87298000D02*
X180000500Y-87298000D01*
X164036500Y-87338000D02*
X180006500Y-87338000D01*
X164030500Y-87378000D02*
X180012500Y-87378000D01*
X164024500Y-87418000D02*
X180018500Y-87418000D01*
X164018500Y-87458000D02*
X180024500Y-87458000D01*
X164013500Y-87498000D02*
X180029500Y-87498000D01*
X164007500Y-87538000D02*
X180035500Y-87538000D01*
X164002500Y-87578000D02*
X180040500Y-87578000D01*
X163997500Y-87618000D02*
X180045500Y-87618000D01*
X163993500Y-87658000D02*
X180049500Y-87658000D01*
X163988500Y-87698000D02*
X180054500Y-87698000D01*
X163984500Y-87738000D02*
X180058500Y-87738000D01*
X163980500Y-87778000D02*
X180062500Y-87778000D01*
X163976500Y-87818000D02*
X180066500Y-87818000D01*
X163972500Y-87858000D02*
X180070500Y-87858000D01*
X163969500Y-87899000D02*
X180073500Y-87899000D01*
X163966500Y-87939000D02*
X180076500Y-87939000D01*
X163963500Y-87979000D02*
X180079500Y-87979000D01*
X163960500Y-88019000D02*
X180082500Y-88019000D01*
X163957500Y-88059000D02*
X180085500Y-88059000D01*
X163955500Y-88099000D02*
X180087500Y-88099000D01*
X163952500Y-88139000D02*
X180090500Y-88139000D01*
X163950500Y-88179000D02*
X180092500Y-88179000D01*
X163948500Y-88219000D02*
X180094500Y-88219000D01*
X163947500Y-88259000D02*
X180095500Y-88259000D01*
X163945500Y-88299000D02*
X180097500Y-88299000D01*
X163944500Y-88339000D02*
X180098500Y-88339000D01*
X163943500Y-88379000D02*
X180099500Y-88379000D01*
X163942500Y-88419000D02*
X180100500Y-88419000D01*
X163941500Y-88459000D02*
X180101500Y-88459000D01*
X163941500Y-88499000D02*
X180101500Y-88499000D01*
X163941500Y-88539000D02*
X180101500Y-88539000D01*
X163940500Y-88579000D02*
X180102500Y-88579000D01*
X180141500Y-88579000D02*
G75*
G03X180141500Y-88579000I-8120000J0D01*
G01*
X149648500Y-96531991D02*
X151248500Y-96531991D01*
X150448500Y-97331991D02*
X150448500Y-95731991D01*
X154238500Y-80561500D02*
X155768500Y-80561500D01*
X153905500Y-80601500D02*
X156101500Y-80601500D01*
X153652500Y-80641500D02*
X156354500Y-80641500D01*
X153439500Y-80681500D02*
X156567500Y-80681500D01*
X153251500Y-80721500D02*
X156755500Y-80721500D01*
X153083500Y-80761500D02*
X156923500Y-80761500D01*
X152929500Y-80801500D02*
X157077500Y-80801500D01*
X152785500Y-80841500D02*
X157221500Y-80841500D01*
X152652500Y-80881500D02*
X157354500Y-80881500D01*
X152525500Y-80921500D02*
X157481500Y-80921500D01*
X152406500Y-80961500D02*
X157600500Y-80961500D01*
X152292500Y-81001500D02*
X157714500Y-81001500D01*
X152183500Y-81041500D02*
X157823500Y-81041500D01*
X152079500Y-81081500D02*
X157927500Y-81081500D01*
X151979500Y-81121500D02*
X158027500Y-81121500D01*
X151883500Y-81161500D02*
X158123500Y-81161500D01*
X151790500Y-81201500D02*
X158216500Y-81201500D01*
X151700500Y-81241500D02*
X158306500Y-81241500D01*
X151613500Y-81281500D02*
X158393500Y-81281500D01*
X151528500Y-81321500D02*
X158478500Y-81321500D01*
X151446500Y-81361500D02*
X158560500Y-81361500D01*
X151366500Y-81401500D02*
X158640500Y-81401500D01*
X151288500Y-81441500D02*
X158718500Y-81441500D01*
X151213500Y-81481500D02*
X158793500Y-81481500D01*
X151139500Y-81521500D02*
X158867500Y-81521500D01*
X151067500Y-81561500D02*
X158939500Y-81561500D01*
X150996500Y-81601500D02*
X159010500Y-81601500D01*
X150927500Y-81641500D02*
X159079500Y-81641500D01*
X150860500Y-81681500D02*
X159146500Y-81681500D01*
X150794500Y-81721500D02*
X159212500Y-81721500D01*
X150730500Y-81761500D02*
X159276500Y-81761500D01*
X150667500Y-81801500D02*
X159339500Y-81801500D01*
X150605500Y-81841500D02*
X159401500Y-81841500D01*
X150544500Y-81881500D02*
X159462500Y-81881500D01*
X150484500Y-81921500D02*
X159522500Y-81921500D01*
X150426500Y-81961500D02*
X159580500Y-81961500D01*
X150369500Y-82001500D02*
X159637500Y-82001500D01*
X150312500Y-82041500D02*
X159694500Y-82041500D01*
X150257500Y-82081500D02*
X159749500Y-82081500D01*
X150203500Y-82121500D02*
X159803500Y-82121500D01*
X150149500Y-82161500D02*
X159857500Y-82161500D01*
X150097500Y-82201500D02*
X159909500Y-82201500D01*
X150045500Y-82241500D02*
X159961500Y-82241500D01*
X149994500Y-82281500D02*
X160012500Y-82281500D01*
X149944500Y-82321500D02*
X160062500Y-82321500D01*
X149895500Y-82361500D02*
X160111500Y-82361500D01*
X149847500Y-82401500D02*
X160159500Y-82401500D01*
X149799500Y-82441500D02*
X160207500Y-82441500D01*
X149752500Y-82481500D02*
X160254500Y-82481500D01*
X149706500Y-82521500D02*
X160300500Y-82521500D01*
X149660500Y-82561500D02*
X160346500Y-82561500D01*
X149615500Y-82601500D02*
X160391500Y-82601500D01*
X149571500Y-82641500D02*
X160435500Y-82641500D01*
X149528500Y-82681500D02*
X160478500Y-82681500D01*
X149485500Y-82721500D02*
X160521500Y-82721500D01*
X149443500Y-82761500D02*
X160563500Y-82761500D01*
X149401500Y-82801500D02*
X160605500Y-82801500D01*
X149360500Y-82841500D02*
X160646500Y-82841500D01*
X149319500Y-82881500D02*
X160687500Y-82881500D01*
X149279500Y-82921500D02*
X160727500Y-82921500D01*
X149240500Y-82961500D02*
X160766500Y-82961500D01*
X149201500Y-83001500D02*
X160805500Y-83001500D01*
X149163500Y-83041500D02*
X160843500Y-83041500D01*
X149125500Y-83081500D02*
X160881500Y-83081500D01*
X149087500Y-83121500D02*
X160919500Y-83121500D01*
X149051500Y-83161500D02*
X160955500Y-83161500D01*
X149014500Y-83201500D02*
X160992500Y-83201500D01*
X148978500Y-83241500D02*
X161028500Y-83241500D01*
X148943500Y-83281500D02*
X161063500Y-83281500D01*
X148908500Y-83321500D02*
X161098500Y-83321500D01*
X148874500Y-83361500D02*
X161132500Y-83361500D01*
X148840500Y-83401500D02*
X161166500Y-83401500D01*
X148806500Y-83441500D02*
X161200500Y-83441500D01*
X156443500Y-83481500D02*
X161233500Y-83481500D01*
X148773500Y-83481500D02*
X153563500Y-83481500D01*
X156443500Y-83521500D02*
X161266500Y-83521500D01*
X148740500Y-83521500D02*
X153563500Y-83521500D01*
X156443500Y-83561500D02*
X161298500Y-83561500D01*
X148708500Y-83561500D02*
X153563500Y-83561500D01*
X156443500Y-83601500D02*
X161330500Y-83601500D01*
X148676500Y-83601500D02*
X153563500Y-83601500D01*
X156443500Y-83641500D02*
X161361500Y-83641500D01*
X148645500Y-83641500D02*
X153563500Y-83641500D01*
X156443500Y-83681500D02*
X161393500Y-83681500D01*
X148613500Y-83681500D02*
X153563500Y-83681500D01*
X156443500Y-83721500D02*
X161423500Y-83721500D01*
X148583500Y-83721500D02*
X153563500Y-83721500D01*
X156443500Y-83761500D02*
X161453500Y-83761500D01*
X148553500Y-83761500D02*
X153563500Y-83761500D01*
X156443500Y-83801500D02*
X161483500Y-83801500D01*
X148523500Y-83801500D02*
X153563500Y-83801500D01*
X156443500Y-83841500D02*
X161513500Y-83841500D01*
X148493500Y-83841500D02*
X153563500Y-83841500D01*
X156443500Y-83881500D02*
X161542500Y-83881500D01*
X148464500Y-83881500D02*
X153563500Y-83881500D01*
X156443500Y-83921500D02*
X161571500Y-83921500D01*
X148435500Y-83921500D02*
X153563500Y-83921500D01*
X156443500Y-83961500D02*
X161599500Y-83961500D01*
X148407500Y-83961500D02*
X153563500Y-83961500D01*
X156443500Y-84001500D02*
X161627500Y-84001500D01*
X148379500Y-84001500D02*
X153563500Y-84001500D01*
X156443500Y-84041500D02*
X161655500Y-84041500D01*
X148351500Y-84041500D02*
X153563500Y-84041500D01*
X156443500Y-84081500D02*
X161682500Y-84081500D01*
X148324500Y-84081500D02*
X153563500Y-84081500D01*
X156443500Y-84121500D02*
X161709500Y-84121500D01*
X148297500Y-84121500D02*
X153563500Y-84121500D01*
X156443500Y-84161500D02*
X161736500Y-84161500D01*
X148270500Y-84161500D02*
X153563500Y-84161500D01*
X156443500Y-84201500D02*
X161762500Y-84201500D01*
X148244500Y-84201500D02*
X153563500Y-84201500D01*
X156443500Y-84241500D02*
X161788500Y-84241500D01*
X148218500Y-84241500D02*
X153563500Y-84241500D01*
X156443500Y-84281500D02*
X161814500Y-84281500D01*
X148192500Y-84281500D02*
X153563500Y-84281500D01*
X156443500Y-84321500D02*
X161839500Y-84321500D01*
X148167500Y-84321500D02*
X153563500Y-84321500D01*
X156443500Y-84361500D02*
X161864500Y-84361500D01*
X148142500Y-84361500D02*
X153563500Y-84361500D01*
X156443500Y-84401500D02*
X161889500Y-84401500D01*
X148117500Y-84401500D02*
X153563500Y-84401500D01*
X156443500Y-84441500D02*
X161913500Y-84441500D01*
X148093500Y-84441500D02*
X153563500Y-84441500D01*
X156443500Y-84481500D02*
X161937500Y-84481500D01*
X148069500Y-84481500D02*
X153563500Y-84481500D01*
X156443500Y-84521500D02*
X161961500Y-84521500D01*
X148045500Y-84521500D02*
X153563500Y-84521500D01*
X156443500Y-84561500D02*
X161984500Y-84561500D01*
X148022500Y-84561500D02*
X153563500Y-84561500D01*
X156443500Y-84601500D02*
X162007500Y-84601500D01*
X147999500Y-84601500D02*
X153563500Y-84601500D01*
X156443500Y-84641500D02*
X162030500Y-84641500D01*
X147976500Y-84641500D02*
X153563500Y-84641500D01*
X156443500Y-84681500D02*
X162052500Y-84681500D01*
X147954500Y-84681500D02*
X153563500Y-84681500D01*
X156443500Y-84721500D02*
X162075500Y-84721500D01*
X147931500Y-84721500D02*
X153563500Y-84721500D01*
X156443500Y-84761500D02*
X162097500Y-84761500D01*
X147909500Y-84761500D02*
X153563500Y-84761500D01*
X156443500Y-84801500D02*
X162118500Y-84801500D01*
X147888500Y-84801500D02*
X153563500Y-84801500D01*
X156443500Y-84841500D02*
X162139500Y-84841500D01*
X147867500Y-84841500D02*
X153563500Y-84841500D01*
X156443500Y-84881500D02*
X162160500Y-84881500D01*
X147846500Y-84881500D02*
X153563500Y-84881500D01*
X156443500Y-84921500D02*
X162181500Y-84921500D01*
X147825500Y-84921500D02*
X153563500Y-84921500D01*
X156443500Y-84961500D02*
X162202500Y-84961500D01*
X147804500Y-84961500D02*
X153563500Y-84961500D01*
X156443500Y-85001500D02*
X162222500Y-85001500D01*
X147784500Y-85001500D02*
X153563500Y-85001500D01*
X156443500Y-85041500D02*
X162242500Y-85041500D01*
X147764500Y-85041500D02*
X153563500Y-85041500D01*
X156443500Y-85081500D02*
X162261500Y-85081500D01*
X147745500Y-85081500D02*
X153563500Y-85081500D01*
X156443500Y-85121500D02*
X162281500Y-85121500D01*
X147725500Y-85121500D02*
X153563500Y-85121500D01*
X156443500Y-85161500D02*
X162300500Y-85161500D01*
X147706500Y-85161500D02*
X153563500Y-85161500D01*
X156443500Y-85201500D02*
X162319500Y-85201500D01*
X147687500Y-85201500D02*
X153563500Y-85201500D01*
X156443500Y-85241500D02*
X162337500Y-85241500D01*
X147669500Y-85241500D02*
X153563500Y-85241500D01*
X156443500Y-85281500D02*
X162356500Y-85281500D01*
X147650500Y-85281500D02*
X153563500Y-85281500D01*
X156443500Y-85321500D02*
X162374500Y-85321500D01*
X147632500Y-85321500D02*
X153563500Y-85321500D01*
X156443500Y-85361500D02*
X162392500Y-85361500D01*
X147614500Y-85361500D02*
X153563500Y-85361500D01*
X156443500Y-85401500D02*
X162409500Y-85401500D01*
X147597500Y-85401500D02*
X153563500Y-85401500D01*
X156443500Y-85441500D02*
X162426500Y-85441500D01*
X147580500Y-85441500D02*
X153563500Y-85441500D01*
X156443500Y-85481500D02*
X162443500Y-85481500D01*
X147563500Y-85481500D02*
X153563500Y-85481500D01*
X156443500Y-85521500D02*
X162460500Y-85521500D01*
X147546500Y-85521500D02*
X153563500Y-85521500D01*
X156443500Y-85561500D02*
X162477500Y-85561500D01*
X147529500Y-85561500D02*
X153563500Y-85561500D01*
X156443500Y-85601500D02*
X162493500Y-85601500D01*
X147513500Y-85601500D02*
X153563500Y-85601500D01*
X156443500Y-85641500D02*
X162509500Y-85641500D01*
X147497500Y-85641500D02*
X153563500Y-85641500D01*
X156443500Y-85681500D02*
X162525500Y-85681500D01*
X147481500Y-85681500D02*
X153563500Y-85681500D01*
X156443500Y-85721500D02*
X162540500Y-85721500D01*
X147466500Y-85721500D02*
X153563500Y-85721500D01*
X156443500Y-85761500D02*
X162556500Y-85761500D01*
X147450500Y-85761500D02*
X153563500Y-85761500D01*
X156443500Y-85801500D02*
X162571500Y-85801500D01*
X147435500Y-85801500D02*
X153563500Y-85801500D01*
X156443500Y-85841500D02*
X162585500Y-85841500D01*
X147421500Y-85841500D02*
X153563500Y-85841500D01*
X156443500Y-85881500D02*
X162600500Y-85881500D01*
X147406500Y-85881500D02*
X153563500Y-85881500D01*
X156443500Y-85921500D02*
X162614500Y-85921500D01*
X147392500Y-85921500D02*
X153563500Y-85921500D01*
X156443500Y-85961500D02*
X162628500Y-85961500D01*
X147378500Y-85961500D02*
X153563500Y-85961500D01*
X156443500Y-86001500D02*
X162642500Y-86001500D01*
X147364500Y-86001500D02*
X153563500Y-86001500D01*
X156443500Y-86041500D02*
X162656500Y-86041500D01*
X147350500Y-86041500D02*
X153563500Y-86041500D01*
X156443500Y-86081500D02*
X162669500Y-86081500D01*
X147337500Y-86081500D02*
X153563500Y-86081500D01*
X156443500Y-86121500D02*
X162683500Y-86121500D01*
X147323500Y-86121500D02*
X153563500Y-86121500D01*
X156443500Y-86161500D02*
X162696500Y-86161500D01*
X147310500Y-86161500D02*
X153563500Y-86161500D01*
X156443500Y-86201500D02*
X162708500Y-86201500D01*
X147298500Y-86201500D02*
X153563500Y-86201500D01*
X156443500Y-86241500D02*
X162721500Y-86241500D01*
X147285500Y-86241500D02*
X153563500Y-86241500D01*
X156443500Y-86281500D02*
X162733500Y-86281500D01*
X147273500Y-86281500D02*
X153563500Y-86281500D01*
X156443500Y-86321500D02*
X162745500Y-86321500D01*
X147261500Y-86321500D02*
X153563500Y-86321500D01*
X147249500Y-86361500D02*
X162757500Y-86361500D01*
X147238500Y-86401500D02*
X162768500Y-86401500D01*
X147226500Y-86441500D02*
X162780500Y-86441500D01*
X147215500Y-86481500D02*
X162791500Y-86481500D01*
X147204500Y-86521500D02*
X162802500Y-86521500D01*
X147193500Y-86561500D02*
X162813500Y-86561500D01*
X147183500Y-86601500D02*
X162823500Y-86601500D01*
X147173500Y-86641500D02*
X162833500Y-86641500D01*
X147163500Y-86681500D02*
X162843500Y-86681500D01*
X147153500Y-86721500D02*
X162853500Y-86721500D01*
X147143500Y-86761500D02*
X162863500Y-86761500D01*
X147134500Y-86801500D02*
X162872500Y-86801500D01*
X147125500Y-86841500D02*
X162881500Y-86841500D01*
X147116500Y-86881500D02*
X162890500Y-86881500D01*
X147107500Y-86921500D02*
X162899500Y-86921500D01*
X147098500Y-86961500D02*
X162908500Y-86961500D01*
X147090500Y-87001500D02*
X162916500Y-87001500D01*
X147082500Y-87041500D02*
X162924500Y-87041500D01*
X147074500Y-87081500D02*
X162932500Y-87081500D01*
X147066500Y-87121500D02*
X162940500Y-87121500D01*
X147059500Y-87161500D02*
X162947500Y-87161500D01*
X147051500Y-87201500D02*
X162955500Y-87201500D01*
X147044500Y-87241500D02*
X162962500Y-87241500D01*
X147037500Y-87281500D02*
X162969500Y-87281500D01*
X147031500Y-87321500D02*
X162975500Y-87321500D01*
X147024500Y-87361500D02*
X162982500Y-87361500D01*
X147018500Y-87401500D02*
X162988500Y-87401500D01*
X147012500Y-87441500D02*
X162994500Y-87441500D01*
X147006500Y-87481500D02*
X163000500Y-87481500D01*
X147000500Y-87521500D02*
X163006500Y-87521500D01*
X146995500Y-87561500D02*
X163011500Y-87561500D01*
X146989500Y-87601500D02*
X163017500Y-87601500D01*
X146984500Y-87641500D02*
X163022500Y-87641500D01*
X146979500Y-87681500D02*
X163027500Y-87681500D01*
X146975500Y-87721500D02*
X163031500Y-87721500D01*
X146970500Y-87761500D02*
X163036500Y-87761500D01*
X146966500Y-87801500D02*
X163040500Y-87801500D01*
X146962500Y-87841500D02*
X163044500Y-87841500D01*
X146958500Y-87881500D02*
X163048500Y-87881500D01*
X146954500Y-87921500D02*
X163052500Y-87921500D01*
X146951500Y-87962500D02*
X163055500Y-87962500D01*
X146948500Y-88002500D02*
X163058500Y-88002500D01*
X146945500Y-88042500D02*
X163061500Y-88042500D01*
X146942500Y-88082500D02*
X163064500Y-88082500D01*
X146939500Y-88122500D02*
X163067500Y-88122500D01*
X146937500Y-88162500D02*
X163069500Y-88162500D01*
X146934500Y-88202500D02*
X163072500Y-88202500D01*
X146932500Y-88242500D02*
X163074500Y-88242500D01*
X146930500Y-88282500D02*
X163076500Y-88282500D01*
X146929500Y-88322500D02*
X163077500Y-88322500D01*
X146927500Y-88362500D02*
X163079500Y-88362500D01*
X146926500Y-88402500D02*
X163080500Y-88402500D01*
X146925500Y-88442500D02*
X163081500Y-88442500D01*
X146924500Y-88482500D02*
X163082500Y-88482500D01*
X146923500Y-88522500D02*
X163083500Y-88522500D01*
X146923500Y-88562500D02*
X163083500Y-88562500D01*
X146923500Y-88602500D02*
X163083500Y-88602500D01*
X146922500Y-88642500D02*
X163084500Y-88642500D01*
X163123500Y-88642500D02*
G75*
G03X163123500Y-88642500I-8120000J0D01*
G01*
X132503500Y-96595491D02*
X134103500Y-96595491D01*
X133303500Y-97395491D02*
X133303500Y-95795491D01*
X137093500Y-80625000D02*
X138623500Y-80625000D01*
X136760500Y-80665000D02*
X138956500Y-80665000D01*
X136507500Y-80705000D02*
X139209500Y-80705000D01*
X136294500Y-80745000D02*
X139422500Y-80745000D01*
X136106500Y-80785000D02*
X139610500Y-80785000D01*
X135938500Y-80825000D02*
X139778500Y-80825000D01*
X135784500Y-80865000D02*
X139932500Y-80865000D01*
X135640500Y-80905000D02*
X140076500Y-80905000D01*
X135507500Y-80945000D02*
X140209500Y-80945000D01*
X135380500Y-80985000D02*
X140336500Y-80985000D01*
X135261500Y-81025000D02*
X140455500Y-81025000D01*
X135147500Y-81065000D02*
X140569500Y-81065000D01*
X135038500Y-81105000D02*
X140678500Y-81105000D01*
X134934500Y-81145000D02*
X140782500Y-81145000D01*
X134834500Y-81185000D02*
X140882500Y-81185000D01*
X134738500Y-81225000D02*
X140978500Y-81225000D01*
X134645500Y-81265000D02*
X141071500Y-81265000D01*
X134555500Y-81305000D02*
X141161500Y-81305000D01*
X134468500Y-81345000D02*
X141248500Y-81345000D01*
X134383500Y-81385000D02*
X141333500Y-81385000D01*
X134301500Y-81425000D02*
X141415500Y-81425000D01*
X134221500Y-81465000D02*
X141495500Y-81465000D01*
X134143500Y-81505000D02*
X141573500Y-81505000D01*
X134068500Y-81545000D02*
X141648500Y-81545000D01*
X133994500Y-81585000D02*
X141722500Y-81585000D01*
X133922500Y-81625000D02*
X141794500Y-81625000D01*
X133851500Y-81665000D02*
X141865500Y-81665000D01*
X133782500Y-81705000D02*
X141934500Y-81705000D01*
X133715500Y-81745000D02*
X142001500Y-81745000D01*
X133649500Y-81785000D02*
X142067500Y-81785000D01*
X133585500Y-81825000D02*
X142131500Y-81825000D01*
X133522500Y-81865000D02*
X142194500Y-81865000D01*
X133460500Y-81905000D02*
X142256500Y-81905000D01*
X133399500Y-81945000D02*
X142317500Y-81945000D01*
X133339500Y-81985000D02*
X142377500Y-81985000D01*
X133281500Y-82025000D02*
X142435500Y-82025000D01*
X133224500Y-82065000D02*
X142492500Y-82065000D01*
X133167500Y-82105000D02*
X142549500Y-82105000D01*
X133112500Y-82145000D02*
X142604500Y-82145000D01*
X133058500Y-82185000D02*
X142658500Y-82185000D01*
X133004500Y-82225000D02*
X142712500Y-82225000D01*
X132952500Y-82265000D02*
X142764500Y-82265000D01*
X132900500Y-82305000D02*
X142816500Y-82305000D01*
X132849500Y-82345000D02*
X142867500Y-82345000D01*
X132799500Y-82385000D02*
X142917500Y-82385000D01*
X132750500Y-82425000D02*
X142966500Y-82425000D01*
X132702500Y-82465000D02*
X143014500Y-82465000D01*
X132654500Y-82505000D02*
X143062500Y-82505000D01*
X132607500Y-82545000D02*
X143109500Y-82545000D01*
X132561500Y-82585000D02*
X143155500Y-82585000D01*
X132515500Y-82625000D02*
X143201500Y-82625000D01*
X132470500Y-82665000D02*
X143246500Y-82665000D01*
X132426500Y-82705000D02*
X143290500Y-82705000D01*
X132383500Y-82745000D02*
X143333500Y-82745000D01*
X132340500Y-82785000D02*
X143376500Y-82785000D01*
X132298500Y-82825000D02*
X143418500Y-82825000D01*
X132256500Y-82865000D02*
X143460500Y-82865000D01*
X132215500Y-82905000D02*
X143501500Y-82905000D01*
X132174500Y-82945000D02*
X143542500Y-82945000D01*
X132134500Y-82985000D02*
X143582500Y-82985000D01*
X132095500Y-83025000D02*
X143621500Y-83025000D01*
X132056500Y-83065000D02*
X143660500Y-83065000D01*
X132018500Y-83105000D02*
X143698500Y-83105000D01*
X131980500Y-83145000D02*
X143736500Y-83145000D01*
X131942500Y-83185000D02*
X143774500Y-83185000D01*
X131906500Y-83225000D02*
X143810500Y-83225000D01*
X131869500Y-83265000D02*
X143847500Y-83265000D01*
X131833500Y-83305000D02*
X143883500Y-83305000D01*
X131798500Y-83345000D02*
X143918500Y-83345000D01*
X131763500Y-83385000D02*
X143953500Y-83385000D01*
X131729500Y-83425000D02*
X143987500Y-83425000D01*
X131695500Y-83465000D02*
X144021500Y-83465000D01*
X131661500Y-83505000D02*
X144055500Y-83505000D01*
X139298500Y-83545000D02*
X144088500Y-83545000D01*
X131628500Y-83545000D02*
X136418500Y-83545000D01*
X139298500Y-83585000D02*
X144121500Y-83585000D01*
X131595500Y-83585000D02*
X136418500Y-83585000D01*
X139298500Y-83625000D02*
X144153500Y-83625000D01*
X131563500Y-83625000D02*
X136418500Y-83625000D01*
X139298500Y-83665000D02*
X144185500Y-83665000D01*
X131531500Y-83665000D02*
X136418500Y-83665000D01*
X139298500Y-83705000D02*
X144216500Y-83705000D01*
X131500500Y-83705000D02*
X136418500Y-83705000D01*
X139298500Y-83745000D02*
X144248500Y-83745000D01*
X131468500Y-83745000D02*
X136418500Y-83745000D01*
X139298500Y-83785000D02*
X144278500Y-83785000D01*
X131438500Y-83785000D02*
X136418500Y-83785000D01*
X139298500Y-83825000D02*
X144308500Y-83825000D01*
X131408500Y-83825000D02*
X136418500Y-83825000D01*
X139298500Y-83865000D02*
X144338500Y-83865000D01*
X131378500Y-83865000D02*
X136418500Y-83865000D01*
X139298500Y-83905000D02*
X144368500Y-83905000D01*
X131348500Y-83905000D02*
X136418500Y-83905000D01*
X139298500Y-83945000D02*
X144397500Y-83945000D01*
X131319500Y-83945000D02*
X136418500Y-83945000D01*
X139298500Y-83985000D02*
X144426500Y-83985000D01*
X131290500Y-83985000D02*
X136418500Y-83985000D01*
X139298500Y-84025000D02*
X144454500Y-84025000D01*
X131262500Y-84025000D02*
X136418500Y-84025000D01*
X139298500Y-84065000D02*
X144482500Y-84065000D01*
X131234500Y-84065000D02*
X136418500Y-84065000D01*
X139298500Y-84105000D02*
X144510500Y-84105000D01*
X131206500Y-84105000D02*
X136418500Y-84105000D01*
X139298500Y-84145000D02*
X144537500Y-84145000D01*
X131179500Y-84145000D02*
X136418500Y-84145000D01*
X139298500Y-84185000D02*
X144564500Y-84185000D01*
X131152500Y-84185000D02*
X136418500Y-84185000D01*
X139298500Y-84225000D02*
X144591500Y-84225000D01*
X131125500Y-84225000D02*
X136418500Y-84225000D01*
X139298500Y-84265000D02*
X144617500Y-84265000D01*
X131099500Y-84265000D02*
X136418500Y-84265000D01*
X139298500Y-84305000D02*
X144643500Y-84305000D01*
X131073500Y-84305000D02*
X136418500Y-84305000D01*
X139298500Y-84345000D02*
X144669500Y-84345000D01*
X131047500Y-84345000D02*
X136418500Y-84345000D01*
X139298500Y-84385000D02*
X144694500Y-84385000D01*
X131022500Y-84385000D02*
X136418500Y-84385000D01*
X139298500Y-84425000D02*
X144719500Y-84425000D01*
X130997500Y-84425000D02*
X136418500Y-84425000D01*
X139298500Y-84465000D02*
X144744500Y-84465000D01*
X130972500Y-84465000D02*
X136418500Y-84465000D01*
X139298500Y-84505000D02*
X144768500Y-84505000D01*
X130948500Y-84505000D02*
X136418500Y-84505000D01*
X139298500Y-84545000D02*
X144792500Y-84545000D01*
X130924500Y-84545000D02*
X136418500Y-84545000D01*
X139298500Y-84585000D02*
X144816500Y-84585000D01*
X130900500Y-84585000D02*
X136418500Y-84585000D01*
X139298500Y-84625000D02*
X144839500Y-84625000D01*
X130877500Y-84625000D02*
X136418500Y-84625000D01*
X139298500Y-84665000D02*
X144862500Y-84665000D01*
X130854500Y-84665000D02*
X136418500Y-84665000D01*
X139298500Y-84705000D02*
X144885500Y-84705000D01*
X130831500Y-84705000D02*
X136418500Y-84705000D01*
X139298500Y-84745000D02*
X144907500Y-84745000D01*
X130809500Y-84745000D02*
X136418500Y-84745000D01*
X139298500Y-84785000D02*
X144930500Y-84785000D01*
X130786500Y-84785000D02*
X136418500Y-84785000D01*
X139298500Y-84825000D02*
X144952500Y-84825000D01*
X130764500Y-84825000D02*
X136418500Y-84825000D01*
X139298500Y-84865000D02*
X144973500Y-84865000D01*
X130743500Y-84865000D02*
X136418500Y-84865000D01*
X139298500Y-84905000D02*
X144994500Y-84905000D01*
X130722500Y-84905000D02*
X136418500Y-84905000D01*
X139298500Y-84945000D02*
X145015500Y-84945000D01*
X130701500Y-84945000D02*
X136418500Y-84945000D01*
X139298500Y-84985000D02*
X145036500Y-84985000D01*
X130680500Y-84985000D02*
X136418500Y-84985000D01*
X139298500Y-85025000D02*
X145057500Y-85025000D01*
X130659500Y-85025000D02*
X136418500Y-85025000D01*
X139298500Y-85065000D02*
X145077500Y-85065000D01*
X130639500Y-85065000D02*
X136418500Y-85065000D01*
X139298500Y-85105000D02*
X145097500Y-85105000D01*
X130619500Y-85105000D02*
X136418500Y-85105000D01*
X139298500Y-85145000D02*
X145116500Y-85145000D01*
X130600500Y-85145000D02*
X136418500Y-85145000D01*
X139298500Y-85185000D02*
X145136500Y-85185000D01*
X130580500Y-85185000D02*
X136418500Y-85185000D01*
X139298500Y-85225000D02*
X145155500Y-85225000D01*
X130561500Y-85225000D02*
X136418500Y-85225000D01*
X139298500Y-85265000D02*
X145174500Y-85265000D01*
X130542500Y-85265000D02*
X136418500Y-85265000D01*
X139298500Y-85305000D02*
X145192500Y-85305000D01*
X130524500Y-85305000D02*
X136418500Y-85305000D01*
X139298500Y-85345000D02*
X145211500Y-85345000D01*
X130505500Y-85345000D02*
X136418500Y-85345000D01*
X139298500Y-85385000D02*
X145229500Y-85385000D01*
X130487500Y-85385000D02*
X136418500Y-85385000D01*
X139298500Y-85425000D02*
X145247500Y-85425000D01*
X130469500Y-85425000D02*
X136418500Y-85425000D01*
X139298500Y-85465000D02*
X145264500Y-85465000D01*
X130452500Y-85465000D02*
X136418500Y-85465000D01*
X139298500Y-85505000D02*
X145281500Y-85505000D01*
X130435500Y-85505000D02*
X136418500Y-85505000D01*
X139298500Y-85545000D02*
X145298500Y-85545000D01*
X130418500Y-85545000D02*
X136418500Y-85545000D01*
X139298500Y-85585000D02*
X145315500Y-85585000D01*
X130401500Y-85585000D02*
X136418500Y-85585000D01*
X139298500Y-85625000D02*
X145332500Y-85625000D01*
X130384500Y-85625000D02*
X136418500Y-85625000D01*
X139298500Y-85665000D02*
X145348500Y-85665000D01*
X130368500Y-85665000D02*
X136418500Y-85665000D01*
X139298500Y-85705000D02*
X145364500Y-85705000D01*
X130352500Y-85705000D02*
X136418500Y-85705000D01*
X139298500Y-85745000D02*
X145380500Y-85745000D01*
X130336500Y-85745000D02*
X136418500Y-85745000D01*
X139298500Y-85785000D02*
X145395500Y-85785000D01*
X130321500Y-85785000D02*
X136418500Y-85785000D01*
X139298500Y-85825000D02*
X145411500Y-85825000D01*
X130305500Y-85825000D02*
X136418500Y-85825000D01*
X139298500Y-85865000D02*
X145426500Y-85865000D01*
X130290500Y-85865000D02*
X136418500Y-85865000D01*
X139298500Y-85905000D02*
X145440500Y-85905000D01*
X130276500Y-85905000D02*
X136418500Y-85905000D01*
X139298500Y-85945000D02*
X145455500Y-85945000D01*
X130261500Y-85945000D02*
X136418500Y-85945000D01*
X139298500Y-85985000D02*
X145469500Y-85985000D01*
X130247500Y-85985000D02*
X136418500Y-85985000D01*
X139298500Y-86025000D02*
X145483500Y-86025000D01*
X130233500Y-86025000D02*
X136418500Y-86025000D01*
X139298500Y-86065000D02*
X145497500Y-86065000D01*
X130219500Y-86065000D02*
X136418500Y-86065000D01*
X139298500Y-86105000D02*
X145511500Y-86105000D01*
X130205500Y-86105000D02*
X136418500Y-86105000D01*
X139298500Y-86145000D02*
X145524500Y-86145000D01*
X130192500Y-86145000D02*
X136418500Y-86145000D01*
X139298500Y-86185000D02*
X145538500Y-86185000D01*
X130178500Y-86185000D02*
X136418500Y-86185000D01*
X139298500Y-86225000D02*
X145551500Y-86225000D01*
X130165500Y-86225000D02*
X136418500Y-86225000D01*
X139298500Y-86265000D02*
X145563500Y-86265000D01*
X130153500Y-86265000D02*
X136418500Y-86265000D01*
X139298500Y-86305000D02*
X145576500Y-86305000D01*
X130140500Y-86305000D02*
X136418500Y-86305000D01*
X139298500Y-86345000D02*
X145588500Y-86345000D01*
X130128500Y-86345000D02*
X136418500Y-86345000D01*
X139298500Y-86385000D02*
X145600500Y-86385000D01*
X130116500Y-86385000D02*
X136418500Y-86385000D01*
X130104500Y-86425000D02*
X145612500Y-86425000D01*
X130093500Y-86465000D02*
X145623500Y-86465000D01*
X130081500Y-86505000D02*
X145635500Y-86505000D01*
X130070500Y-86545000D02*
X145646500Y-86545000D01*
X130059500Y-86585000D02*
X145657500Y-86585000D01*
X130048500Y-86625000D02*
X145668500Y-86625000D01*
X130038500Y-86665000D02*
X145678500Y-86665000D01*
X130028500Y-86705000D02*
X145688500Y-86705000D01*
X130018500Y-86745000D02*
X145698500Y-86745000D01*
X130008500Y-86785000D02*
X145708500Y-86785000D01*
X129998500Y-86825000D02*
X145718500Y-86825000D01*
X129989500Y-86865000D02*
X145727500Y-86865000D01*
X129980500Y-86905000D02*
X145736500Y-86905000D01*
X129971500Y-86945000D02*
X145745500Y-86945000D01*
X129962500Y-86985000D02*
X145754500Y-86985000D01*
X129953500Y-87025000D02*
X145763500Y-87025000D01*
X129945500Y-87065000D02*
X145771500Y-87065000D01*
X129937500Y-87105000D02*
X145779500Y-87105000D01*
X129929500Y-87145000D02*
X145787500Y-87145000D01*
X129921500Y-87185000D02*
X145795500Y-87185000D01*
X129914500Y-87225000D02*
X145802500Y-87225000D01*
X129906500Y-87265000D02*
X145810500Y-87265000D01*
X129899500Y-87305000D02*
X145817500Y-87305000D01*
X129892500Y-87345000D02*
X145824500Y-87345000D01*
X129886500Y-87385000D02*
X145830500Y-87385000D01*
X129879500Y-87425000D02*
X145837500Y-87425000D01*
X129873500Y-87465000D02*
X145843500Y-87465000D01*
X129867500Y-87505000D02*
X145849500Y-87505000D01*
X129861500Y-87545000D02*
X145855500Y-87545000D01*
X129855500Y-87585000D02*
X145861500Y-87585000D01*
X129850500Y-87625000D02*
X145866500Y-87625000D01*
X129844500Y-87665000D02*
X145872500Y-87665000D01*
X129839500Y-87705000D02*
X145877500Y-87705000D01*
X129834500Y-87745000D02*
X145882500Y-87745000D01*
X129830500Y-87785000D02*
X145886500Y-87785000D01*
X129825500Y-87825000D02*
X145891500Y-87825000D01*
X129821500Y-87865000D02*
X145895500Y-87865000D01*
X129817500Y-87905000D02*
X145899500Y-87905000D01*
X129813500Y-87945000D02*
X145903500Y-87945000D01*
X129809500Y-87985000D02*
X145907500Y-87985000D01*
X129806500Y-88026000D02*
X145910500Y-88026000D01*
X129803500Y-88066000D02*
X145913500Y-88066000D01*
X129800500Y-88106000D02*
X145916500Y-88106000D01*
X129797500Y-88146000D02*
X145919500Y-88146000D01*
X129794500Y-88186000D02*
X145922500Y-88186000D01*
X129792500Y-88226000D02*
X145924500Y-88226000D01*
X129789500Y-88266000D02*
X145927500Y-88266000D01*
X129787500Y-88306000D02*
X145929500Y-88306000D01*
X129785500Y-88346000D02*
X145931500Y-88346000D01*
X129784500Y-88386000D02*
X145932500Y-88386000D01*
X129782500Y-88426000D02*
X145934500Y-88426000D01*
X129781500Y-88466000D02*
X145935500Y-88466000D01*
X129780500Y-88506000D02*
X145936500Y-88506000D01*
X129779500Y-88546000D02*
X145937500Y-88546000D01*
X129778500Y-88586000D02*
X145938500Y-88586000D01*
X129778500Y-88626000D02*
X145938500Y-88626000D01*
X129778500Y-88666000D02*
X145938500Y-88666000D01*
X129777500Y-88706000D02*
X145939500Y-88706000D01*
X145978500Y-88706000D02*
G75*
G03X145978500Y-88706000I-8120000J0D01*
G01*
D11*
X165504833Y-96178642D02*
X165457214Y-96226261D01*
X165314357Y-96273880D01*
X165219119Y-96273880D01*
X165076261Y-96226261D01*
X164981023Y-96131023D01*
X164933404Y-96035785D01*
X164885785Y-95845309D01*
X164885785Y-95702452D01*
X164933404Y-95511976D01*
X164981023Y-95416738D01*
X165076261Y-95321500D01*
X165219119Y-95273880D01*
X165314357Y-95273880D01*
X165457214Y-95321500D01*
X165504833Y-95369119D01*
X165838166Y-95273880D02*
X166457214Y-95273880D01*
X166123880Y-95654833D01*
X166266738Y-95654833D01*
X166361976Y-95702452D01*
X166409595Y-95750071D01*
X166457214Y-95845309D01*
X166457214Y-96083404D01*
X166409595Y-96178642D01*
X166361976Y-96226261D01*
X166266738Y-96273880D01*
X165981023Y-96273880D01*
X165885785Y-96226261D01*
X165838166Y-96178642D01*
X148613833Y-96115142D02*
X148566214Y-96162761D01*
X148423357Y-96210380D01*
X148328119Y-96210380D01*
X148185261Y-96162761D01*
X148090023Y-96067523D01*
X148042404Y-95972285D01*
X147994785Y-95781809D01*
X147994785Y-95638952D01*
X148042404Y-95448476D01*
X148090023Y-95353238D01*
X148185261Y-95258000D01*
X148328119Y-95210380D01*
X148423357Y-95210380D01*
X148566214Y-95258000D01*
X148613833Y-95305619D01*
X148994785Y-95305619D02*
X149042404Y-95258000D01*
X149137642Y-95210380D01*
X149375738Y-95210380D01*
X149470976Y-95258000D01*
X149518595Y-95305619D01*
X149566214Y-95400857D01*
X149566214Y-95496095D01*
X149518595Y-95638952D01*
X148947166Y-96210380D01*
X149566214Y-96210380D01*
X131087833Y-96115142D02*
X131040214Y-96162761D01*
X130897357Y-96210380D01*
X130802119Y-96210380D01*
X130659261Y-96162761D01*
X130564023Y-96067523D01*
X130516404Y-95972285D01*
X130468785Y-95781809D01*
X130468785Y-95638952D01*
X130516404Y-95448476D01*
X130564023Y-95353238D01*
X130659261Y-95258000D01*
X130802119Y-95210380D01*
X130897357Y-95210380D01*
X131040214Y-95258000D01*
X131087833Y-95305619D01*
X132040214Y-96210380D02*
X131468785Y-96210380D01*
X131754500Y-96210380D02*
X131754500Y-95210380D01*
X131659261Y-95353238D01*
X131564023Y-95448476D01*
X131468785Y-95496095D01*
M02*
